<?xml version="1.0" encoding="UTF-8" standalone="no"?>
<!-- Created with Inkscape (http://www.inkscape.org/) -->

<svg
   xmlns:dc="http://purl.org/dc/elements/1.1/"
   xmlns:cc="http://creativecommons.org/ns#"
   xmlns:rdf="http://www.w3.org/1999/02/22-rdf-syntax-ns#"
   xmlns:svg="http://www.w3.org/2000/svg"
   xmlns="http://www.w3.org/2000/svg"
   xmlns:xlink="http://www.w3.org/1999/xlink"
   xmlns:sodipodi="http://sodipodi.sourceforge.net/DTD/sodipodi-0.dtd"
   xmlns:inkscape="http://www.inkscape.org/namespaces/inkscape"
   preserveAspectRatio="none"
   id="svg2"
   version="1.1"
   inkscape:version="0.48.3.1 r9886"
   sodipodi:docname="frame2.svg"
   width="799.89996"
   height="138.40625"
   inkscape:export-filename="/home/anx/code/radio-live/lib/rtv/web/root/img/frame2.png"
   inkscape:export-xdpi="302.5"
   inkscape:export-ydpi="302.5">
  <defs
     id="defs3077">
    <linearGradient
       inkscape:collect="always"
       id="linearGradient4110">
      <stop
         style="stop-color:#ffffff;stop-opacity:1;"
         offset="0"
         id="stop4112" />
      <stop
         style="stop-color:#ffffff;stop-opacity:0;"
         offset="1"
         id="stop4114" />
    </linearGradient>
    <radialGradient
       inkscape:collect="always"
       xlink:href="#linearGradient4110"
       id="radialGradient4116"
       cx="399.97313"
       cy="69.201631"
       fx="399.97313"
       fy="69.201631"
       r="394.78287"
       gradientTransform="matrix(1,0,0,0.16539107,0,57.7563)"
       gradientUnits="userSpaceOnUse" />
  </defs>
  <sodipodi:namedview
     pagecolor="#ffffff"
     bordercolor="#666666"
     borderopacity="1"
     objecttolerance="10"
     gridtolerance="10"
     guidetolerance="10"
     inkscape:pageopacity="0"
     inkscape:pageshadow="2"
     inkscape:window-width="1218"
     inkscape:window-height="660"
     id="namedview3075"
     showgrid="false"
     fit-margin-left="-0.1"
     fit-margin-top="0"
     fit-margin-right="0"
     fit-margin-bottom="0"
     inkscape:zoom="0.84571644"
     inkscape:cx="434.27147"
     inkscape:cy="35.841767"
     inkscape:window-x="700"
     inkscape:window-y="36"
     inkscape:window-maximized="0"
     inkscape:current-layer="svg2"
     inkscape:showpageshadow="false"
     showborder="false" />
  <metadata
     id="metadata7">
    <rdf:RDF>
      <cc:Work
         rdf:about="">
        <dc:format>image/svg+xml</dc:format>
        <dc:type
           rdf:resource="http://purl.org/dc/dcmitype/StillImage" />
        <dc:title></dc:title>
      </cc:Work>
    </rdf:RDF>
  </metadata>
  <path
     inkscape:connector-curvature="0"
     id="rect2985"
     d="M 297.822,0 C 185.33951,0 46.577137,13.40774 17.527489,16.34375 l -6.588492,0 0,1.96875 C 10.240781,19.64861 -0.1,39.72881 -0.1,55.78125 l 0,6.15625 0,14.53125 0,6.1875 c 0,16.05244 10.340781,36.10346 11.038997,37.4375 l 0,1.96875 6.588492,0 c 29.049648,2.93601 167.812021,16.34375 280.294511,16.34375 l 46.77393,0 110.65176,0 46.77393,0 c 112.48249,0 251.24486,-13.40774 280.29452,-16.34375 l 6.54486,0 0,-1.96875 c 0.69821,-1.33404 11.03899,-21.38506 11.03899,-37.4375 l 0,-6.1875 0,-14.53125 0,-6.15625 c 0,-16.05244 -10.34078,-36.13264 -11.03899,-37.46875 l 0,-1.96875 -6.54486,0 C 753.26648,13.40774 614.50411,0 502.02162,0 L 455.24769,0 344.59593,0 297.822,0 z"
     style="opacity:0.8;fill:#4d4d4d;fill-opacity:1;fill-rule:nonzero;stroke:none" />
  <path
     inkscape:connector-curvature="0"
     id="path3091"
     d="M 435.9305,3.94173 C 348.03066,4.53984 259.93696,2.19641 172.27396,8.12456 120.16341,11.1654 68.240797,15.62239 16.361373,20.22298 4.510177,39.46099 4.435024,61.08882 5.7587,81.87923 c -0.435425,12.49588 4.727908,24.58991 10.079084,36.34375 94.652956,8.30311 189.633116,16.17641 285.136806,16.18898 79.39429,-0.16053 158.80482,0.552 238.19016,-0.53273 81.98609,-1.64113 163.67529,-8.32863 244.86502,-15.9375 9.70147,-17.47293 11.33005,-36.52014 10.55904,-55.21875 C 794.96388,48.16104 790.63855,33.75109 784.02977,20.19173 686.8022,11.62718 589.19585,3.63516 491.08213,3.96383 472.69869,3.88033 454.31419,3.90603 435.9305,3.94173 z"
     style="opacity:0.80000000000000004;fill:#243324;fill-opacity:1;fill-rule:nonzero;stroke:none;stroke-opacity:1" />
</svg>
