<?xml version="1.0" encoding="UTF-8" standalone="no"?>
<!-- Created with Inkscape (http://www.inkscape.org/) -->

<svg
   xmlns:osb="http://www.openswatchbook.org/uri/2009/osb"
   xmlns:dc="http://purl.org/dc/elements/1.1/"
   xmlns:cc="http://creativecommons.org/ns#"
   xmlns:rdf="http://www.w3.org/1999/02/22-rdf-syntax-ns#"
   xmlns:svg="http://www.w3.org/2000/svg"
   xmlns="http://www.w3.org/2000/svg"
   xmlns:xlink="http://www.w3.org/1999/xlink"
   xmlns:sodipodi="http://sodipodi.sourceforge.net/DTD/sodipodi-0.dtd"
   xmlns:inkscape="http://www.inkscape.org/namespaces/inkscape"
   width="20"
   height="20"
   id="svg2"
   version="1.1"
   inkscape:version="0.48.3.1 r9886"
   sodipodi:docname="login.svg">
  <defs
     id="defs4">
    <linearGradient
       id="linearGradient3755"
       osb:paint="solid">
      <stop
         style="stop-color:#ffffff;stop-opacity:1;"
         offset="0"
         id="stop3757" />
    </linearGradient>
    <linearGradient
       inkscape:collect="always"
       xlink:href="#linearGradient3755"
       id="linearGradient3759"
       x1="3.4821429"
       y1="1042.2283"
       x2="16.517857"
       y2="1042.2283"
       gradientUnits="userSpaceOnUse" />
  </defs>
  <sodipodi:namedview
     id="base"
     pagecolor="#ffffff"
     bordercolor="#666666"
     borderopacity="1.0"
     inkscape:pageopacity="0.0"
     inkscape:pageshadow="2"
     inkscape:zoom="11.2"
     inkscape:cx="6.3915819"
     inkscape:cy="5.6696429"
     inkscape:document-units="px"
     inkscape:current-layer="layer1"
     showgrid="false"
     inkscape:window-width="1218"
     inkscape:window-height="660"
     inkscape:window-x="700"
     inkscape:window-y="36"
     inkscape:window-maximized="0" />
  <metadata
     id="metadata7">
    <rdf:RDF>
      <cc:Work
         rdf:about="">
        <dc:format>image/svg+xml</dc:format>
        <dc:type
           rdf:resource="http://purl.org/dc/dcmitype/StillImage" />
        <dc:title />
      </cc:Work>
    </rdf:RDF>
  </metadata>
  <g
     inkscape:label="Ebene 1"
     inkscape:groupmode="layer"
     id="layer1"
     transform="translate(0,-1032.3622)">
    <path
       style="fill:#ffffff;fill-opacity:1;fill-rule:nonzero;stroke:none"
       d="m 5.671875,1038.9247 c -1.8984788,0 -3.4375,1.539 -3.4375,3.4375 0,1.8984 1.5390212,3.4375 3.4375,3.4375 1.5153929,0 2.7925624,-0.9825 3.25,-2.3438 l 1.90625,-0.4062 1,1.1562 0.5,-0.4062 0.65625,0.7812 0.9375,-0.8125 0.46875,0.5313 0.6875,-0.5625 0.75,0.5625 0.28125,-0.375 0.8125,0.1875 0.625,-1.9375 -0.125,-0.031 0.34375,0 0,-1.3437 -2,0 -3.21875,0 -3.84375,0 c -0.5694432,-1.1117 -1.6964464,-1.875 -3.03125,-1.875 z m 0,0.9062 c 1.4053674,0 2.53125,1.1259 2.53125,2.5313 0,1.4053 -1.1258826,2.5625 -2.53125,2.5625 -1.4053674,0 -2.5625,-1.1572 -2.5625,-2.5625 0,-1.4054 1.1571326,-2.5313 2.5625,-2.5313 z"
       id="path5910"
       inkscape:connector-curvature="0" />
  </g>
</svg>
