<?xml version="1.0" encoding="UTF-8" standalone="no"?>
<!-- Created with Inkscape (http://www.inkscape.org/) -->

<svg
   xmlns:dc="http://purl.org/dc/elements/1.1/"
   xmlns:cc="http://creativecommons.org/ns#"
   xmlns:rdf="http://www.w3.org/1999/02/22-rdf-syntax-ns#"
   xmlns:svg="http://www.w3.org/2000/svg"
   xmlns="http://www.w3.org/2000/svg"
   xmlns:sodipodi="http://sodipodi.sourceforge.net/DTD/sodipodi-0.dtd"
   xmlns:inkscape="http://www.inkscape.org/namespaces/inkscape"
   width="67.1875"
   height="29.375"
   id="svg3824"
   version="1.1"
   inkscape:version="0.48.4 r9939"
   sodipodi:docname="logo.svg">
  <defs
     id="defs3826" />
  <sodipodi:namedview
     id="base"
     pagecolor="#ffffff"
     bordercolor="#666666"
     borderopacity="1.0"
     inkscape:pageopacity="0.0"
     inkscape:pageshadow="2"
     inkscape:zoom="3.959798"
     inkscape:cx="34.246108"
     inkscape:cy="11.202746"
     inkscape:document-units="px"
     inkscape:current-layer="layer1"
     showgrid="false"
     inkscape:window-width="645"
     inkscape:window-height="461"
     inkscape:window-x="351"
     inkscape:window-y="170"
     inkscape:window-maximized="0"
     fit-margin-top="0"
     fit-margin-left="0"
     fit-margin-right="0"
     fit-margin-bottom="0" />
  <metadata
     id="metadata3829">
    <rdf:RDF>
      <cc:Work
         rdf:about="">
        <dc:format>image/svg+xml</dc:format>
        <dc:type
           rdf:resource="http://purl.org/dc/dcmitype/StillImage" />
        <dc:title></dc:title>
      </cc:Work>
    </rdf:RDF>
  </metadata>
  <g
     inkscape:label="Ebene 1"
     inkscape:groupmode="layer"
     id="layer1"
     transform="translate(-316.40625,-517.67468)">
    <g
       style="font-size:40px;font-style:normal;font-weight:normal;text-align:center;line-height:125%;letter-spacing:0px;word-spacing:0px;text-anchor:middle;opacity:0.69999999999999996;fill:#d2d2d2;fill-opacity:1;stroke:none;font-family:Sans"
       id="text3763">
      <path
         d="m 316.40625,521.71765 0,-4.04297 5.48828,0 0,4.04297 -5.48828,0 m 0,24.94141 0,-21.13281 5.48828,0 0,21.13281 -5.48828,0"
         style="font-variant:normal;font-weight:bold;font-stretch:normal;font-family:Liberation Sans;-inkscape-font-specification:Liberation Sans Bold;fill:#d2d2d2;fill-opacity:1"
         id="path3861" />
      <path
         d="m 327.5,546.65906 0,-16.17188 c 0,-0.45571 -0.007,-0.93748 -0.0195,-1.44531 0,-0.50779 -0.013,-0.98956 -0.0391,-1.44531 -0.013,-0.46873 -0.026,-0.8854 -0.0391,-1.25 -0.013,-0.37759 -0.0325,-0.65102 -0.0586,-0.82031 l 5.23437,0 c 0.026,0.15627 0.0521,0.4297 0.0781,0.82031 0.026,0.37762 0.0521,0.79429 0.0781,1.25 0.026,0.45575 0.0456,0.91147 0.0586,1.36719 0.026,0.44272 0.039,0.80079 0.0391,1.07421 l 0.0781,0 c 0.27343,-0.76821 0.54686,-1.4518 0.82031,-2.05078 0.27343,-0.61196 0.59244,-1.12628 0.95703,-1.54297 0.37759,-0.42966 0.82681,-0.75518 1.34766,-0.97656 0.52082,-0.23435 1.16535,-0.35154 1.93359,-0.35156 0.32551,2e-5 0.64452,0.0326 0.95703,0.0977 0.32551,0.0521 0.5729,0.1172 0.74219,0.19531 l 0,4.58984 c -0.35158,-0.0781 -0.70965,-0.14321 -1.07422,-0.19531 -0.35158,-0.0651 -0.77475,-0.0976 -1.26953,-0.0977 -1.3672,2e-5 -2.43491,0.5534 -3.20313,1.66016 -0.75521,1.10678 -1.13282,2.74741 -1.13281,4.92187 l 0,10.3711 -5.48828,0"
         style="font-variant:normal;font-weight:bold;font-stretch:normal;font-family:Liberation Sans;-inkscape-font-specification:Liberation Sans Bold;fill:#d2d2d2;fill-opacity:1"
         id="path3863" />
      <path
         d="m 347.92969,547.04968 c -1.01563,0 -1.92709,-0.13672 -2.73438,-0.41015 -0.79427,-0.28646 -1.47136,-0.69662 -2.03125,-1.23047 -0.5599,-0.54688 -0.98958,-1.21745 -1.28906,-2.01172 -0.29948,-0.79427 -0.44922,-1.69921 -0.44922,-2.71484 0,-1.25 0.21484,-2.29817 0.64453,-3.14454 0.44271,-0.85936 1.04167,-1.54946 1.79688,-2.07031 0.7552,-0.53384 1.64062,-0.91796 2.65625,-1.15234 1.01562,-0.24739 2.09634,-0.37759 3.24218,-0.39063 l 4.55079,-0.0781 0,-1.07422 c -2e-5,-0.76822 -0.0716,-1.40624 -0.21485,-1.91406 -0.13022,-0.52082 -0.32553,-0.944 -0.58594,-1.26953 -0.26042,-0.32551 -0.58595,-0.55337 -0.97656,-0.6836 -0.37761,-0.14321 -0.81381,-0.21482 -1.30859,-0.21484 -0.45574,2e-5 -0.8659,0.0456 -1.23047,0.13672 -0.35157,0.0912 -0.65756,0.25392 -0.91797,0.48828 -0.26042,0.22137 -0.47527,0.52736 -0.64453,0.91797 -0.15626,0.37762 -0.26694,0.85939 -0.33203,1.44531 l -5.72266,-0.27344 c 0.15625,-0.92446 0.44271,-1.7643 0.85938,-2.51953 0.41666,-0.76821 0.98958,-1.43227 1.71875,-1.99219 0.74218,-0.55987 1.64713,-0.98956 2.71484,-1.28906 1.08072,-0.31248 2.34374,-0.46873 3.78906,-0.46875 1.3151,2e-5 2.48697,0.16278 3.51563,0.48828 1.02863,0.32554 1.90102,0.81382 2.61719,1.46485 0.71612,0.63803 1.263,1.42579 1.64062,2.36328 0.37759,0.93751 0.56639,2.02475 0.56641,3.26172 l 0,7.69531 c -2e-5,0.4948 0.0195,0.9375 0.0586,1.32812 0.0521,0.39063 0.1367,0.72266 0.25391,0.9961 0.13019,0.26042 0.30597,0.46224 0.52734,0.60547 0.23436,0.13021 0.53383,0.19531 0.89844,0.19531 0.41664,0 0.82029,-0.0391 1.21094,-0.11719 l 0,2.96875 c -0.32555,0.0781 -0.61852,0.14974 -0.87891,0.21484 -0.26044,0.0651 -0.52085,0.11719 -0.78125,0.15625 -0.26044,0.0391 -0.54038,0.0716 -0.83984,0.0977 -0.28648,0.026 -0.62502,0.0391 -1.01563,0.0391 -1.38022,0 -2.40236,-0.33854 -3.06641,-1.01562 -0.65105,-0.67708 -1.04168,-1.67318 -1.17187,-2.98828 l -0.11719,0 c -0.72918,1.3151 -1.66668,2.33724 -2.8125,3.0664 -1.13282,0.72917 -2.51303,1.09375 -4.14062,1.09375 m 6.38672,-10.17578 -2.8125,0.0391 c -0.58595,0.0261 -1.14585,0.0781 -1.67969,0.15625 -0.52084,0.0651 -0.98308,0.21486 -1.38672,0.44922 -0.39063,0.22137 -0.70313,0.54689 -0.9375,0.97657 -0.23438,0.42969 -0.35157,1.01563 -0.35156,1.75781 -10e-6,1.00261 0.22785,1.7513 0.68359,2.24609 0.46874,0.48178 1.08723,0.72266 1.85547,0.72266 0.70311,0 1.34114,-0.14974 1.91406,-0.44922 0.57291,-0.29948 1.05468,-0.6901 1.44531,-1.17188 0.40364,-0.49478 0.71614,-1.06119 0.9375,-1.69921 0.22135,-0.63802 0.33202,-1.28906 0.33204,-1.95313 l 0,-1.07422"
         style="font-variant:normal;font-weight:bold;font-stretch:normal;font-family:Liberation Sans;-inkscape-font-specification:Liberation Sans Bold;fill:#d2d2d2;fill-opacity:1"
         id="path3865" />
      <path
         d="m 374.12109,547.04968 c -1.67969,0 -3.15105,-0.26041 -4.41406,-0.78125 -1.25,-0.52083 -2.29167,-1.25651 -3.125,-2.20703 -0.83334,-0.95052 -1.45833,-2.08984 -1.875,-3.41797 -0.41667,-1.34114 -0.625,-2.819 -0.625,-4.43359 0,-1.7578 0.22786,-3.3203 0.68359,-4.6875 0.45573,-1.38019 1.11328,-2.53905 1.97266,-3.47656 0.85937,-0.9505 1.91406,-1.67316 3.16406,-2.16797 1.26302,-0.49477 2.69531,-0.74217 4.29688,-0.74219 1.36717,2e-5 2.57811,0.18231 3.63281,0.54688 1.06769,0.3646 1.98566,0.8659 2.75391,1.5039 0.76821,0.62502 1.3867,1.36721 1.85547,2.22656 0.48175,0.8594 0.81378,1.78387 0.99609,2.77344 l -5.52734,0.27344 c -0.15627,-1.08072 -0.54689,-1.94009 -1.17188,-2.57813 -0.62501,-0.65102 -1.51043,-0.97654 -2.65625,-0.97656 -1.47136,2e-5 -2.54558,0.60549 -3.22266,1.81641 -0.67709,1.21095 -1.01563,2.96876 -1.01562,5.27344 -10e-6,4.86979 1.43879,7.30469 4.31641,7.30468 1.04165,1e-5 1.91405,-0.32551 2.61718,-0.97656 0.70311,-0.66406 1.13931,-1.64713 1.3086,-2.94922 l 5.50781,0.25391 c -0.13023,0.97657 -0.42971,1.91407 -0.89844,2.8125 -0.45575,0.88542 -1.08075,1.67318 -1.875,2.36328 -0.78127,0.67708 -1.73178,1.22396 -2.85156,1.64062 -1.11981,0.40365 -2.40236,0.60547 -3.84766,0.60547"
         style="font-variant:normal;font-weight:bold;font-stretch:normal;font-family:Liberation Sans;-inkscape-font-specification:Liberation Sans Bold;fill:#d2d2d2;fill-opacity:1"
         id="path3867" />
    </g>
  </g>
</svg>
