<?xml version="1.0" encoding="UTF-8" standalone="no"?>
<!-- Created with Inkscape (http://www.inkscape.org/) -->

<svg
   xmlns:osb="http://www.openswatchbook.org/uri/2009/osb"
   xmlns:dc="http://purl.org/dc/elements/1.1/"
   xmlns:cc="http://creativecommons.org/ns#"
   xmlns:rdf="http://www.w3.org/1999/02/22-rdf-syntax-ns#"
   xmlns:svg="http://www.w3.org/2000/svg"
   xmlns="http://www.w3.org/2000/svg"
   xmlns:xlink="http://www.w3.org/1999/xlink"
   xmlns:sodipodi="http://sodipodi.sourceforge.net/DTD/sodipodi-0.dtd"
   xmlns:inkscape="http://www.inkscape.org/namespaces/inkscape"
   width="20"
   height="20"
   id="svg2"
   version="1.1"
   inkscape:version="0.48.3.1 r9886"
   sodipodi:docname="podcasts.svg">
  <defs
     id="defs4">
    <linearGradient
       id="linearGradient3755"
       osb:paint="solid">
      <stop
         style="stop-color:#ffffff;stop-opacity:1;"
         offset="0"
         id="stop3757" />
    </linearGradient>
    <linearGradient
       inkscape:collect="always"
       xlink:href="#linearGradient3755"
       id="linearGradient3759"
       x1="3.4821429"
       y1="1042.2283"
       x2="16.517857"
       y2="1042.2283"
       gradientUnits="userSpaceOnUse" />
  </defs>
  <sodipodi:namedview
     id="base"
     pagecolor="#ffffff"
     bordercolor="#666666"
     borderopacity="1.0"
     inkscape:pageopacity="0.0"
     inkscape:pageshadow="2"
     inkscape:zoom="15.839192"
     inkscape:cx="13.876755"
     inkscape:cy="12.740056"
     inkscape:document-units="px"
     inkscape:current-layer="layer1"
     showgrid="false"
     inkscape:window-width="1218"
     inkscape:window-height="660"
     inkscape:window-x="700"
     inkscape:window-y="36"
     inkscape:window-maximized="0" />
  <metadata
     id="metadata7">
    <rdf:RDF>
      <cc:Work
         rdf:about="">
        <dc:format>image/svg+xml</dc:format>
        <dc:type
           rdf:resource="http://purl.org/dc/dcmitype/StillImage" />
        <dc:title />
      </cc:Work>
    </rdf:RDF>
  </metadata>
  <g
     inkscape:label="Ebene 1"
     inkscape:groupmode="layer"
     id="layer1"
     transform="translate(0,-1032.3622)">
    <g
       id="g3062"
       transform="translate(0,2.3455893)"
       style="fill:#ffffff">
      <rect
         y="1042.5132"
         x="8.7057419"
         height="6.3765879"
         width="2.588516"
         id="rect3045"
         style="fill:#ffffff;fill-opacity:1;fill-rule:nonzero;stroke:none" />
      <path
         transform="translate(-0.03839111,1032.3622)"
         d="m 11.995562,7.2468243 c 0,1.0809154 -0.876255,1.9571705 -1.957171,1.9571705 -1.0809153,0 -1.9571704,-0.8762551 -1.9571704,-1.9571705 0,-1.0809154 0.8762551,-1.9571705 1.9571704,-1.9571705 1.080916,0 1.957171,0.8762551 1.957171,1.9571705 z"
         sodipodi:ry="1.9571705"
         sodipodi:rx="1.9571705"
         sodipodi:cy="7.2468243"
         sodipodi:cx="10.038391"
         id="path3047"
         style="fill:#ffffff;fill-opacity:1;fill-rule:nonzero;stroke:none"
         sodipodi:type="arc" />
      <path
         id="path3049"
         transform="translate(0,1032.3622)"
         d="m 10,2.1875 c -2.7894592,0 -5.0625,2.2730408 -5.0625,5.0625 0,1.8749901 1.0420013,3.500135 2.5625,4.375 C 7.6066924,11.229296 7.7232224,10.862284 7.875,10.53125 6.8029347,9.8357979 6.09375,8.6266285 6.09375,7.25 6.09375,5.0881692 7.8381692,3.34375 10,3.34375 c 2.161831,0 3.90625,1.7444192 3.90625,3.90625 0,1.3766285 -0.709185,2.5857979 -1.78125,3.28125 0.151778,0.331034 0.268308,0.698046 0.375,1.09375 1.520499,-0.874865 2.5625,-2.5000099 2.5625,-4.375 0,-2.7894592 -2.273041,-5.0625 -5.0625,-5.0625 z"
         style="fill:#ffffff;fill-opacity:1;fill-rule:nonzero;stroke:none"
         inkscape:connector-curvature="0" />
      <path
         id="path3054"
         transform="translate(0,1032.3622)"
         d="m 10,-1.21875 c -4.6679787,0 -8.46875,3.80075 -8.46875,8.46875 0,3.698944 2.4045274,6.848938 5.71875,8 -0.039616,-0.363156 -0.0625,-0.739063 -0.0625,-1.125 0,-0.32146 0.034777,-0.631385 0.0625,-0.9375 C 5.0067653,12.153291 3.46875,9.8879063 3.46875,7.25 3.46875,3.6323 6.3823166,0.71875 10,0.71875 c 3.617684,0 6.53125,2.91355 6.53125,6.53125 0,2.6379063 -1.538015,4.903291 -3.78125,5.9375 0.02772,0.306115 0.0625,0.61604 0.0625,0.9375 0,0.385937 -0.02288,0.761844 -0.0625,1.125 3.314223,-1.151062 5.71875,-4.301056 5.71875,-8 0,-4.668 -3.800772,-8.46875 -8.46875,-8.46875 z"
         style="fill:#ffffff;fill-opacity:1;fill-rule:nonzero;stroke:none"
         inkscape:connector-curvature="0" />
    </g>
  </g>
</svg>
