<?xml version="1.0" encoding="UTF-8" standalone="no"?>
<!-- Created with Inkscape (http://www.inkscape.org/) -->

<svg
   xmlns:osb="http://www.openswatchbook.org/uri/2009/osb"
   xmlns:dc="http://purl.org/dc/elements/1.1/"
   xmlns:cc="http://creativecommons.org/ns#"
   xmlns:rdf="http://www.w3.org/1999/02/22-rdf-syntax-ns#"
   xmlns:svg="http://www.w3.org/2000/svg"
   xmlns="http://www.w3.org/2000/svg"
   xmlns:xlink="http://www.w3.org/1999/xlink"
   xmlns:sodipodi="http://sodipodi.sourceforge.net/DTD/sodipodi-0.dtd"
   xmlns:inkscape="http://www.inkscape.org/namespaces/inkscape"
   width="20"
   height="20"
   id="svg2"
   version="1.1"
   inkscape:version="0.48.3.1 r9886"
   sodipodi:docname="radio.svg">
  <defs
     id="defs4">
    <linearGradient
       id="linearGradient3755"
       osb:paint="solid">
      <stop
         style="stop-color:#ffffff;stop-opacity:1;"
         offset="0"
         id="stop3757" />
    </linearGradient>
    <linearGradient
       inkscape:collect="always"
       xlink:href="#linearGradient3755"
       id="linearGradient3759"
       x1="3.4821429"
       y1="1042.2283"
       x2="16.517857"
       y2="1042.2283"
       gradientUnits="userSpaceOnUse" />
  </defs>
  <sodipodi:namedview
     id="base"
     pagecolor="#ffffff"
     bordercolor="#666666"
     borderopacity="1.0"
     inkscape:pageopacity="0.0"
     inkscape:pageshadow="2"
     inkscape:zoom="11.2"
     inkscape:cx="5.3346634"
     inkscape:cy="11.015783"
     inkscape:document-units="px"
     inkscape:current-layer="layer1"
     showgrid="false"
     inkscape:window-width="1022"
     inkscape:window-height="578"
     inkscape:window-x="0"
     inkscape:window-y="20"
     inkscape:window-maximized="0" />
  <metadata
     id="metadata7">
    <rdf:RDF>
      <cc:Work
         rdf:about="">
        <dc:format>image/svg+xml</dc:format>
        <dc:type
           rdf:resource="http://purl.org/dc/dcmitype/StillImage" />
        <dc:title />
      </cc:Work>
    </rdf:RDF>
  </metadata>
  <g
     inkscape:label="Ebene 1"
     inkscape:groupmode="layer"
     id="layer1"
     transform="translate(0,-1032.3622)">
    <path
       inkscape:connector-curvature="0"
       style="fill:#4d4d4d;fill-opacity:1;fill-rule:nonzero;stroke:none"
       d="m 13.9375,1038.4922 c -0.471414,0 -0.873187,0.3807 -0.90625,0.8437 l -9.1875,0 c -1.108,0 -2,0.892 -2,2 l 0,6.2813 c 0,1.108 0.892,2 2,2 l 12.3125,0 c 1.108,0 2,-0.892 2,-2 l 0,-6.2813 c 0,-0.831 -0.500438,-1.5409 -1.21875,-1.8437 0.0038,-0.034 0.03125,-0.059 0.03125,-0.094 0,-0.4931 -0.413139,-0.9062 -0.90625,-0.9062 -0.471414,0 -0.841937,0.3807 -0.875,0.8437 l -0.375,0 c -0.03306,-0.463 -0.403586,-0.8437 -0.875,-0.8437 z"
       id="rect5257" />
    <path
       style="fill:#4d4d4d;fill-opacity:1;fill-rule:nonzero;stroke:none"
       d="m 14.658542,1035.7008 c -0.174564,-0.4612 -0.677987,-0.7124 -1.139155,-0.5379 -0.307508,0.1164 -0.513455,0.4127 -0.564765,0.715 l -9.7323279,3.6839 0.3097553,0.8183 9.7323276,-3.6838 c 0.238615,0.1925 0.589138,0.2782 0.896646,0.1618 0.461168,-0.1746 0.672084,-0.6962 0.497519,-1.1573 z"
       id="rect5767"
       inkscape:connector-curvature="0" />
    <path
       sodipodi:type="arc"
       style="fill:#b3b3b3;fill-opacity:1;fill-rule:nonzero;stroke:none"
       id="path5774"
       sodipodi:cx="13.303572"
       sodipodi:cy="12.946428"
       sodipodi:rx="1.7857143"
       sodipodi:ry="1.7857143"
       d="m 15.089286,12.946428 a 1.7857143,1.7857143 0 1 1 -3.571429,0 1.7857143,1.7857143 0 1 1 3.571429,0 z"
       transform="matrix(2.4,0,0,2.4,-24.607143,1013.4073)" />
    <path
       transform="matrix(0.95,0,0,0.95,-5.3169639,1032.1796)"
       d="m 15.089286,12.946428 a 1.7857143,1.7857143 0 1 1 -3.571429,0 1.7857143,1.7857143 0 1 1 3.571429,0 z"
       sodipodi:ry="1.7857143"
       sodipodi:rx="1.7857143"
       sodipodi:cy="12.946428"
       sodipodi:cx="13.303572"
       id="path5777"
       style="fill:#000000;fill-opacity:1;fill-rule:nonzero;stroke:none"
       sodipodi:type="arc" />
    <rect
       style="fill:#b3b3b3;fill-opacity:1;fill-rule:nonzero;stroke:none"
       id="rect5779"
       width="2.0535715"
       height="7.7678571"
       x="13.75"
       y="1040.5948"
       rx="1"
       ry="1" />
    <path
       sodipodi:type="arc"
       style="fill:#000000;fill-opacity:1;fill-rule:nonzero;stroke:none"
       id="path5781"
       sodipodi:cx="13.303572"
       sodipodi:cy="12.946428"
       sodipodi:rx="1.7857143"
       sodipodi:ry="1.7857143"
       d="m 15.089286,12.946428 a 1.7857143,1.7857143 0 1 1 -3.571429,0 1.7857143,1.7857143 0 1 1 3.571429,0 z"
       transform="matrix(0.8,0,0,0.8,4.0892861,1034.1216)" />
  </g>
</svg>
