<?xml version="1.0" encoding="UTF-8" standalone="no"?>
<svg
   xmlns:dc="http://purl.org/dc/elements/1.1/"
   xmlns:cc="http://creativecommons.org/ns#"
   xmlns:rdf="http://www.w3.org/1999/02/22-rdf-syntax-ns#"
   xmlns:svg="http://www.w3.org/2000/svg"
   xmlns="http://www.w3.org/2000/svg"
   xmlns:sodipodi="http://sodipodi.sourceforge.net/DTD/sodipodi-0.dtd"
   xmlns:inkscape="http://www.inkscape.org/namespaces/inkscape"
   width="500"
   height="500"
   id="svg2"
   version="1.1"
   inkscape:version="0.48.3.1 r9886"
   sodipodi:docname="Anonymous_Flag.svg">
  <metadata
     id="metadata48">
    <rdf:RDF>
      <cc:Work
         rdf:about="">
        <dc:format>image/svg+xml</dc:format>
        <dc:type
           rdf:resource="http://purl.org/dc/dcmitype/StillImage" />
        <dc:title>Anonymous emblem</dc:title>
        <cc:license
           rdf:resource="" />
      </cc:Work>
    </rdf:RDF>
  </metadata>
  <defs
     id="defs46" />
  <sodipodi:namedview
     pagecolor="#ffffff"
     bordercolor="#666666"
     borderopacity="1"
     objecttolerance="10"
     gridtolerance="10"
     guidetolerance="10"
     inkscape:pageopacity="0"
     inkscape:pageshadow="2"
     inkscape:window-width="1600"
     inkscape:window-height="820"
     id="namedview44"
     showgrid="false"
     showguides="true"
     inkscape:snap-page="true"
     inkscape:snap-to-guides="false"
     inkscape:snap-grids="false"
     inkscape:snap-nodes="false"
     inkscape:snap-bbox="true"
     fit-margin-top="0"
     fit-margin-left="0"
     fit-margin-right="0"
     fit-margin-bottom="0"
     inkscape:zoom="0.63031429"
     inkscape:cx="300.47176"
     inkscape:cy="124.97609"
     inkscape:window-x="0"
     inkscape:window-y="29"
     inkscape:window-maximized="1"
     inkscape:current-layer="svg2" />
  <title
     id="title4">Anonymous emblem</title>
  <circle
     cx="375"
     cy="250"
     r="154.265"
     id="circle12"
     sodipodi:cx="375"
     sodipodi:cy="250"
     sodipodi:rx="154.265"
     sodipodi:ry="154.265"
     transform="matrix(1.5910899,0,0,1.5910899,-346.65871,-147.77247)"
     style="fill:#ffffff;stroke:#000000;stroke-width:5.71999979" />
  <path
     d="m 366.63325,94.297539 13.41926,13.583141 c 10.98647,17.59268 26.62689,34.25775 43.82975,46.64916 l -1.9634,-4.50437 C 418.45823,135.77248 413.10581,122.00796 401.25378,111.38426 391.16309,102.30709 378.428,99.304699 366.63325,94.297539 h 0 z m -237.09626,2.251392 c -16.18934,6.313449 -34.275262,12.316629 -44.041372,29.384249 -6.86396,9.22992 -7.04693,21.22992 -11.88544,31.27765 8.9642,-8.43278 19.07399,-14.89419 26.981702,-24.70008 8.8226,-12.31345 17.0549,-25.52108 28.94511,-35.961819 h 0 z m 281.13922,19.124909 c 6.41369,4.29435 11.19014,10.98965 13.59905,17.80111 4.80986,15.72156 7.13126,32.3389 14.02546,47.07876 l -0.42801,0.393 c -2.58552,-4.11615 -3.9109,-9.13127 -7.92362,-12.76054 -11.98728,-15.74702 -32.87669,-19.88544 -40.61576,-38.5712 1.95864,11.1599 5.37789,21.69928 13.20605,30.34844 13.50517,14.57439 33.11854,23.18537 42.36436,41.39539 l 0.1432,-0.1432 c -3.45267,-17.18536 2.04614,-33.77406 -1.71361,-50.79713 -3.27446,-15.05012 -16.91965,-31.52427 -32.65712,-34.74463 h 0 z m -324.789182,2.93078 c -8.25139,2.11297 -15.59427,7.09786 -21.37788,14.29913 -13.32697,13.99682 -11.93954,35.56245 -10.06524,54.44232 0.38664,5.84407 -0.81304,11.30788 -0.428,16.76532 3.91408,-8.02864 10.77327,-15.13127 17.88067,-21.3763 17.23628,-12.15592 35.221962,-29.16945 35.476532,-50.79713 -5.57677,15.56404 -22.383452,22.11615 -33.762932,32.63802 -5.84884,5.74225 -10.53938,12.40891 -13.20604,19.4463 l -0.42801,-0.32299 c 1.40016,-6.22434 4.23389,-11.83611 5.85362,-17.9093 5.07876,-16.42164 4.0366,-36.1623 20.05728,-47.18537 h 0 z m 359.766112,26.20207 c 5.64837,7.88067 6.63326,17.77407 6.78123,27.95386 -2.57916,18.79555 -3.38902,38.70008 -0.71281,57.73111 0,0.0414 -0.027,0.10501 -0.0366,0.14319 -0.01,0.0286 -0.0223,0.0827 -0.035,0.1082 -0.0255,0.0414 -0.0732,0.10819 -0.10819,0.14161 -0.035,0.0334 -0.0987,0.0827 -0.14161,0.10819 -0.0891,0.0461 -0.22116,0.0668 -0.3214,0.0716 -1.54495,-5.02466 -1.43675,-10.84169 -3.92681,-15.51472 -6.07796,-18.47573 -28.35322,-27.13285 -37.40334,-43.89817 1.26969,7.29992 3.55927,14.22434 6.24503,20.94829 8.46937,20.56325 29.0342,36.10024 34.72712,57.90931 0.65076,2.00955 0.84328,4.45346 1.57041,6.25616 1.52586,-10.45187 4.25298,-20.51392 8.13843,-29.95545 10.42323,-22.28162 7.28082,-53.249 -7.03103,-72.67303 -2.5187,-3.15195 -4.12411,-7.21718 -7.74543,-9.33015 h 0 z m -394.280032,3.25378 c -0.0191,0.006 -0.0509,0.0271 -0.07,0.035 -0.0509,0.0223 -0.13206,0.078 -0.1782,0.10661 -0.12092,0.0796 -0.26412,0.18138 -0.393,0.25139 -11.17263,14.25457 -19.11376,29.87749 -18.63166,49.00875 -1.50358,23.54654 13.57995,40.14002 15.27605,62.34209 3.49722,-23.16786 22.65394,-39.74702 33.01512,-59.9825 3.6245,-8.09388 6.33572,-16.91488 7.42402,-25.66746 -1.46062,3.72792 -3.93954,6.94033 -6.78122,10.11614 -13.31265,12.14798 -28.58393,24.60621 -31.47972,42.18298 -0.48687,2.49801 -0.63007,5.11376 -1.3572,7.54177 -0.01,0.005 -0.027,-0.005 -0.035,0 -0.0159,0.006 -0.0557,0.0318 -0.0716,0.035 -0.0159,0.005 -0.0573,-0.002 -0.0716,0 -0.006,0 -0.0286,0 -0.035,0 -0.006,0 -0.0302,0 -0.0366,0 -0.006,0 -0.0286,0 -0.035,0 -0.005,0 -0.0302,0.002 -0.035,0 -0.005,-0.002 -0.0318,0.002 -0.0366,0 -0.005,-0.002 -0.0302,-0.0318 -0.035,-0.035 -0.01,-0.006 -0.0271,-0.0286 -0.0366,-0.035 -0.0955,-0.0875 -0.18457,-0.23866 -0.24821,-0.35799 -0.0159,-0.0286 -0.0541,-0.0827 -0.0716,-0.10661 -0.006,-0.006 -0.0302,-0.0302 -0.0366,-0.0366 -0.006,-0.006 -0.0286,-0.0302 -0.035,-0.035 l 1.64201,-21.77089 c 0.56006,-21.28083 -9.62132,-44.8751 2.67621,-63.59268 -0.11774,-0.0223 -0.22752,-0.0302 -0.3214,0 h -0.002 z m 419.729522,55.65792 c 3.63882,19.84725 -5.2681,36.43118 -12.42164,52.86873 -5.03262,11.42403 -6.68576,24.28958 -9.92204,36.53302 l -0.96261,1.10899 -0.393,-0.393 c 1.13127,-5.32061 2.99921,-10.46619 2.49801,-16.51552 1.37789,-24.96101 -20.43914,-40.26889 -25.37629,-62.52187 l -0.2498,8.32935 c 1.85839,21.78998 7.61018,41.95227 14.16865,61.80589 3.7868,9.22037 2.66031,21.18854 1.78521,30.92124 7.84089,-12.29276 18.10342,-23.54336 26.59029,-35.63882 11.89022,-21.84885 15.15991,-53.09785 4.28322,-76.49801 h 0 z m -443.320612,3.43198 c -2.55529,5.45744 -3.62928,11.57836 -4.99602,17.51472 -2.90692,15.4638 -0.0573,31.92362 4.21161,46.11455 5.18696,17.79953 22.65712,30.49802 31.47972,46.79237 l 1.21241,0.96579 c -1.28401,-8.84646 -1.96659,-18.36913 0.53619,-26.80987 3.80271,-13.51153 8.17343,-26.72076 11.09945,-40.64439 1.52903,-10.94351 4.20525,-23.06285 2.9276,-33.60223 -1.45584,5.6786 -3.1424,11.144 -6.06841,16.08592 -12.03183,18.23389 -23.99841,39.8759 -15.70406,63.16468 -0.0477,0.0605 -0.12092,0.15116 -0.1782,0.2148 -0.0143,0.0159 -0.0557,0.0557 -0.0716,0.07 -0.0382,0.0366 -0.10024,0.0811 -0.14161,0.10819 -0.0589,0.0334 -0.15115,0.0668 -0.2148,0.0716 -0.005,0 -0.0318,0 -0.0366,0 -0.005,0 -0.0302,0 -0.035,0 -0.005,0 -0.0302,0 -0.035,0 -0.01,-0.002 -0.0271,-0.0318 -0.0366,-0.0366 -0.005,-0.002 -0.0302,0.002 -0.035,0 -3.33333,-7.69291 -3.91408,-16.50119 -6.24662,-24.70007 -5.55927,-21.88067 -22.49642,-40.09547 -17.66587,-65.30947 h -0.002 z m 396.743042,69.59904 c -9.75656,29.00875 -2.00955,65.22196 -17.84566,91.58314 v 0.9642 c 10.34049,-8.01909 21.25696,-14.5362 32.01591,-21.59109 26.10342,-17.82816 43.71837,-45.43357 38.93874,-76.92602 -1.84885,18.86397 -16.15593,32.8051 -30.23071,46.39937 -9.06762,9.72156 -15.11853,20.5712 -22.87828,30.77804 h -0.9642 c 5.74383,-8.74781 9.30151,-18.4646 9.85203,-29.42084 0.55052,-18.13365 -7.28242,-33.43835 -5.24742,-51.50995 h 0 l -3.64041,9.72315 z M 71.468578,269.95705 c 2.18933,14.40255 -3.52586,27.12967 -4.81783,40.82259 -1.12171,11.2506 0.57916,22.32777 5.24742,31.63564 0.97693,2.92602 3.62291,5.33016 4.28162,8.18616 -4.21798,-3.80111 -6.94351,-8.82736 -10.10024,-13.36993 -13.34129,-22.19252 -42.13524,-36.3564 -44.07796,-63.16308 -0.97534,11.92362 -0.47096,24.79077 4.03341,35.17422 10.68576,30.11297 43.51154,45.7327 67.59905,62.16388 -2.27208,-5.73588 -5.70724,-11.0883 -7.42403,-17.08671 -6.55529,-27.43357 -3.0167,-59.04535 -14.74144,-84.36277 h 0 z m 341.992042,43.32538 c -5.67383,6.22434 -9.69292,13.10103 -14.56165,19.65951 -15.28242,23.16945 -13.99682,53.61018 -36.90533,73.28241 13.52585,-4.62052 28.40413,-5.81066 42.33094,-9.54494 26.90852,-8.57121 55.4829,-35.54495 59.03262,-64.30868 -3.30469,8.50279 -10.18616,16.37868 -17.70247,22.37709 -18.76372,14.08592 -41.43675,18.94511 -58.78281,36.28322 -1.85362,1.22036 -3.7152,3.04057 -5.81862,3.14558 6.49483,-5.65155 12.34686,-12.64598 16.45346,-19.8393 10.6794,-18.1241 6.65712,-42.37709 15.95386,-61.05489 h 0 z m -327.250602,2.57279 c 9.88863,19.77088 5.21719,45.53381 18.415282,63.91567 3.62609,6.07797 9.63405,11.39698 14.81304,16.08592 l -0.2498,0.25139 c -4.68576,-2.18615 -9.01989,-5.32537 -13.17104,-9.00875 -22.552112,-18.52983 -56.202072,-21.04534 -69.632462,-51.47494 3.6436,22.3405 21.0358,42.66985 40.50915,54.65712 17.83612,12.46142 41.501992,10.63167 61.710422,17.30152 -18.67303,-15.0724 -21.76929,-37.61496 -29.83771,-57.55291 -5.42561,-12.2132 -13.571992,-23.40811 -22.556882,-34.17502 h 0 z M 381.8393,361.86159 c -16.2498,11.10103 -29.2681,25.59109 -43.90135,39.68019 -9.93477,8.98329 -22.06524,12.71281 -34.54734,15.54972 v 0.1782 l 5.03103,0.6428 c 26.10501,4.22594 53.52585,16.84487 80.77009,6.54256 15.85362,-5.58313 33.27128,-18.8751 40.22434,-34.74622 -18.72713,22.77486 -49.29356,18.50279 -75.98727,22.70008 -7.179,0.72713 -13.80748,3.30151 -21.05808,3.14559 5.08513,-2.44551 11.31265,-2.99125 16.24026,-6.22117 19.90612,-9.94908 21.17741,-31.99681 33.22832,-47.47175 h 0 z m -263.36516,2.18138 c 12.20525,16.43914 15.52586,40.84646 38.01114,48.75895 3.7327,1.96977 8.46619,1.72951 11.88544,3.89658 -4.29435,0.65871 -8.01273,-0.98489 -12.06364,-1.53858 -28.68576,-6.41846 -63.875902,1.75815 -85.409712,-22.77009 8.17343,16.02864 24.94352,28.90851 41.186962,34.03182 24.98647,8.49006 51.1774,-0.98966 74.73826,-6.79236 3.35561,-0.87988 7.42244,-0.59507 10.56484,-1.71679 -13.08831,-2.66985 -25.51313,-6.88783 -35.83453,-15.94272 -14.38504,-13.55449 -27.48448,-27.55609 -43.07876,-37.92681 h 0 z m 154.75577,53.04853 c -6.21957,0.15433 -12.41368,0.98647 -18.38027,2.53779 -4.20843,3.78202 -8.5362,-0.67303 -12.99125,-0.751 -28.54256,-6.23548 -53.12967,6.80191 -76.80668,17.08672 -17.64519,6.95306 -40.77009,5.84407 -56.2864,-4.86078 7.6786,9.64041 17.95068,15.56086 28.5537,19.5895 19.7152,7.86953 43.18377,2.50596 59.49722,-8.90215 14,-7.86953 26.02864,-23.33015 44.47096,-17.47972 -18.76849,8.73827 -35.92044,20.96261 -51.43039,36.67622 l 9.70724,8.04296 c 11.30947,-15.17104 26.36754,-27.54336 41.57995,-37.17741 3.29992,-1.77406 6.79873,-3.99204 10.45824,-4.46778 18.68576,9.1424 35.36197,24.81146 50.43118,41.07239 3.2156,-2.59824 6.60939,-5.42084 9.24424,-8.43436 -15.63724,-15.13127 -32.7335,-26.98807 -51.14559,-35.56882 3.05967,-0.88464 6.5362,-1.03421 10.13683,-0.96579 9.92522,-0.62212 16.70327,6.4105 24.37709,11.29674 18.95147,14.39459 44.26094,23.86794 68.52665,14.79873 10.87829,-3.90136 21.41289,-10.79873 29.12331,-20.4121 -14.99761,10.67781 -37.61018,12.48688 -55.1074,6.00637 l -18.84327,-7.57836 C 305.21718,420.62054 289.1249,416.69691 273.22991,417.0915 h 0 z"
     id="path14"
     inkscape:connector-curvature="0" />
  <g
     id="g16"
     transform="matrix(1.5910899,0,0,1.5910899,-346.65871,-147.77247)"
     style="fill:#c0c0c0">
    <rect
       x="275.44699"
       y="244.912"
       width="199.104"
       height="4.4187002"
       id="rect18" />
    <rect
       x="372.811"
       y="147.592"
       width="4.37427"
       height="199.058"
       id="rect20" />
    <path
       d="m 374.999,308.794 c -34.458,0 -61.205,15.312 -61.205,15.312 l 2.188,3.795 c 0,0 25.86,-14.732 59.017,-14.732 33.156,0 59.017,14.732 59.017,14.732 l 2.187,-3.795 c 0,0 -26.746,-15.312 -61.204,-15.312 z"
       id="path22"
       inkscape:connector-curvature="0" />
    <path
       d="m 374.999,273.08 c -45.566,0 -90.848,15.179 -90.848,15.179 l 1.385,4.152 c 0,0 44.875,-14.911 89.463,-14.911 44.587,0 89.462,14.911 89.462,14.911 l 1.385,-4.152 c 0,0 -45.283,-15.179 -90.847,-15.179 z"
       id="path24"
       inkscape:connector-curvature="0" />
    <path
       d="m 374.91,145.403 0.178,4.376 c 0,0 0.028,-0.031 0.536,0.089 0.507,0.121 1.329,0.404 2.366,1.027 2.073,1.247 5.073,3.931 8.214,9.821 6.281,11.778 12.901,36.377 12.901,86.427 0,50.051 -6.62,74.605 -12.901,86.383 -3.141,5.889 -6.141,8.575 -8.214,9.822 -1.037,0.622 -1.859,0.905 -2.366,1.027 -0.508,0.12 -0.536,0.088 -0.536,0.088 l -0.178,4.42 c 0,0 0.811,-0.003 1.74,-0.223 0.93,-0.221 2.143,-0.66 3.571,-1.518 2.857,-1.717 6.435,-5.081 9.867,-11.517 6.864,-12.873 13.393,-38.048 13.393,-88.482 0,-50.433 -6.529,-75.653 -13.393,-88.526 -3.432,-6.435 -7.01,-9.799 -9.867,-11.516 -1.428,-0.859 -2.641,-1.298 -3.571,-1.519 -0.929,-0.22 -1.74,-0.179 -1.74,-0.179 z"
       id="path26"
       inkscape:connector-curvature="0" />
    <path
       d="m 375.133,145.403 -0.269,4.376 c 0,0 14.75,0.863 29.733,13.348 14.981,12.485 30.178,36.596 30.178,84.016 0,47.421 -15.197,71.488 -30.178,83.972 -14.983,12.485 -29.733,13.348 -29.733,13.348 l 0.269,4.42 c 0,0 16.267,-1.034 32.276,-14.375 16.009,-13.34 31.786,-38.997 31.786,-87.365 0,-48.368 -15.777,-74.069 -31.786,-87.408 -16.009,-13.342 -32.276,-14.332 -32.276,-14.332 z"
       id="path28"
       inkscape:connector-curvature="0" />
    <path
       d="m 374.864,145.403 c 0,0 -16.267,0.99 -32.275,14.332 -16.01,13.339 -31.785,39.04 -31.785,87.408 0,48.368 15.775,74.025 31.785,87.365 16.008,13.341 32.275,14.375 32.275,14.375 l 0.269,-4.42 c 0,0 -14.75,-0.863 -29.733,-13.348 -14.981,-12.484 -30.178,-36.551 -30.178,-83.972 0,-47.42 15.197,-71.531 30.178,-84.016 14.983,-12.485 29.733,-13.348 29.733,-13.348 l -0.269,-4.376 z"
       id="path30"
       inkscape:connector-curvature="0" />
    <path
       d="m 285.536,201.831 -1.385,4.197 c 0,0 45.282,15.134 90.848,15.134 45.564,0 90.847,-15.134 90.847,-15.134 l -1.385,-4.197 c 0,0 -44.875,14.911 -89.462,14.911 -44.588,0 -89.463,-14.911 -89.463,-14.911 z"
       id="path32"
       inkscape:connector-curvature="0" />
    <path
       d="m 375.088,145.403 c 0,0 -0.812,-0.041 -1.741,0.179 -0.93,0.221 -2.143,0.66 -3.571,1.519 -2.857,1.717 -6.434,5.081 -9.866,11.516 -6.866,12.873 -13.392,38.093 -13.392,88.526 0,50.434 6.526,75.609 13.392,88.482 3.432,6.436 7.009,9.8 9.866,11.517 1.428,0.858 2.641,1.297 3.571,1.518 0.929,0.22 1.741,0.223 1.741,0.223 l -0.178,-4.42 c 0,0 -0.029,0.032 -0.536,-0.088 -0.508,-0.122 -1.33,-0.405 -2.367,-1.027 -2.073,-1.247 -5.073,-3.933 -8.214,-9.822 -6.281,-11.778 -12.901,-36.332 -12.901,-86.383 0,-50.05 6.62,-74.649 12.901,-86.427 3.141,-5.89 6.141,-8.574 8.214,-9.821 1.037,-0.623 1.859,-0.906 2.367,-1.027 0.507,-0.12 0.536,-0.089 0.536,-0.089 l 0.178,-4.376 z"
       id="path34"
       inkscape:connector-curvature="0" />
    <path
       d="m 315.982,166.342 -2.188,3.794 c 0,0 26.747,15.312 61.205,15.312 34.458,0 61.204,-15.312 61.204,-15.312 l -2.187,-3.794 c 0,0 -25.861,14.731 -59.017,14.731 -33.157,0 -59.017,-14.731 -59.017,-14.731 z"
       id="path36"
       inkscape:connector-curvature="0" />
    <path
       d="m 374.999,145.403 c -26.663,0 -53.065,10.926 -71.919,29.777 -18.853,18.851 -29.823,45.272 -29.821,71.919 10e-4,26.647 10.968,53.045 29.821,71.873 18.854,18.829 45.26,29.733 71.919,29.733 26.595,0 52.94,-10.853 71.784,-29.599 l 0.134,-0.134 c 18.853,-18.828 29.82,-45.226 29.821,-71.873 0.002,-26.647 -10.968,-53.068 -29.821,-71.919 -18.854,-18.851 -45.256,-29.777 -71.918,-29.777 z m 0,4.376 c 25.456,0 50.837,10.527 68.838,28.527 18,17.998 28.483,43.353 28.481,68.793 -10e-4,25.44 -10.482,50.774 -28.481,68.749 -17.999,17.975 -43.385,28.481 -68.838,28.481 -25.454,0 -50.84,-10.506 -68.838,-28.481 -18,-17.975 -28.481,-43.309 -28.483,-68.749 -10e-4,-25.44 10.482,-50.795 28.483,-68.793 18,-18 43.381,-28.527 68.838,-28.527 z"
       id="path38"
       inkscape:connector-curvature="0" />
  </g>
  <path
     d="m 252.85601,334.27686 c 0,0 32.26094,-26.61575 32.26094,-52.43437 0,-25.81543 -11.85681,-44.98011 -11.85681,-44.98011 l -13.78679,-7.98409 h -17.64678 c 0,0 -4.20525,2.59507 -17.09626,10.11456 -4.34208,15.76929 -19.02625,37.52586 -11.02944,60.14956 7.99682,22.62371 39.15514,35.13445 39.15514,35.13445 h 0 z"
     id="path40"
     inkscape:connector-curvature="0"
     style="fill:#ffffff" />
  <path
     d="m 266.70167,233.05808 c -1.41766,-1.67223 -4.13683,-3.84884 -10.13683,-5.77406 h -11.09786 c -3.45266,0.78441 -6.37231,2.81146 -9.17263,4.80509 0.23389,0.11297 0.49165,0.22275 0.7319,0.33572 4.29595,-2.16229 9.17741,-3.55131 14.05251,-3.55131 1.57995,0 3.15831,0.14479 4.71599,0.45823 3.78998,0.79236 7.23309,2.58075 10.90692,3.72633 z m -18.83214,0.59348 h -0.20207 c -2.77168,0 -5.15831,0.0557 -14.10819,4.77009 -0.53461,-0.68735 -1.10104,-1.32697 -1.58155,-2.04773 0.40891,-0.393 0.83533,-0.786 1.27288,-1.15514 -1.27288,-0.16229 -3.59905,0.10024 -3.12331,2.01114 3.22355,3.0549 7.57359,4.71599 11.60063,6.55848 2.29436,1.12967 4.72872,1.98249 6.93716,3.27764 -3.39857,2.23707 -4.54416,6.21162 -6.39778,9.53699 -1.45584,3.55291 -3.68019,6.8035 -4.6237,10.54416 3.65632,-3.13922 4.28162,-7.21878 8.47891,-9.23946 0.97534,0.97056 1.93954,1.91567 2.81305,2.98011 -0.68099,7.41129 -4.03659,14.24344 -5.16468,21.5704 -0.428,5.16309 -0.54574,10.32936 -0.80827,15.5004 -0.21957,1.23787 -0.25935,2.48847 -0.25935,3.74225 0,0.74622 0.0143,1.49244 0.0143,2.23707 0,4.01273 -0.35799,1.00398 -0.35799,10.03182 0,2.31663 0.0175,4.63484 0.0175,6.95147 0,1.5354 -0.006,3.0708 -0.0318,4.60621 l 0.57756,0.85759 c -0.15752,0.0716 -0.45823,0.22435 -0.61575,0.29754 -6.82896,-8.05887 -21.75338,-31.44949 -21.75338,-52.68258 0,-1.06762 0.0684,-2.13524 0.24821,-3.20127 0.19889,-4.25458 0.61416,-8.58234 2.19729,-12.59348 0.95466,-2.6778 2.35482,-5.31106 2.77487,-8.12092 -0.80351,-1.33811 -1.24265,-2.86715 -1.24265,-4.39937 0,-0.82736 0.12729,-1.65473 0.39459,-2.45505 0.70008,-2.04296 1.57837,-4.01432 2.23549,-6.07319 -3.99523,2.53461 -8.37073,4.45665 -12.25458,7.15195 -1.67383,1.10422 -2.78122,2.79077 -4.1241,4.21162 -2.35641,2.15911 -5.4829,3.20286 -8.40096,4.43277 -5.01511,2.20366 -10.54574,2.88465 -15.87908,4.02387 -6.30389,1.24423 -12.72076,1.79952 -18.96101,3.35243 -2.02387,0.52824 -4.03501,1.83134 -4.70008,3.8377 -1.02785,2.67144 -1.24424,5.55609 -2.12093,8.27049 -2.07,6.92283 -3.67541,13.97613 -5.08671,21.05012 -0.36277,1.84566 -1.31106,3.63405 -1.31106,5.52904 0,1.39538 0.55052,2.04614 1.73588,3.48767 -0.17025,0.52824 -0.30549,1.06921 -0.46301,1.60063 -1.33492,0.91965 -3.75338,1.46221 -3.75338,2.80191 0,0.14797 0.0286,0.30708 0.0923,0.47574 0.29754,0.79077 1.39062,1.35242 2.15752,1.6786 -0.0334,1.75497 -1.77247,2.88146 -1.92681,4.61893 -0.65712,5.00557 -1.85362,9.91726 -2.85123,14.86396 -1.1599,6.10024 -2.2148,12.22753 -2.81305,18.40573 -0.44391,8.08592 -2.37072,16.00955 -2.69849,24.10501 -0.0111,1.78839 -0.33731,3.58473 -0.33731,5.3747 0,0.75736 0.0589,1.50995 0.22276,2.26253 0.40572,2.74782 1.99681,5.11218 3.42879,7.45108 2.40732,3.74702 5.28242,7.18854 8.09388,10.65394 1.90453,2.06205 3.48289,4.45505 5.78043,6.14797 3.22673,2.56643 6.22912,5.40652 9.67223,7.71201 2.07797,1.36993 4.20366,2.73349 6.01273,4.43278 0.79396,1.14081 0.44392,2.65553 0.77009,3.94908 l -7.66905,59.01353 c -0.14797,1.05807 8.9992,7.68019 53.72792,17.60063 8.22912,0.62848 14.82737,0.95625 20.79873,0.95625 20.18297,0 33.21559,-3.7327 77.8918,-12.14797 l -4.16229,-59.27447 c -0.393,-1.99045 0.10502,-4.06682 -0.61734,-5.99841 6.43596,-4.12887 13.26173,-7.61654 19.65473,-11.80906 l 7.55291,-4.84487 c 3.79156,-2.1798 6.79554,-5.35561 10.2132,-8.00955 0.63485,-3.74543 0.97693,-7.52108 1.69611,-11.25219 v -11.28719 c -0.54575,-1.87908 -0.12252,-3.84089 -0.53938,-5.73747 -0.38346,-6.03341 -0.80828,-12.1066 -1.61973,-18.1066 -1.51631,-7.89976 -1.23469,-15.9825 -2.73509,-23.88067 -0.43596,-2.786 -2.03023,-5.19014 -2.85282,-7.85999 0.9101,-0.37072 1.81066,-0.77008 2.73667,-1.11853 -1.11853,-3.37152 -3.01352,-3.38743 -3.01352,-4.9817 0,-1.9284 2.16706,-3.90931 3.24423,-5.63883 -1.12649,-1.17899 -2.71122,-1.73588 -4.20048,-2.34526 0.01,-0.87351 0.043,-1.7502 0.043,-2.62689 0,-1.0533 -0.0461,-2.10501 -0.23548,-3.14718 -0.97852,-8.15274 -2.35004,-16.26253 -3.08353,-24.44073 -0.17502,-4.36436 -3.04853,-8.71758 -7.39698,-10.13524 -9.7852,-0.33731 -19.46539,-2.29435 -28.94351,-4.58075 -6.40891,-1.61337 -13.17105,-3.62291 -17.68974,-8.60621 -2.58711,-3.35401 -6.40414,-5.44471 -9.71201,-8.04614 -3.70088,-2.64439 -7.25856,-5.88226 -11.90772,-6.81941 1.44471,3.09308 5.15354,4.54893 6.43596,7.7136 0.31663,1.82976 -1.01512,3.53222 -0.61575,5.40176 -0.22276,2.28321 2.84168,2.6428 3.23627,4.65712 0.66508,2.09387 0.8035,4.24661 0.8035,6.41686 0,1.54018 -0.07,3.08672 -0.07,4.6253 0,0.57916 0.0111,1.1599 0.0382,1.73588 -0.65712,11.73747 -2.41845,23.43198 -5.39698,34.83532 -1.94431,6.80032 -4.1241,13.65951 -7.97613,19.70724 -1.25855,2.04137 -2.92601,3.81862 -4.81782,5.32856 -0.0111,-1.09467 -0.0143,-2.18775 -0.0143,-3.28242 0,-2.44869 0.0175,-4.89578 0.0175,-7.34288 0,-8.07637 -0.3564,-6.05887 -0.3564,-10.09705 0,-0.74304 0.01,-1.48926 0.01,-2.23389 0,-1.56882 -0.043,-3.13763 -0.31186,-4.68895 0.043,-11.63246 -6.16547,-31.70565 -6.28162,-35.3922 0.0509,-1.31265 1.39379,-2.0366 2.31344,-2.79395 3.11058,2.90214 4.8942,6.82418 7.63087,10.02068 -2.82418,-11.33333 -11.44789,-21.53381 -11.44789,-21.53381 2.65712,-0.72872 5.12172,-1.92363 7.63246,-3.01671 3.56563,-1.98409 7.61654,-3.54176 10.21161,-6.78122 -0.64757,-1.16309 -1.0358,-2.6603 -2.38822,-3.24105 0.42641,1.09148 0.88305,2.16229 1.34765,3.24105 -0.81782,0.34526 -1.74065,1.14717 -2.65871,0.63325 -3.7677,-1.98886 -7.79634,-4.17502 -12.18775,-4.17502 -0.8926,0 -0.8926,0.0668 -2.22753,0.0668 -1.22354,0 -2.45664,-0.0668 -3.68337,-0.0668 z m 3.85998,-98.75418 c 16.65394,0 21.24742,9.63883 21.24742,16.06365 0,3.21877 -0.92761,6.20207 -2.78282,8.9467 -1.85521,2.71121 -5.43993,5.72792 -10.75576,9.05012 -3.56882,2.23548 -5.92363,4.23389 -7.06285,5.99681 -1.10899,1.72793 -1.78521,4.38823 -2.03501,7.98091 h -2.1957 c -0.0111,-0.5362 -0.0159,-1.0533 -0.0159,-1.55131 0,-15.572 8.63325,-14.90692 8.63325,-29.81544 0,-11.0708 -6.05091,-13.16308 -9.36515,-13.16308 -4.01114,0 -6.36914,2.28798 -6.36914,3.81066 0,1.84089 3.31743,5.06125 3.31743,9.20286 0,3.50676 -2.79714,5.84407 -6.26253,5.84407 -4.05728,0 -7.06285,-2.77167 -7.06285,-7.31901 0,-6.01909 5.14081,-15.04694 20.70962,-15.04694 z m -10.59506,63.64201 c 0,-4.49642 3.63723,-8.18139 8.61734,-8.18139 4.98488,0 8.61575,3.68497 8.61575,8.18139 0,4.48846 -3.61177,8.23707 -8.61575,8.23707 -5.01193,0 -8.61734,-3.74542 -8.61734,-8.23707 z"
     id="path42"
     inkscape:connector-curvature="0" />
</svg>
