<?xml version="1.0" encoding="UTF-8" standalone="no"?>
<svg
   xmlns:dc="http://purl.org/dc/elements/1.1/"
   xmlns:cc="http://creativecommons.org/ns#"
   xmlns:rdf="http://www.w3.org/1999/02/22-rdf-syntax-ns#"
   xmlns:svg="http://www.w3.org/2000/svg"
   xmlns="http://www.w3.org/2000/svg"
   xmlns:xlink="http://www.w3.org/1999/xlink"
   xmlns:sodipodi="http://sodipodi.sourceforge.net/DTD/sodipodi-0.dtd"
   xmlns:inkscape="http://www.inkscape.org/namespaces/inkscape"
   width="390.75"
   height="390.75"
   id="svg4225"
   version="1.1"
   inkscape:version="0.48.4 r9939"
   sodipodi:docname="anonymous_logo_with_slogan_svg_animation_by_anondesign-d6rav5k.svg">
  <metadata
     id="metadata4330">
    <rdf:RDF>
      <cc:Work
         rdf:about="">
        <dc:format>image/svg+xml</dc:format>
        <dc:type
           rdf:resource="http://purl.org/dc/dcmitype/StillImage" />
        <dc:title></dc:title>
      </cc:Work>
    </rdf:RDF>
  </metadata>
  <defs
     id="defs4328" />
  <sodipodi:namedview
     pagecolor="#ffffff"
     bordercolor="#666666"
     borderopacity="1"
     objecttolerance="10"
     gridtolerance="10"
     guidetolerance="10"
     inkscape:pageopacity="0"
     inkscape:pageshadow="2"
     inkscape:window-width="925"
     inkscape:window-height="680"
     id="namedview4326"
     showgrid="false"
     inkscape:zoom="0.60396673"
     inkscape:cx="195.375"
     inkscape:cy="195.375"
     inkscape:window-x="0"
     inkscape:window-y="26"
     inkscape:window-maximized="0"
     inkscape:current-layer="svg4225" />
  <g
     id="g4229"
     transform="translate(-179.625,-54.625)">
    <circle
       style="fill:#ffffff;stroke:#000000;stroke-width:5.75;stroke-miterlimit:10"
       sodipodi:ry="192.5"
       sodipodi:rx="192.5"
       sodipodi:cy="250"
       sodipodi:cx="375"
       d="M 567.5,250 C 567.5,356.31481 481.31481,442.5 375,442.5 268.68519,442.5 182.5,356.31481 182.5,250 182.5,143.68519 268.68519,57.5 375,57.5 c 106.31481,0 192.5,86.18519 192.5,192.5 z"
       id="circle4231"
       r="192.5"
       cy="250"
       cx="375"
       stroke-miterlimit="10" />
    <g
       id="for rotation">
      <g
         id="g4234">
        <circle
           style="fill:none"
           sodipodi:ry="173.75"
           sodipodi:rx="173.75"
           sodipodi:cy="250"
           sodipodi:cx="375"
           d="m 548.75,250 c 0,95.95948 -77.79052,173.75 -173.75,173.75 -95.95948,0 -173.75,-77.79052 -173.75,-173.75 0,-95.95948 77.79052,-173.75 173.75,-173.75 95.95948,0 173.75,77.79052 173.75,173.75 z"
           id="circle4236"
           r="173.75"
           cy="250"
           cx="375" />
        <path
           inkscape:connector-curvature="0"
           id="path4238"
           d="m 382.228,66.976 4.328,0.386 0.328,13.142 0.045,0.004 2.513,-12.888 4.101,0.366 0.121,13.124 0.046,0.004 2.673,-12.874 4.237,0.378 -4.841,18.014 -4.695,-0.419 -0.231,-11.379 -0.046,-0.004 -2.403,11.144 -4.695,-0.419 -1.48,-18.578 z m 20.689,2.145 9.256,1.667 -0.628,3.485 -5.091,-0.916 -0.648,3.598 4.458,0.803 -0.627,3.485 -4.458,-0.803 -0.726,4.028 5.295,0.954 -0.627,3.485 -9.459,-1.703 3.255,-18.081 z m 20.665,4.441 5.388,1.571 -1.833,18.607 -4.262,-1.243 0.539,-3.245 -2.849,-0.831 -1.334,3.013 -4.063,-1.185 8.413,-16.688 z m -1.683,11.848 2.031,0.592 1.568,-8.91 -0.044,-0.013 -3.556,8.331 z m 12.411,-8.608 5.232,1.969 c 3.53,1.329 4.619,2.943 3.452,6.043 -0.762,2.024 -1.535,3.232 -3.889,3.084 l -0.017,0.043 c 1.295,0.807 1.818,2.159 1.275,3.601 l -1.143,3.036 c -0.43,1.141 -1.056,2.675 -0.815,3.405 l -3.919,-1.475 c -0.241,-0.73 0.343,-2.28 0.771,-3.421 l 1.037,-2.756 c 0.373,-0.99 0.147,-1.567 -0.972,-1.988 l -0.732,-0.275 -2.795,7.428 -3.962,-1.491 6.474,-17.203 z m 1.385,8.337 0.969,0.365 c 1.356,0.511 1.697,-0.394 2.118,-1.513 0.454,-1.206 0.713,-1.895 -0.837,-2.478 l -0.775,-0.292 -1.475,3.918 z m 11.248,-3.457 8.55,3.925 -1.478,3.219 -4.703,-2.159 -1.526,3.324 4.118,1.891 -1.478,3.219 -4.118,-1.891 -1.708,3.721 4.892,2.246 -1.478,3.219 -8.737,-4.012 7.668,-16.703 z m 18.9,9.468 4.825,2.867 -6.422,17.563 -3.816,-2.268 1.332,-3.008 -2.551,-1.516 -2.044,2.585 -3.639,-2.162 12.315,-14.062 z m -4.588,11.054 1.819,1.081 3.744,-8.237 -0.04,-0.023 -5.523,7.18 z m 14.173,-5.249 3.775,2.665 -3.466,10.81 0.038,0.026 6.245,-8.847 3.344,2.36 -10.595,15.008 -3.757,-2.652 3.751,-11.255 -0.037,-0.026 -6.551,9.279 -3.343,-2.36 10.595,-15.008 z m 8.757,12.447 c 2.287,-2.764 5.159,-2.626 7.586,-0.617 2.427,2.009 3.099,4.804 0.811,7.568 l -5.323,6.431 c -2.082,2.516 -5,2.758 -7.586,0.617 -2.587,-2.141 -2.894,-5.052 -0.811,-7.567 l 5.323,-6.431 z m -2.298,9.412 c -0.309,0.372 -1.07,1.294 -0.132,2.07 0.94,0.777 1.701,-0.144 2.01,-0.516 l 5.792,-6.998 c 0.396,-0.478 1.07,-1.293 0.132,-2.07 -0.94,-0.777 -1.614,0.038 -2.01,0.516 l -5.792,6.997 z m 15.818,-4.63 3.324,3.211 -5.076,10.155 0.032,0.032 7.525,-7.79 2.944,2.844 -12.766,13.216 -3.308,-3.195 5.428,-10.551 -0.033,-0.032 -7.893,8.171 -2.944,-2.844 12.766,-13.216 z m 10.215,10.002 2.908,3.261 -3.854,5.008 0.03,0.034 5.462,-3.205 2.861,3.21 -10.363,4.618 -5.647,5.035 -2.816,-3.158 5.425,-4.836 5.995,-9.967 z m 8.925,10.009 3.995,5.341 -6.576,6.414 0.027,0.037 8.01,-4.498 3.996,5.341 -14.716,11.009 -2.452,-3.278 11.437,-8.557 -0.027,-0.037 -12.856,6.66 -1.653,-2.21 10.018,-10.453 -0.027,-0.037 -11.437,8.557 -2.453,-3.278 14.716,-11.009 z m 6.638,17.592 c 3.049,-1.89 5.727,-0.844 7.387,1.834 1.659,2.678 1.405,5.541 -1.645,7.431 l -7.095,4.398 c -2.776,1.72 -5.618,1.02 -7.387,-1.834 -1.77,-2.853 -1.132,-5.71 1.644,-7.431 l 7.096,-4.398 z m -5.179,8.188 c -0.411,0.254 -1.428,0.884 -0.785,1.92 0.642,1.036 1.658,0.406 2.069,0.151 l 7.721,-4.786 c 0.527,-0.327 1.427,-0.884 0.784,-1.92 -0.642,-1.036 -1.541,-0.478 -2.068,-0.151 l -7.721,4.786 z m 16.409,0.584 1.96,3.751 -11.885,6.209 c -0.877,0.458 -1.651,0.863 -1.087,1.943 0.565,1.081 1.339,0.676 2.216,0.218 l 11.885,-6.21 1.96,3.751 -11.845,6.188 c -2.894,1.512 -5.678,0.606 -7.232,-2.371 -1.556,-2.976 -0.71,-5.779 2.185,-7.292 l 11.844,-6.188 z m -3.436,20.4 -1.246,0.538 c -0.908,0.393 -1.661,0.969 -1.187,2.067 0.383,0.887 1.154,1.105 1.894,0.786 1.478,-0.639 1.805,-2.609 2.258,-4.634 0.612,-2.12 0.866,-4.083 3.443,-5.197 3.315,-1.433 5.533,-0.185 6.874,2.918 1.46,3.379 0.452,5.569 -2.146,6.691 l -1.52,0.657 -1.569,-3.632 0.908,-0.393 c 0.845,-0.365 1.804,-0.93 1.329,-2.028 -0.356,-0.824 -1.06,-1.121 -1.843,-0.783 -1.014,0.438 -1.463,2.587 -1.961,4.682 -0.646,1.983 -0.695,4.134 -4.095,5.604 -1.626,0.703 -4.838,0.637 -6.59,-3.418 -1.66,-3.844 0.257,-6.076 2.01,-6.833 l 1.816,-0.785 1.624,3.759 z m -2.522,10.226 3.97,-1.466 1.322,3.582 -3.971,1.465 -1.321,-3.582 z m 21.407,5.072 1.062,4.216 -12.306,4.639 0.011,0.045 13.003,-1.873 1.005,3.993 -12.356,4.439 0.011,0.044 13.042,-1.717 1.039,4.127 -18.611,1.363 -1.15,-4.573 10.672,-3.967 -0.011,-0.044 -11.318,1.402 -1.151,-4.573 17.061,-7.521 z m 4.783,20.26 1.467,9.293 -3.499,0.552 -0.808,-5.112 -3.612,0.57 0.707,4.476 -3.499,0.552 -0.707,-4.476 -4.044,0.639 0.839,5.316 -3.499,0.552 -1.498,-9.497 18.153,-2.865 z m 2.59,20.955 0.295,5.604 -18.168,4.408 -0.233,-4.432 3.241,-0.561 -0.156,-2.962 -3.283,-0.265 -0.222,-4.226 18.526,2.436 z m -11.737,2.32 0.111,2.113 8.927,-1.459 -0.002,-0.046 -9.036,-0.608 z m 12.216,8.848 -0.122,5.587 c -0.083,3.772 -1.244,5.333 -4.556,5.261 -2.162,-0.047 -3.558,-0.377 -4.198,-2.646 l -0.046,-10e-4 c -0.332,1.488 -1.434,2.431 -2.975,2.397 l -3.242,-0.071 c -1.219,-0.026 -2.873,-0.108 -3.481,0.361 l 0.092,-4.186 c 0.608,-0.47 2.264,-0.434 3.482,-0.406 l 2.943,0.065 c 1.058,0.022 1.526,-0.381 1.553,-1.576 l 0.018,-0.782 -7.934,-0.174 0.093,-4.231 18.373,0.402 z m -7.405,4.071 -0.022,1.035 c -0.032,1.448 0.934,1.47 2.13,1.496 1.287,0.027 2.023,0.044 2.06,-1.611 l 0.019,-0.828 -4.186,-0.092 z m 6.993,9.463 -0.861,9.368 -3.527,-0.324 0.474,-5.153 -3.642,-0.335 -0.415,4.512 -3.527,-0.324 0.415,-4.512 -4.076,-0.375 -0.493,5.359 -3.527,-0.324 0.881,-9.573 18.3,1.681 z m -2.152,18.317 -0.795,4.155 -14.566,-2.785 -0.863,4.517 -3.478,-0.665 1.658,-8.672 18.044,3.45 z m -2.126,10.77 -2.353,9.105 -3.429,-0.886 1.295,-5.009 -3.54,-0.915 -1.134,4.386 -3.428,-0.886 1.133,-4.386 -3.963,-1.024 -1.346,5.21 -3.429,-0.886 2.404,-9.306 17.788,4.596 z m -7.828,10.051 c 3.402,1.138 4.308,3.865 3.309,6.853 -0.911,2.726 -2.731,4.832 -6.002,3.738 l -1.94,-0.649 1.276,-3.815 1.744,0.583 c 0.872,0.292 1.497,0.089 1.797,-0.805 0.357,-1.068 -0.631,-1.594 -1.177,-1.775 l -8.612,-2.881 c -0.458,-0.153 -1.592,-0.533 -1.978,0.623 -0.299,0.894 -0.016,1.425 0.878,1.724 l 2.246,0.751 0.474,-1.417 3.228,1.08 -1.772,5.298 -9.594,-3.209 1.174,-3.511 1.417,0.475 0.015,-0.044 c -0.936,-1.113 -1.139,-2.248 -0.665,-3.665 0.963,-2.879 3.632,-2.883 6.269,-2 l 7.915,2.647 z m 0.377,14.188 -1.56,3.934 -17.081,-6.778 1.562,-3.934 17.08,6.778 z m -6.988,4.096 c 3.256,1.504 3.857,4.314 2.536,7.175 -1.321,2.859 -3.851,4.224 -7.107,2.72 l -7.577,-3.501 c -2.964,-1.369 -3.944,-4.127 -2.536,-7.175 1.408,-3.048 4.144,-4.089 7.107,-2.72 l 7.577,3.501 z m -9.686,0.186 c -0.439,-0.202 -1.523,-0.704 -2.035,0.402 -0.511,1.106 0.574,1.607 1.013,1.81 l 8.245,3.809 c 0.564,0.261 1.524,0.704 2.035,-0.402 0.511,-1.105 -0.449,-1.55 -1.013,-1.81 l -8.245,-3.809 z m 8.545,14.086 -2.258,4.036 -11.119,-2.318 -0.023,0.041 9.458,5.289 -1.999,3.574 -16.044,-8.973 2.246,-4.017 11.593,2.556 0.022,-0.04 -9.919,-5.548 1.998,-3.574 16.045,8.974 z m -22.793,2.769 3.571,2.272 -2.049,3.222 -3.571,-2.272 2.049,-3.222 z m 8.918,20.118 -2.711,3.399 -11.15,-6.978 -0.029,0.036 9.372,9.209 -2.567,3.22 -11.021,-7.14 -0.028,0.036 9.271,9.334 -2.653,3.328 -12.366,-13.979 2.94,-3.688 9.625,6.085 0.029,-0.036 -7.977,-8.154 2.94,-3.688 16.325,9.014 z m -13.225,16.086 -6.497,6.802 -2.561,-2.446 3.573,-3.742 -2.644,-2.525 -3.129,3.276 -2.562,-2.446 3.13,-3.276 -2.961,-2.827 -3.717,3.892 -2.562,-2.446 6.64,-6.952 13.289,12.692 z m -13.073,13.065 -4.8,4.081 c -2.75,2.338 -4.858,1.384 -6.69,-0.77 l -5.659,-6.656 c -2.174,-2.558 -1.248,-5.125 0.451,-6.569 l 4.8,-4.081 11.898,13.996 z m -13.097,-8.873 -0.508,0.432 c -0.858,0.73 -1.036,1.515 -0.336,2.338 l 5.822,6.85 c 0.7,0.823 1.504,0.773 2.362,0.044 l 0.508,-0.432 -7.849,-9.231 z m -0.121,13.432 c 2.118,2.894 1.281,5.644 -1.261,7.505 -2.542,1.86 -5.416,1.827 -7.534,-1.067 l -4.93,-6.735 c -1.929,-2.635 -1.449,-5.522 1.26,-7.505 2.709,-1.982 5.606,-1.567 7.535,1.067 l 4.93,6.735 z m -8.562,-4.533 c -0.285,-0.39 -0.991,-1.355 -1.975,-0.635 -0.983,0.72 -0.277,1.685 0.008,2.074 l 5.364,7.329 c 0.366,0.501 0.991,1.355 1.975,0.635 0.983,-0.72 0.358,-1.573 -0.008,-2.074 l -5.364,-7.329 z m -4.772,19.928 -4.012,2.298 -8.337,-7.709 -0.04,0.022 5.383,9.4 -3.553,2.034 -9.131,-15.946 3.991,-2.286 8.62,8.157 0.04,-0.023 -5.646,-9.859 3.553,-2.034 9.132,15.946 z m -14.984,2.677 c 1.538,3.242 0.198,5.787 -2.648,7.137 -2.848,1.351 -5.665,0.778 -7.202,-2.464 l -3.578,-7.544 c -1.4,-2.951 -0.386,-5.698 2.648,-7.138 3.034,-1.438 5.803,-0.486 7.202,2.465 l 3.578,7.544 z m -7.56,-6.063 c -0.207,-0.436 -0.72,-1.518 -1.821,-0.995 -1.102,0.522 -0.589,1.603 -0.382,2.04 l 3.894,8.209 c 0.266,0.561 0.72,1.517 1.821,0.994 1.102,-0.521 0.647,-1.478 0.382,-2.039 l -3.894,-8.209 z m -2.035,16.063 -9.034,3.555 -1.297,-3.297 2.548,-1.002 -5.433,-13.809 3.938,-1.55 5.433,13.809 2.548,-1.003 1.297,3.297 z m -16.752,6.141 -8.49,2.443 -0.981,-3.405 4.422,-1.272 -1.012,-3.516 -3.957,1.14 -0.981,-3.405 3.958,-1.139 -2.112,-7.341 4.068,-1.171 5.084,17.666 z m -11.613,-1.922 c 0.757,3.506 -1.127,5.677 -4.206,6.342 -3.079,0.665 -5.69,-0.536 -6.447,-4.042 l -1.762,-8.159 c -0.689,-3.191 0.925,-5.633 4.206,-6.342 3.281,-0.708 5.759,0.851 6.448,4.042 l 1.761,8.159 z M 412.1,415.13 c -0.102,-0.472 -0.354,-1.641 -1.545,-1.384 -1.191,0.258 -0.94,1.426 -0.837,1.898 l 1.916,8.878 c 0.131,0.606 0.354,1.641 1.546,1.384 1.191,-0.258 0.968,-1.291 0.837,-1.898 L 412.1,415.13 z m -6.095,15.275 -5.536,0.775 c -3.736,0.522 -5.464,-0.374 -5.924,-3.654 -0.3,-2.142 -0.198,-3.572 1.94,-4.568 l -0.007,-0.046 c -1.522,-0.089 -2.629,-1.025 -2.843,-2.552 l -0.449,-3.212 c -0.169,-1.208 -0.353,-2.854 -0.915,-3.38 l 4.146,-0.58 c 0.561,0.525 0.791,2.166 0.96,3.373 l 0.408,2.916 c 0.146,1.048 0.621,1.446 1.806,1.28 l 0.774,-0.108 -1.101,-7.859 4.192,-0.587 2.548,18.202 z m -5.206,-6.657 -1.025,0.144 c -1.435,0.2 -1.301,1.157 -1.136,2.342 0.179,1.276 0.281,2.005 1.921,1.775 l 0.82,-0.115 -0.58,-4.146 z m -8.405,3.421 c 0.238,3.58 -1.942,5.453 -5.086,5.662 -2.869,0.191 -5.51,-0.693 -5.738,-4.136 l -0.136,-2.043 4.016,-0.267 0.122,1.836 c 0.061,0.918 0.486,1.42 1.428,1.357 1.124,-0.075 1.234,-1.188 1.196,-1.763 l -0.603,-9.065 c -0.032,-0.482 -0.111,-1.676 -1.327,-1.595 -0.941,0.063 -1.325,0.526 -1.263,1.467 l 0.157,2.364 1.491,-0.1 0.226,3.397 -5.576,0.371 -0.672,-10.098 3.695,-0.246 0.1,1.492 0.046,-0.004 c 0.675,-1.289 1.647,-1.907 3.14,-2.006 3.029,-0.202 4.046,2.267 4.231,5.043 l 0.554,8.331 z m -12.959,5.719 -4.231,0.067 -0.293,-18.373 4.231,-0.067 0.293,18.373 z m -6.214,0.126 -4.32,-0.172 -0.629,-13.099 -0.046,-0.002 -1.921,12.997 -4.252,-0.17 3.857,-18.236 5.239,0.209 2.072,18.473 z m -13.213,-0.615 -9.355,-1.005 0.378,-3.522 5.146,0.553 0.391,-3.637 -4.506,-0.484 0.378,-3.522 4.506,0.484 0.437,-4.071 -5.352,-0.575 0.378,-3.522 9.56,1.027 -1.963,18.276 z m -8.992,-19.56 -0.66,4.181 -3.772,-0.596 0.66,-4.181 3.772,0.596 z m -14.869,16.201 -4.196,-1.134 1.963,-13 -0.044,-0.012 -4.716,12.256 -3.974,-1.073 2.163,-12.946 -0.044,-0.012 -4.871,12.215 -4.107,-1.109 7.899,-16.899 4.551,1.228 -1.752,11.247 0.044,0.013 4.305,-10.558 4.551,1.23 -1.772,18.555 z m -20.026,-5.72 -8.825,-3.257 1.227,-3.323 4.854,1.792 1.267,-3.431 -4.25,-1.568 1.227,-3.323 4.25,1.569 1.418,-3.841 -5.049,-1.863 1.227,-3.323 9.019,3.33 -6.364,17.238 z m -17.231,-6.834 -5.648,-2.792 c -3.236,-1.601 -3.195,-3.915 -1.942,-6.45 l 3.873,-7.834 c 1.488,-3.01 4.213,-3.176 6.212,-2.188 l 5.648,2.793 -8.144,16.471 z m 2.965,-15.543 -0.598,-0.295 c -1.01,-0.5 -1.801,-0.352 -2.28,0.617 l -3.985,8.06 c -0.479,0.969 -0.116,1.688 0.894,2.187 l 0.598,0.296 5.372,-10.864 z m -12.376,5.215 c -1.821,3.093 -4.679,3.412 -7.394,1.813 -2.715,-1.599 -3.822,-4.253 -2.001,-7.345 l 4.237,-7.195 c 1.657,-2.814 4.5,-3.517 7.394,-1.813 2.894,1.704 3.659,4.53 2.001,7.346 l -4.237,7.194 z m 0.777,-9.659 c 0.245,-0.417 0.853,-1.447 -0.198,-2.066 -1.05,-0.618 -1.658,0.412 -1.903,0.828 l -4.611,7.83 c -0.315,0.535 -0.852,1.446 0.199,2.065 1.05,0.618 1.587,-0.293 1.902,-0.828 l 4.611,-7.829 z m -20.177,3.498 -3.696,-2.775 3.783,-10.704 -0.037,-0.027 -6.504,8.66 -3.273,-2.458 11.034,-14.691 3.677,2.762 -4.082,11.141 0.037,0.027 6.822,-9.083 3.273,2.458 -11.034,14.691 z m -8.404,-12.719 c -2.368,2.694 -5.234,2.472 -7.601,0.392 -2.367,-2.08 -2.955,-4.894 -0.587,-7.588 l 5.511,-6.271 c 2.156,-2.452 5.079,-2.608 7.601,-0.392 2.522,2.217 2.743,5.136 0.586,7.588 l -5.511,6.271 z m 2.576,-9.34 c 0.319,-0.363 1.108,-1.261 0.193,-2.065 -0.915,-0.805 -1.705,0.093 -2.024,0.456 l -5.997,6.822 c -0.41,0.467 -1.108,1.262 -0.193,2.066 0.915,0.805 1.614,0.01 2.024,-0.457 l 5.997,-6.822 z m -15.551,4.497 -6.845,-6.884 2.512,-2.497 1.93,1.94 10.521,-10.462 2.985,3.002 -10.521,10.462 1.93,1.94 -2.512,2.498 z m -12.257,-12.907 -5.619,-6.814 2.733,-2.253 2.926,3.549 2.822,-2.326 -2.619,-3.177 2.733,-2.254 2.619,3.177 5.892,-4.858 2.692,3.266 -14.179,11.691 z m -2.87,-11.421 c -2.914,2.092 -5.656,1.23 -7.493,-1.328 -1.838,-2.56 -1.778,-5.433 1.135,-7.525 l 6.78,-4.868 c 2.652,-1.905 5.535,-1.399 7.493,1.328 1.958,2.727 1.517,5.62 -1.136,7.524 l -6.779,4.869 z m 4.61,-8.521 c 0.392,-0.281 1.363,-0.979 0.652,-1.969 -0.71,-0.99 -1.682,-0.292 -2.074,-0.011 l -7.377,5.298 c -0.504,0.362 -1.364,0.98 -0.653,1.969 0.711,0.99 1.57,0.373 2.074,0.011 l 7.378,-5.298 z m -16.438,0.485 -2.918,-4.765 c -1.97,-3.216 -1.837,-5.157 0.986,-6.886 1.843,-1.129 3.195,-1.606 4.96,-0.046 l 0.039,-0.023 c -0.525,-1.431 -0.108,-2.818 1.206,-3.623 l 2.765,-1.693 c 1.039,-0.637 2.475,-1.462 2.732,-2.187 l 2.186,3.569 c -0.257,0.724 -1.669,1.588 -2.708,2.225 l -2.51,1.537 c -0.902,0.553 -1.078,1.145 -0.454,2.165 l 0.408,0.667 6.765,-4.144 2.21,3.608 -15.666,9.595 z m 4.025,-7.427 -0.54,-0.882 c -0.757,-1.235 -1.58,-0.731 -2.6,-0.106 -1.098,0.672 -1.725,1.057 -0.861,2.468 l 0.433,0.706 3.568,-2.186 z m -6.501,-6.346 c -3.189,1.645 -5.777,0.391 -7.222,-2.411 -1.318,-2.556 -1.558,-5.33 1.509,-6.912 l 1.82,-0.939 1.845,3.578 -1.636,0.844 c -0.818,0.422 -1.109,1.012 -0.677,1.851 0.517,1.001 1.583,0.659 2.094,0.396 l 8.077,-4.165 c 0.429,-0.222 1.493,-0.769 0.934,-1.853 -0.432,-0.838 -1.011,-1.006 -1.849,-0.573 l -2.106,1.086 0.685,1.329 -3.026,1.56 -2.562,-4.969 8.997,-4.64 1.698,3.292 -1.329,0.685 0.021,0.041 c 1.452,0.105 2.407,0.752 3.092,2.081 1.392,2.699 -0.467,4.615 -2.941,5.891 l -7.423,3.828 z m -10.508,-9.683 -3.713,-8.644 3.254,-1.398 2.043,4.755 3.36,-1.443 -1.789,-4.163 3.254,-1.398 1.789,4.163 3.762,-1.615 -2.124,-4.945 3.254,-1.398 3.795,8.834 -16.886,7.254 z m -4.504,-10.624 -3.258,-9.144 3.336,-1.19 0.919,2.579 13.976,-4.981 1.42,3.987 -13.975,4.979 0.918,2.578 -3.337,1.19 z m 14.204,-15.048 -4.04,1.261 -1.137,-3.646 4.04,-1.261 1.137,3.646 z m -21.056,-6.61 -2.028,-9.187 3.459,-0.764 1.116,5.054 3.571,-0.788 -0.977,-4.425 3.459,-0.764 0.977,4.425 3.998,-0.883 -1.161,-5.256 3.459,-0.764 2.073,9.389 -17.946,3.962 z m 5.358,-16.206 -7.884,4.551 -0.662,-4.504 4.954,-2.192 -0.007,-0.045 -5.378,-0.698 -0.639,-4.345 9.001,2.095 9.148,-4.97 0.645,4.391 -5.609,2.637 0.006,0.046 6.11,0.775 0.639,4.346 -10.324,-2.086 z m -9.858,-9.564 -0.322,-4.521 c -0.33,-4.636 0.315,-6.597 5.111,-6.938 2.685,-0.191 5.532,0.275 5.802,4.061 l 0.17,2.387 7.275,-0.518 0.3,4.223 -18.336,1.305 z m 7.502,-4.777 -0.075,-1.056 c -0.096,-1.355 -0.777,-1.514 -2.429,-1.395 -2.226,0.158 -2.175,0.869 -2.074,2.292 l 0.035,0.482 4.544,-0.323 z m -8.265,-8.519 -0.149,-9.405 3.541,-0.056 0.083,5.174 3.656,-0.059 -0.072,-4.53 3.541,-0.057 0.072,4.53 4.093,-0.065 -0.086,-5.381 3.542,-0.056 0.153,9.612 -18.373,0.292 z m 4.968,-11.783 c -3.58,-0.238 -5.148,-2.647 -4.939,-5.792 0.209,-3.144 2.083,-5.324 5.663,-5.086 l 1.698,0.113 -0.281,4.223 -2.065,-0.138 c -0.62,-0.041 -1.675,-0.111 -1.756,1.105 -0.081,1.216 0.975,1.287 1.594,1.328 l 9.065,0.603 c 0.482,0.032 1.675,0.111 1.756,-1.105 0.081,-1.216 -1.113,-1.296 -1.595,-1.328 l -2.685,-0.179 0.281,-4.223 2.318,0.154 c 3.259,0.217 5.163,2.441 4.94,5.792 -0.223,3.351 -2.404,5.303 -5.663,5.086 l -8.33,-0.554 z m -4.058,-13.253 1.294,-9.62 3.511,0.472 -0.365,2.713 14.704,1.978 -0.564,4.195 -14.704,-1.978 -0.365,2.713 -3.511,-0.472 z m 2.764,-17.685 0.985,-4.116 13.041,3.123 c 0.962,0.231 1.812,0.434 2.096,-0.752 0.284,-1.185 -0.566,-1.389 -1.528,-1.619 l -13.041,-3.123 0.986,-4.116 12.997,3.111 c 3.176,0.761 4.68,3.273 3.898,6.539 -0.782,3.266 -3.26,4.825 -6.436,4.064 l -12.997,-3.111 z m 15.992,-13.112 1.292,0.414 c 0.942,0.301 1.889,0.362 2.253,-0.777 0.294,-0.92 -0.143,-1.591 -0.91,-1.836 -1.534,-0.49 -3.075,0.78 -4.748,2.008 -1.855,1.194 -3.337,2.507 -6.01,1.653 -3.44,-1.1 -4.292,-3.497 -3.263,-6.718 1.121,-3.506 3.32,-4.494 6.015,-3.632 l 1.578,0.504 -1.205,3.769 -0.942,-0.301 c -0.876,-0.28 -1.97,-0.485 -2.334,0.655 -0.273,0.855 0.063,1.542 0.873,1.8 1.052,0.336 2.803,-0.988 4.556,-2.239 1.791,-1.07 3.241,-2.659 6.769,-1.531 1.688,0.539 4.064,2.699 2.719,6.906 -1.275,3.988 -4.187,4.41 -6.005,3.829 l -1.884,-0.603 1.247,-3.9 z m 8.616,-6.056 -3.956,-1.502 1.355,-3.569 3.956,1.502 -1.355,3.569 z m -12.496,-18.2 1.788,-3.683 6.766,3.283 0.03,-0.062 -5.541,-5.807 1.958,-4.035 5.313,6.489 11.229,1.513 -1.968,4.055 -6.741,-1.175 0.934,1.552 4.552,2.209 -1.787,3.683 -16.532,-8.023 z m 6.068,-12.306 2.337,-3.987 11.064,2.541 0.023,-0.04 -9.343,-5.476 2.07,-3.531 15.849,9.29 -2.325,3.967 -11.532,-2.789 -0.023,0.04 9.799,5.744 -2.07,3.531 -15.849,-9.29 z m 11.663,-9.783 c -2.947,-2.047 -3.051,-4.92 -1.253,-7.508 1.798,-2.588 4.527,-3.493 7.474,-1.445 l 6.857,4.763 c 2.682,1.863 3.169,4.75 1.253,7.508 -1.916,2.758 -4.791,3.309 -7.474,1.446 l -6.857,-4.764 z m 9.574,1.498 c 0.397,0.275 1.379,0.958 2.075,-0.043 0.695,-1.001 -0.287,-1.684 -0.684,-1.959 l -7.462,-5.184 c -0.51,-0.354 -1.379,-0.958 -2.074,0.043 -0.696,1.001 0.173,1.605 0.683,1.959 l 7.462,5.184 z m -6.369,-15.044 2.794,-3.331 10.972,7.253 0.03,-0.035 -9.138,-9.438 2.647,-3.154 10.838,7.411 0.03,-0.035 -9.035,-9.562 2.735,-3.26 12.012,14.281 -3.031,3.613 -9.469,-6.323 -0.03,0.036 7.769,8.35 -3.031,3.613 -16.092,-9.417 z m 13.597,-15.711 2.987,-2.998 10.511,10.472 3.247,-3.259 2.51,2.501 -6.234,6.258 -13.021,-12.972 z m 7.79,-7.729 7.046,-6.234 2.347,2.653 -3.876,3.43 2.424,2.739 3.394,-3.003 2.348,2.653 -3.394,3.003 2.713,3.066 4.031,-3.567 2.348,2.653 -7.201,6.372 -12.18,-13.765 z m 9.08,-7.937 4.996,-3.838 c 2.863,-2.199 4.921,-1.142 6.644,1.101 l 5.323,6.929 c 2.045,2.663 0.994,5.181 -0.775,6.54 l -4.996,3.838 -11.192,-14.569 z m 12.642,9.512 0.529,-0.406 c 0.894,-0.686 1.11,-1.462 0.452,-2.319 l -5.477,-7.129 c -0.659,-0.857 -1.463,-0.848 -2.356,-0.162 l -0.529,0.406 7.382,9.61 z m 0.772,-13.405 c -1.974,-2.997 -1.001,-5.703 1.631,-7.436 2.401,-1.581 5.135,-2.114 7.032,0.768 l 1.125,1.71 -3.362,2.214 -1.012,-1.537 c -0.506,-0.769 -1.123,-0.995 -1.911,-0.477 -0.941,0.62 -0.488,1.643 -0.172,2.123 l 4.997,7.588 c 0.266,0.403 0.923,1.402 1.942,0.732 0.788,-0.519 0.893,-1.111 0.374,-1.899 l -1.303,-1.979 -1.248,0.822 -1.872,-2.843 4.668,-3.074 5.566,8.453 -3.093,2.037 -0.822,-1.248 -0.039,0.025 c 0.049,1.455 -0.493,2.472 -1.741,3.294 -2.536,1.67 -4.638,0.024 -6.168,-2.3 l -4.592,-6.974 z m 8.527,-11.485 8.2,-4.612 1.737,3.088 -4.511,2.537 1.793,3.188 3.95,-2.222 1.736,3.088 -3.95,2.221 2.007,3.569 4.691,-2.639 1.737,3.088 -8.381,4.713 -9.01,-16.02 z m 16.356,-8.619 3.855,-1.746 7.583,16.739 -3.854,1.746 -7.583,-16.739 z m 14.119,7.123 0.492,1.265 c 0.358,0.922 0.906,1.696 2.021,1.263 0.9,-0.35 1.147,-1.112 0.856,-1.862 -0.583,-1.501 -2.54,-1.9 -4.546,-2.428 -2.094,-0.691 -4.047,-1.018 -5.064,-3.634 -1.308,-3.366 0.021,-5.535 3.172,-6.76 3.43,-1.333 5.581,-0.244 6.606,2.393 l 0.6,1.544 -3.688,1.433 -0.358,-0.922 c -0.333,-0.857 -0.862,-1.836 -1.977,-1.403 -0.836,0.325 -1.159,1.018 -0.851,1.812 0.4,1.029 2.53,1.558 4.604,2.134 1.958,0.72 4.105,0.848 5.446,4.299 0.642,1.651 0.456,4.857 -3.66,6.457 -3.902,1.516 -6.061,-0.483 -6.752,-2.262 l -0.716,-1.844 3.816,-1.483 z m 10.517,-16.562 8.514,-2.35 0.942,3.414 -4.434,1.224 0.973,3.525 3.969,-1.095 0.942,3.414 -3.969,1.096 2.031,7.36 -4.079,1.126 -4.889,-17.715 z m 10.645,-2.884 5.477,-1.116 c 3.696,-0.753 5.476,0.034 6.138,3.279 0.432,2.119 0.419,3.553 -1.652,4.679 l 0.009,0.045 c 1.525,-0.006 2.687,0.86 2.995,2.371 l 0.647,3.178 c 0.243,1.194 0.529,2.826 1.122,3.316 l -4.102,0.836 c -0.593,-0.49 -0.923,-2.112 -1.167,-3.307 l -0.588,-2.885 c -0.211,-1.037 -0.709,-1.405 -1.881,-1.166 l -0.766,0.156 1.585,7.775 -4.147,0.845 -3.67,-18.007 z m 5.607,6.321 1.014,-0.206 c 1.42,-0.289 1.227,-1.236 0.988,-2.408 -0.257,-1.262 -0.404,-1.983 -2.027,-1.653 l -0.811,0.166 0.836,4.101 z m 7.715,-8.925 9.33,-1.224 0.46,3.513 -5.133,0.673 0.476,3.627 4.494,-0.589 0.46,3.513 -4.494,0.589 0.532,4.061 5.338,-0.7 0.46,3.513 -9.536,1.25 -2.389,-18.227 z m 11.905,-1.475 9.386,-0.611 0.231,3.534 -5.164,0.336 0.238,3.649 4.521,-0.294 0.23,3.534 -4.521,0.294 0.266,4.085 5.37,-0.35 0.231,3.534 -9.593,0.625 -1.195,-18.337 z m 12.228,17.725 -0.067,-4.231 3.817,-0.06 0.067,4.231 -3.817,0.061 z" />
      </g>
      <animateTransform
         id="animateTransform4240"
         repeatCount="indefinite"
         dur="15s"
         to="0 375,250"
         from="360 375,250"
         type="rotate"
         attributeType="XML"
         attributeName="transform" />
    </g>
  </g>
  <g
     id="g4242"
     transform="translate(-179.625,-54.625)">
    <circle
       style="fill:none;stroke:#000000;stroke-width:5.75;stroke-miterlimit:10"
       sodipodi:ry="155"
       sodipodi:rx="155"
       sodipodi:cy="250"
       sodipodi:cx="375"
       d="m 530,250 c 0,85.60414 -69.39586,155 -155,155 -85.60414,0 -155,-69.39586 -155,-155 0,-85.60414 69.39586,-155 155,-155 85.60414,0 155,69.39586 155,155 z"
       id="circle4244"
       stroke-miterlimit="10"
       cx="375"
       cy="250"
       r="155" />
    <g
       id="g4246">
      <circle
         style="fill:none;stroke:#c0c0c0;stroke-width:4.5;stroke-miterlimit:4.5"
         sodipodi:ry="100"
         sodipodi:rx="100"
         sodipodi:cy="250"
         sodipodi:cx="375"
         d="m 475,250 c 0,55.22847 -44.77153,100 -100,100 -55.22847,0 -100,-44.77153 -100,-100 0,-55.22847 44.77153,-100 100,-100 55.22847,0 100,44.77153 100,100 z"
         id="circle4248"
         stroke-miterlimit="4.5"
         cx="375"
         cy="250"
         r="100" />
      <defs
         id="defs4250">
        <path
           inkscape:connector-curvature="0"
           d="m 375,150 c 55.2275,0 100,44.7715 100,100 0,55.2285 -44.7725,100 -100,100 -55.2285,0 -100,-44.7715 -100,-100 0,-55.2285 44.7715,-100 100,-100 z m 19,85.5 H 356 V 297 h 38 v -61.5 z"
           id="a" />
      </defs>
      <clipPath
         id="b">
        <use
           y="0"
           x="0"
           style="overflow:visible"
           id="use4254"
           height="390.75"
           width="390.75"
           xlink:href="#a"
           overflow="visible" />
      </clipPath>
      <g
         style="fill:none;stroke:#c0c0c0;stroke-width:4.5;stroke-miterlimit:4.5"
         id="g4256"
         stroke-miterlimit="4.5"
         clip-path="url(#b)">
        <ellipse
           sodipodi:ry="100"
           sodipodi:rx="62.5"
           sodipodi:cy="250"
           sodipodi:cx="375"
           d="m 437.5,250 c 0,55.22847 -27.9822,100 -62.5,100 -34.5178,0 -62.5,-44.77153 -62.5,-100 0,-55.22847 27.9822,-100 62.5,-100 34.5178,0 62.5,44.77153 62.5,100 z"
           id="ellipse4258"
           cx="375"
           ry="100"
           cy="250"
           rx="62.5" />
        <ellipse
           sodipodi:ry="100"
           sodipodi:rx="26.5"
           sodipodi:cy="250"
           sodipodi:cx="375"
           d="m 401.5,250 c 0,55.22847 -11.86445,100 -26.5,100 -14.63555,0 -26.5,-44.77153 -26.5,-100 0,-55.22847 11.86445,-100 26.5,-100 14.63555,0 26.5,44.77153 26.5,100 z"
           id="ellipse4260"
           cx="375"
           ry="100"
           cy="250"
           rx="26.5" />
        <circle
           sodipodi:ry="130"
           sodipodi:rx="130"
           sodipodi:cy="444"
           sodipodi:cx="375"
           d="m 505,444 c 0,71.79702 -58.20298,130 -130,130 -71.79702,0 -130,-58.20298 -130,-130 0,-71.79702 58.20298,-130 130,-130 71.79702,0 130,58.20298 130,130 z"
           id="circle4262"
           cx="375"
           cy="444"
           r="130" />
        <circle
           sodipodi:ry="260"
           sodipodi:rx="260"
           sodipodi:cy="538"
           sodipodi:cx="375"
           d="M 635,538 C 635,681.59403 518.59403,798 375,798 231.40597,798 115,681.59403 115,538 115,394.40597 231.40597,278 375,278 c 143.59403,0 260,116.40597 260,260 z"
           id="circle4264"
           cx="375"
           cy="538"
           r="260" />
        <circle
           sodipodi:ry="130"
           sodipodi:rx="130"
           sodipodi:cy="56"
           sodipodi:cx="375"
           d="m 505,56 c 0,71.79702 -58.20298,130 -130,130 -71.79702,0 -130,-58.20298 -130,-130 0,-71.797017 58.20298,-130 130,-130 71.79702,0 130,58.202983 130,130 z"
           id="circle4266"
           cx="375"
           cy="56"
           r="130" />
        <circle
           sodipodi:ry="260"
           sodipodi:rx="260"
           sodipodi:cy="-38"
           sodipodi:cx="375"
           d="M 635,-38 C 635,105.59403 518.59403,222 375,222 231.40597,222 115,105.59403 115,-38 c 0,-143.59403 116.40597,-260 260,-260 143.59403,0 260,116.40597 260,260 z"
           id="circle4268"
           cx="375"
           cy="-38"
           r="260" />
        <line
           id="line4270"
           y1="250"
           x2="475"
           x1="275"
           y2="250" />
        <line
           id="line4272"
           y1="150"
           x2="375"
           x1="375"
           y2="350" />
      </g>
    </g>
    <g
       id="g4274">
      <g
         id="g4276">
        <path
           inkscape:connector-curvature="0"
           id="path4278"
           d="m 285.3,361.56 c 2.42,1.82 9.79,6.26 20.4,6.26 22.82,0 25.55,-14.14 54.53,-14.14 22.93,0 43.63,18.48 53.52,27.87 l -6.26,5.45 c -3.63,-5.05 -23.83,-29.28 -44.23,-29.28 -13.02,0 -22.92,19.19 -46.45,19.19 -17.87,0 -27.57,-9.89 -31.51,-15.35 z" />
        <path
           inkscape:connector-curvature="0"
           id="path4280"
           d="m 342.28,353.74 c -10.2,-0.25 -25.04,7.89 -39.98,7.57 -11.92,-0.25 -33.12,-6.41 -41.05,-24.69 4.8,5.35 11.74,12.55 33.17,12.72 13.02,0.1 24.94,3.64 29.23,3.64 -5.91,-1.51 -12.54,-3.82 -17.87,-8.94 -5,-4.8 -10.45,-20.55 -14.54,-25.3 7.42,3.23 21.76,19.69 27.52,24.54 9.42,7.94 13.83,8.08 23.52,10.46 z" />
        <path
           inkscape:connector-curvature="0"
           id="path4282"
           d="m 304.72,346.82 c -10.2,-2.02 -30.97,-5.69 -35.95,-8.89 -8.18,-5.25 -25.85,-15.04 -29.08,-37.16 3.33,8.28 13.33,17.57 27.47,23.13 12.88,5.06 18.38,12.01 25.75,16.16 -5.75,-4.34 -9.7,-9.39 -12.72,-14.74 -5.19,-9.17 -4.44,-31.2 -9.49,-37.56 8.28,7.57 15.26,22.85 17.27,28.78 4.13,12.21 8.37,25.53 16.75,30.28 z" />
        <path
           inkscape:connector-curvature="0"
           id="path4284"
           d="m 276.75,324.71 c -5.76,-5.96 -28.18,-16.66 -33.53,-24.64 -5.42,-8.07 -15.15,-15.55 -12.52,-39.28 0.49,8.91 6.08,17.38 17.17,27.77 8.08,7.57 12.91,18.53 18.56,24.83 -4.05,-5.96 -6.82,-12.93 -7.96,-18.97 -1.96,-10.35 5.96,-28.2 3.23,-35.85 5.4,9.83 6.88,26.05 6.87,32.31 -0.02,12.9 3.63,28.07 8.18,33.83 z" />
        <path
           inkscape:connector-curvature="0"
           id="path4286"
           d="m 254.83,291.28 c -5.35,-10.4 -19.89,-22.72 -22.21,-35.04 -1.8,-9.55 -5.05,-19.9 2.12,-37.26 -1.52,8.58 0.04,18.37 6.67,30.8 6.56,12.32 5.35,22.52 8.18,27.11 -1.48,-7.06 -1.4,-14.55 -0.16,-20.58 2.12,-10.32 13.99,-20.17 14.8,-30.87 1.21,10.2 -2.31,25.48 -4.34,31.4 -4.65,13.54 -6.97,19.99 -5.06,34.44 z" />
        <path
           inkscape:connector-curvature="0"
           id="path4288"
           d="m 246.96,254.21 c -1.31,-12.72 -10.2,-27.87 -9.7,-40.19 0.39,-9.71 0.88,-18.26 13.13,-32.52 -4.54,8.18 -4.44,14.88 -2.83,28.88 1.52,13.13 -1.35,23.53 -0.1,28.78 0.5,-10.3 2.72,-15.11 6.46,-19.99 6.97,-9.09 16.76,-12.92 19.09,-20.4 -0.21,8.18 -5.91,19.95 -9.7,24.94 -8.64,11.4 -14.94,16.77 -16.35,30.5 z" />
        <path
           inkscape:connector-curvature="0"
           id="path4290"
           d="m 250.64,219.4 c 2.66,-12.51 -2.01,-24.75 1.37,-34.66 2.82,-8.28 6.86,-16.76 20.7,-21.01 -4.24,2.33 -9.88,10.18 -10.5,15.86 -1.61,14.64 -6.54,20.98 -6.97,26.36 3.23,-8.89 8.47,-13.27 13.53,-16.77 9.42,-6.51 14.34,-10.7 17.27,-17.26 -0.3,8.38 -5.35,18.88 -12.42,24.03 -11.56,8.42 -20.2,16.46 -22.98,23.45 z" />
        <path
           inkscape:connector-curvature="0"
           id="path4292"
           d="m 300.78,150 c -4.75,2.32 -19.09,6.26 -25.55,13.83 -8.65,10.13 -8.49,19.19 -11.61,24.84 5.35,-4.34 15.55,-11.71 18.98,-16.87 3.44,-5.14 9.39,-14.63 18.18,-21.8 z" />
      </g>
      <g
         id="g4294">
        <path
           inkscape:connector-curvature="0"
           id="path4296"
           d="m 464.7,361.56 c -2.42,1.82 -9.79,6.26 -20.4,6.26 -22.82,0 -25.55,-14.14 -54.53,-14.14 -22.93,0 -43.63,18.48 -53.52,27.87 l 6.26,5.45 c 3.63,-5.05 23.83,-29.28 44.23,-29.28 13.02,0 22.92,19.19 46.45,19.19 17.87,0 27.57,-9.89 31.51,-15.35 z" />
        <path
           inkscape:connector-curvature="0"
           id="path4298"
           d="m 407.72,353.74 c 10.2,-0.25 25.04,7.89 39.98,7.57 11.92,-0.25 33.12,-6.41 41.05,-24.69 -4.8,5.35 -11.74,12.55 -33.17,12.72 -13.02,0.1 -24.94,3.64 -29.23,3.64 5.91,-1.51 12.54,-3.82 17.87,-8.94 5,-4.8 10.45,-20.55 14.54,-25.3 -7.42,3.23 -21.76,19.69 -27.52,24.54 -9.42,7.94 -13.83,8.08 -23.52,10.46 z" />
        <path
           inkscape:connector-curvature="0"
           id="path4300"
           d="m 445.28,346.82 c 10.2,-2.02 30.97,-5.69 35.95,-8.89 8.18,-5.25 25.85,-15.04 29.08,-37.16 -3.33,8.28 -13.33,17.57 -27.47,23.13 -12.88,5.06 -18.38,12.01 -25.75,16.16 5.75,-4.34 9.7,-9.39 12.72,-14.74 5.19,-9.17 4.44,-31.2 9.49,-37.56 -8.28,7.57 -15.26,22.85 -17.27,28.78 -4.13,12.21 -8.37,25.53 -16.75,30.28 z" />
        <path
           inkscape:connector-curvature="0"
           id="path4302"
           d="m 473.25,324.71 c 5.76,-5.96 28.18,-16.66 33.53,-24.64 5.42,-8.07 15.15,-15.55 12.52,-39.28 -0.49,8.91 -6.08,17.38 -17.17,27.77 -8.08,7.57 -12.91,18.53 -18.56,24.83 4.05,-5.96 6.82,-12.93 7.96,-18.97 1.96,-10.35 -5.96,-28.2 -3.23,-35.85 -5.4,9.83 -6.88,26.05 -6.87,32.31 0.02,12.9 -3.63,28.07 -8.18,33.83 z" />
        <path
           inkscape:connector-curvature="0"
           id="path4304"
           d="m 495.17,291.28 c 5.35,-10.4 19.89,-22.72 22.21,-35.04 1.8,-9.55 5.05,-19.9 -2.12,-37.26 1.52,8.58 -0.04,18.37 -6.67,30.8 -6.56,12.32 -5.35,22.52 -8.18,27.11 1.48,-7.06 1.4,-14.55 0.16,-20.58 -2.12,-10.32 -13.99,-20.17 -14.8,-30.87 -1.21,10.2 2.31,25.48 4.34,31.4 4.65,13.54 6.97,19.99 5.06,34.44 z" />
        <path
           inkscape:connector-curvature="0"
           id="path4306"
           d="m 503.04,254.21 c 1.31,-12.72 10.2,-27.87 9.7,-40.19 -0.39,-9.71 -0.88,-18.26 -13.13,-32.52 4.54,8.18 4.44,14.88 2.83,28.88 -1.52,13.13 1.35,23.53 0.1,28.78 -0.5,-10.3 -2.72,-15.11 -6.46,-19.99 -6.97,-9.09 -16.76,-12.92 -19.09,-20.4 0.21,8.18 5.91,19.95 9.7,24.94 8.64,11.4 14.94,16.77 16.35,30.5 z" />
        <path
           inkscape:connector-curvature="0"
           id="path4308"
           d="m 499.36,219.4 c -2.66,-12.51 2.01,-24.75 -1.37,-34.66 -2.82,-8.28 -6.86,-16.76 -20.7,-21.01 4.24,2.33 9.88,10.18 10.5,15.86 1.61,14.64 6.54,20.98 6.97,26.36 -3.23,-8.89 -8.47,-13.27 -13.53,-16.77 -9.42,-6.51 -14.34,-10.7 -17.27,-17.26 0.3,8.38 5.35,18.88 12.42,24.03 11.56,8.42 20.2,16.46 22.98,23.45 z" />
        <path
           inkscape:connector-curvature="0"
           id="path4310"
           d="m 449.22,150 c 4.75,2.32 19.09,6.26 25.55,13.83 8.65,10.13 8.49,19.19 11.61,24.84 -5.35,-4.34 -15.55,-11.71 -18.98,-16.87 -3.44,-5.14 -9.39,-14.63 -18.18,-21.8 z" />
      </g>
    </g>
    <g
       id="g4312">
      <circle
         sodipodi:ry="5.25"
         sodipodi:rx="5.25"
         sodipodi:cy="222"
         sodipodi:cx="375"
         d="m 380.25,222 c 0,2.89949 -2.35051,5.25 -5.25,5.25 -2.89949,0 -5.25,-2.35051 -5.25,-5.25 0,-2.89949 2.35051,-5.25 5.25,-5.25 2.89949,0 5.25,2.35051 5.25,5.25 z"
         id="circle4314"
         r="5.25"
         cx="375"
         cy="222" />
      <path
         inkscape:connector-curvature="0"
         id="path4316"
         d="m 388.23,197.59 c 1.17,-1.73 1.76,-3.62 1.76,-5.65 0,-4.05 -2.91,-10.14 -13.42,-10.14 -9.83,0 -13.07,5.7 -13.07,9.5 0,2.87 1.9,4.62 4.46,4.62 2.19,0 3.95,-1.47 3.95,-3.69 0,-2.61 -2.09,-4.65 -2.09,-5.81 0,-0.96 1.49,-2.4 4.02,-2.4 2.09,0 5.91,1.32 5.91,8.31 0,9.41 -5.45,8.99 -5.45,18.82 v 0.98 h 1.4 c 0.16,-2.27 0.58,-3.95 1.28,-5.04 0.72,-1.11 2.21,-2.38 4.46,-3.79 3.36,-2.1 5.62,-4 6.79,-5.71 z" />
    </g>
    <g
       id="g4318">
      <polygon
         style="opacity:0;fill:#ffffff"
         id="polygon4320"
         points="390,241.5 385.8,239.31 384.45,238.65 378.05,235.5 371.95,235.5 365.55,238.65 364.2,239.31 360,241.5 356,245 356,297 394,297 394,245 " />
      <path
         inkscape:connector-curvature="0"
         id="path4322"
         d="m 380.63,296.84 -0.35,-17.22 c -0.17,-3.27 -0.24,-6.53 -0.51,-9.79 -0.71,-4.63 -2.83,-8.94 -3.26,-13.62 0.55,-0.67 1.15,-1.28 1.77,-1.89 2.65,1.28 3.05,3.86 5.36,5.84 -0.6,-2.36 -2,-4.42 -2.92,-6.66 -1.17,-2.1 -1.89,-4.61 -4.04,-6.02 1.4,-0.82 2.93,-1.37 4.38,-2.08 2.54,-1.16 5.29,-2.21 7.33,-4.14 0.04,-0.15 0.04,-0.27 0.03,-0.39 l 1.13,0.67 1.3,3.52 c 0.17,0.5 0.25,1.02 0.25,1.54 0,0.97 -0.28,1.95 -0.79,2.79 0.27,1.77 1.16,3.43 1.76,5.12 1,2.53 1.25,5.26 1.38,7.95 0.11,0.67 0.16,1.37 0.16,2.04 0,12.69 -8.42,26.57 -12.98,32.34 z M 356.39,264.5 c 0,-0.67 0.05,-1.37 0.16,-2.04 0.13,-2.69 0.38,-5.42 1.38,-7.95 0.6,-1.69 1.49,-3.35 1.76,-5.12 -0.51,-0.84 -0.79,-1.82 -0.79,-2.79 0,-0.52 0.08,-1.04 0.25,-1.54 l 1.3,-3.52 1.13,-0.67 c -0.01,0.12 -0.01,0.24 0.03,0.39 2.04,1.93 4.79,2.98 7.33,4.14 1.45,0.71 2.98,1.26 4.38,2.08 -2.15,1.41 -2.87,3.92 -4.04,6.02 -0.92,2.24 -2.32,4.3 -2.92,6.66 2.31,-1.98 2.71,-4.56 5.36,-5.84 0.62,0.61 1.22,1.22 1.77,1.89 -0.43,4.68 -2.55,8.99 -3.26,13.62 -0.27,3.26 -0.34,6.52 -0.51,9.79 l -0.35,17.22 c -4.56,-5.77 -12.98,-19.65 -12.98,-32.34 z m 60.14,91.7 c 4.06,-2.61 8.38,-4.81 12.42,-7.45 l 4.77,-3.06 c 2.4,-1.38 4.29,-3.38 6.45,-5.06 0.4,-2.37 0.62,-4.75 1.07,-7.11 v -7.13 c -0.34,-1.19 -0.08,-2.43 -0.34,-3.63 -0.24,-3.81 -0.51,-7.65 -1.02,-11.44 -0.96,-4.99 -0.78,-10.09 -1.73,-15.08 -0.28,-1.76 -1.28,-3.28 -1.8,-4.97 0.57,-0.23 1.14,-0.48 1.73,-0.7 -0.71,-2.13 -1.91,-2.14 -1.91,-3.15 0,-1.22 1.37,-2.47 2.05,-3.56 -0.71,-0.74 -1.71,-1.1 -2.65,-1.48 0.01,-0.55 0.03,-1.11 0.03,-1.66 0,-0.67 -0.03,-1.33 -0.15,-1.99 -0.62,-5.15 -1.49,-10.27 -1.95,-15.44 -0.11,-2.76 -1.92,-5.5 -4.67,-6.4 -6.18,-0.21 -12.3,-1.45 -18.29,-2.89 -4.05,-1.02 -8.32,-2.29 -11.17,-5.44 -1.63,-2.12 -4.05,-3.45 -6.14,-5.09 -2.34,-1.67 -4.58,-3.71 -7.52,-4.3 l 0.09,0.14 0.61,0.68 c 0.28,0.23 0.55,0.48 0.81,0.73 -0.3,0.46 -0.66,0.86 -1,1.29 -5.65,-2.98 -7.16,-3.01 -8.91,-3.01 h -4.62 c -1.75,0 -3.26,0.03 -8.91,3.01 -0.34,-0.43 -0.7,-0.83 -1,-1.29 0.26,-0.25 0.53,-0.5 0.81,-0.73 l 0.61,-0.68 0.09,-0.14 c -2.94,0.59 -5.18,2.63 -7.52,4.3 -2.09,1.64 -4.51,2.97 -6.14,5.09 -2.85,3.15 -7.12,4.42 -11.17,5.44 -5.99,1.44 -12.11,2.68 -18.29,2.89 -2.75,0.9 -4.56,3.64 -4.67,6.4 -0.46,5.17 -1.33,10.29 -1.95,15.44 -0.12,0.66 -0.15,1.32 -0.15,1.99 0,0.55 0.02,1.11 0.03,1.66 -0.94,0.38 -1.94,0.74 -2.65,1.48 0.68,1.09 2.05,2.34 2.05,3.56 0,1.01 -1.2,1.02 -1.91,3.15 0.59,0.22 1.16,0.47 1.73,0.7 -0.52,1.69 -1.52,3.21 -1.8,4.97 -0.95,4.99 -0.77,10.09 -1.73,15.08 -0.51,3.79 -0.78,7.63 -1.02,11.44 -0.26,1.2 0,2.44 -0.34,3.63 v 7.13 c 0.45,2.36 0.67,4.74 1.07,7.11 2.16,1.68 4.05,3.68 6.45,5.06 l 4.77,3.06 c 4.04,2.64 8.36,4.84 12.42,7.45 l -3.02,41.24 c 21.01,3.96 30.95,6.27 39.91,7.2 1.56,0.16 3.09,0.28 4.64,0.36 1.55,-0.08 3.08,-0.2 4.64,-0.36 8.96,-0.93 18.9,-3.24 39.91,-7.2 l -3.02,-41.24 z" />
      <path
         inkscape:connector-curvature="0"
         id="path4324"
         d="m 371.95,235 c -3.79,1.22 -5.5,2.59 -6.4,3.65 2.32,-0.73 4.49,-1.85 6.89,-2.35 0.86,-0.17 1.69,-0.26 2.56,-0.28 0.87,0.02 1.7,0.11 2.56,0.28 2.4,0.5 4.57,1.62 6.89,2.35 -0.9,-1.06 -2.61,-2.43 -6.4,-3.65 h -6.1 z" />
    </g>
  </g>
</svg>
