<?xml version="1.0" encoding="UTF-8" standalone="no"?>
<!-- Created with Inkscape (http://www.inkscape.org/) -->

<svg
   xmlns:osb="http://www.openswatchbook.org/uri/2009/osb"
   xmlns:dc="http://purl.org/dc/elements/1.1/"
   xmlns:cc="http://creativecommons.org/ns#"
   xmlns:rdf="http://www.w3.org/1999/02/22-rdf-syntax-ns#"
   xmlns:svg="http://www.w3.org/2000/svg"
   xmlns="http://www.w3.org/2000/svg"
   xmlns:xlink="http://www.w3.org/1999/xlink"
   xmlns:sodipodi="http://sodipodi.sourceforge.net/DTD/sodipodi-0.dtd"
   xmlns:inkscape="http://www.inkscape.org/namespaces/inkscape"
   width="20"
   height="20"
   id="svg2"
   version="1.1"
   inkscape:version="0.48.3.1 r9886"
   sodipodi:docname="camera.svg">
  <defs
     id="defs4">
    <linearGradient
       id="linearGradient3755"
       osb:paint="solid">
      <stop
         style="stop-color:#ffffff;stop-opacity:1;"
         offset="0"
         id="stop3757" />
    </linearGradient>
    <linearGradient
       inkscape:collect="always"
       xlink:href="#linearGradient3755"
       id="linearGradient3759"
       x1="3.4821429"
       y1="1042.2283"
       x2="16.517857"
       y2="1042.2283"
       gradientUnits="userSpaceOnUse" />
  </defs>
  <sodipodi:namedview
     id="base"
     pagecolor="#ffffff"
     bordercolor="#666666"
     borderopacity="1.0"
     inkscape:pageopacity="0.0"
     inkscape:pageshadow="2"
     inkscape:zoom="15.839192"
     inkscape:cx="10.593759"
     inkscape:cy="12.174429"
     inkscape:document-units="px"
     inkscape:current-layer="layer1"
     showgrid="false"
     inkscape:window-width="1022"
     inkscape:window-height="578"
     inkscape:window-x="0"
     inkscape:window-y="20"
     inkscape:window-maximized="0" />
  <metadata
     id="metadata7">
    <rdf:RDF>
      <cc:Work
         rdf:about="">
        <dc:format>image/svg+xml</dc:format>
        <dc:type
           rdf:resource="http://purl.org/dc/dcmitype/StillImage" />
        <dc:title></dc:title>
      </cc:Work>
    </rdf:RDF>
  </metadata>
  <g
     inkscape:label="Ebene 1"
     inkscape:groupmode="layer"
     id="layer1"
     transform="translate(0,-1032.3622)">
    <g
       id="g4023"
       transform="matrix(0.6740685,0,0,0.6740685,5.6409782,342.01425)"
       style="fill:#00ff00">
      <path
         inkscape:connector-curvature="0"
         id="rect3995"
         d="m -1.4768412,1037.5337 0,12.6875 15.5889512,0 0,-2.375 2.463439,2 0,0.25 3.42572,0 0,-12.4375 -3.42572,0 0,0.25 -2.463439,2 0,-2.375 -15.5889512,0 z"
         style="fill:#00ff00;fill-opacity:1;fill-rule:nonzero;stroke:none" />
      <g
         transform="matrix(0.96592583,-0.25881905,0.25881905,0.96592583,-272.08637,33.513873)"
         id="g4017"
         style="fill:#00ff00">
        <path
           sodipodi:type="arc"
           style="fill:#00ff00;fill-opacity:1;fill-rule:nonzero;stroke:none"
           id="path4013"
           sodipodi:cx="2.9673231"
           sodipodi:cy="6.8680167"
           sodipodi:rx="6.8185296"
           sodipodi:ry="6.8185296"
           d="m 9.7858527,6.8680167 c 0,3.7657703 -3.0527597,6.8185293 -6.8185296,6.8185293 -3.76576995,0 -6.8185296,-3.052759 -6.8185296,-6.8185293 0,-3.7657699 3.05275965,-6.81852959 6.8185296,-6.81852959 3.7657699,0 6.8185296,3.05275969 6.8185296,6.81852959 z"
           transform="translate(0,1032.3622)" />
        <path
           transform="translate(7.7024132,1032.3622)"
           d="m 9.7858527,6.8680167 c 0,3.7657703 -3.0527597,6.8185293 -6.8185296,6.8185293 -3.76576995,0 -6.8185296,-3.052759 -6.8185296,-6.8185293 0,-3.7657699 3.05275965,-6.81852959 6.8185296,-6.81852959 3.7657699,0 6.8185296,3.05275969 6.8185296,6.81852959 z"
           sodipodi:ry="6.8185296"
           sodipodi:rx="6.8185296"
           sodipodi:cy="6.8680167"
           sodipodi:cx="2.9673231"
           id="path4015"
           style="fill:#00ff00;fill-opacity:1;fill-rule:nonzero;stroke:none"
           sodipodi:type="arc" />
      </g>
    </g>
  </g>
</svg>
