<?xml version="1.0" encoding="UTF-8" standalone="no"?>
<!-- Created with Inkscape (http://www.inkscape.org/) -->

<svg
   xmlns:dc="http://purl.org/dc/elements/1.1/"
   xmlns:cc="http://creativecommons.org/ns#"
   xmlns:rdf="http://www.w3.org/1999/02/22-rdf-syntax-ns#"
   xmlns:svg="http://www.w3.org/2000/svg"
   xmlns="http://www.w3.org/2000/svg"
   xmlns:xlink="http://www.w3.org/1999/xlink"
   xmlns:sodipodi="http://sodipodi.sourceforge.net/DTD/sodipodi-0.dtd"
   xmlns:inkscape="http://www.inkscape.org/namespaces/inkscape"
   width="537.875"
   height="537.84375"
   id="svg2"
   version="1.1"
   inkscape:version="0.48.4 r9939"
   sodipodi:docname="logo.svg"
   inkscape:export-filename="/data/home/anx/code/orion/var/theme/logo.png"
   inkscape:export-xdpi="42.84"
   inkscape:export-ydpi="42.84">
  <sodipodi:namedview
     id="base"
     pagecolor="#ffffff"
     bordercolor="#666666"
     borderopacity="1.0"
     inkscape:pageopacity="0.0"
     inkscape:pageshadow="2"
     inkscape:zoom="0.49497475"
     inkscape:cx="537.11532"
     inkscape:cy="246.59739"
     inkscape:document-units="px"
     inkscape:current-layer="layer1"
     showgrid="false"
     inkscape:window-width="1280"
     inkscape:window-height="751"
     inkscape:window-x="0"
     inkscape:window-y="26"
     inkscape:window-maximized="1"
     fit-margin-top="0"
     fit-margin-left="0"
     fit-margin-right="0"
     fit-margin-bottom="0" />
  <defs
     id="defs4">
    <linearGradient
       id="linearGradient5476">
      <stop
         id="stop5478"
         offset="0"
         style="stop-color:#727272;stop-opacity:1;" />
      <stop
         style="stop-color:#2e2e2e;stop-opacity:1;"
         offset="0.36858806"
         id="stop5480" />
      <stop
         style="stop-color:#2d2d2d;stop-opacity:1;"
         offset="0.58112496"
         id="stop5482" />
      <stop
         id="stop5484"
         offset="1"
         style="stop-color:#6e6e6e;stop-opacity:1;" />
    </linearGradient>
    <linearGradient
       id="linearGradient5456">
      <stop
         style="stop-color:#727272;stop-opacity:1;"
         offset="0"
         id="stop5458" />
      <stop
         id="stop5474"
         offset="0.29117647"
         style="stop-color:#2e2e2e;stop-opacity:1;" />
      <stop
         id="stop5472"
         offset="0.58235294"
         style="stop-color:#2d2d2d;stop-opacity:1;" />
      <stop
         style="stop-color:#6e6e6e;stop-opacity:1;"
         offset="1"
         id="stop5460" />
    </linearGradient>
    <filter
       inkscape:collect="always"
       id="filter5387"
       color-interpolation-filters="sRGB">
      <feGaussianBlur
         inkscape:collect="always"
         stdDeviation="3.6051103"
         id="feGaussianBlur5389" />
    </filter>
    <filter
       inkscape:collect="always"
       id="filter5431"
       color-interpolation-filters="sRGB">
      <feGaussianBlur
         inkscape:collect="always"
         stdDeviation="4.6548337"
         id="feGaussianBlur5433" />
    </filter>
    <linearGradient
       inkscape:collect="always"
       xlink:href="#linearGradient5476"
       id="linearGradient3078"
       gradientUnits="userSpaceOnUse"
       x1="203.29358"
       y1="-2.0811219"
       x2="253.61575"
       y2="260.77603" />
  </defs>
  <metadata
     id="metadata7">
    <rdf:RDF>
      <cc:Work
         rdf:about="">
        <dc:format>image/svg+xml</dc:format>
        <dc:type
           rdf:resource="http://purl.org/dc/dcmitype/StillImage" />
        <dc:title />
      </cc:Work>
    </rdf:RDF>
  </metadata>
  <g
     id="layer1"
     inkscape:groupmode="layer"
     inkscape:label="Ebene 1"
     transform="translate(43.21875,82.28125)">
    <g
       id="g4389"
       transform="translate(-86.902853,-149.45542)">
      <path
         style="fill:#4d4d4d;stroke:none"
         d="m 250.44411,373.09494 c 0,0 1.66123,-7.14197 1.42857,-8.57143 -2.12168,-13.03578 -33.39712,-57.33498 -37.14285,-69.99999 -5.42275,-18.3353 -15.71429,-110.00001 -10,-114.28572 18.57184,-13.31202 31.76316,13.4689 45.71428,5 1.98568,-2.68752 -1.17803,-30.89801 18.57143,-33.57143 13.21655,-1.78909 17.93378,22.81104 24.28572,22.14286 13.57188,-1.42767 18.25441,-28.37401 34.99999,-29.28571 13.19401,-0.71834 16.6898,29.20689 24.28572,28.57142 11.00198,-0.92041 20.32884,-25.52156 31.42857,-26.42857 7.86333,-0.64255 25.71428,11.42857 27.85714,17.85715 2.14286,6.42857 7.30677,67.07689 5.35715,80.35714 -1.50472,10.24967 -21.78572,58.21428 -21.78572,58.21428 0,0 -42.14286,59.28571 -41.42857,64.28571 0.71428,5 -103.57143,5.71429 -103.57143,5.71429 z"
         id="path2995"
         inkscape:connector-curvature="0"
         sodipodi:nodetypes="caaccssssssscsc" />
      <path
         id="path4383"
         d="m 328.3125,144.53125 c -16.74558,0.9117 -21.42812,27.85358 -35,29.28125 -6.35194,0.66818 -11.09595,-23.94534 -24.3125,-22.15625 -19.74946,2.67342 -16.57682,30.90623 -18.5625,33.59375 -13.95112,8.4689 -27.14691,-18.31202 -45.71875,-5 -5.71429,4.28571 4.57725,95.94595 10,114.28125 1.25753,4.25194 5.65033,12.09083 10.96875,21.09375 l 184.625,-49.46875 c 3.5023,-9.27148 6.37399,-17.65566 6.90625,-21.28125 1.94962,-13.28025 -3.20089,-73.91518 -5.34375,-80.34375 -2.14286,-6.42858 -20.01167,-18.51755 -27.875,-17.875 -11.09973,0.90701 -20.40427,25.51709 -31.40625,26.4375 -7.59592,0.63547 -11.08724,-29.28084 -24.28125,-28.5625 z"
         style="fill:#333333;stroke:none"
         inkscape:connector-curvature="0" />
      <path
         sodipodi:nodetypes="cscssc"
         inkscape:connector-curvature="0"
         id="path3007"
         d="m 278.78999,202.1932 c -5.453,3.24892 -14.58477,27.96322 -11.13065,38.2863 3.44658,10.30055 13.37414,25.80844 18.39402,23.881 0,0 16.12142,-2.3512 18.78153,-5.70708 2.1364,-2.6952 -1.27063,-46.59255 -4.1739,-47.75605 -10.62544,-4.25821 -17.54621,-10.65352 -21.871,-8.70417 z"
         style="fill:#4d4d4d;stroke:none" />
      <path
         style="fill:#666666;stroke:none"
         d="m 261.32682,149.17979 c -7.32125,4.36203 -15.74563,22.19956 -11.10809,36.05942 4.62741,13.82961 15.19404,59.2551 22.21619,57.57875 9.09742,-2.17177 30.60454,-11.88994 30.80021,-17.64707 0.36689,-10.79497 -14.13806,-66.68544 -17.16754,-69.59346 -3.02948,-2.90801 -18.93426,-9.01485 -24.74077,-6.39764 z"
         id="path2997"
         inkscape:connector-curvature="0"
         sodipodi:nodetypes="cssssc" />
      <path
         style="fill:#4d4d4d;stroke:none"
         d="m 236.69376,225.49416 c -4.09269,3.36383 -11.84447,21.00664 -12.06405,25.11428 -0.34131,6.38503 16.19872,29.11049 19.85282,28.16802 3.30066,-0.8513 15.29881,-4.06742 16.70149,-6.7198 3.10423,-5.86988 -5.11792,-37.36631 -8.5141,-38.9206 -2.6839,-1.22831 -12.65866,-9.69326 -15.97616,-7.64189 z"
         id="path3009"
         inkscape:connector-curvature="0"
         sodipodi:nodetypes="cssasc" />
      <path
         sodipodi:nodetypes="scssss"
         inkscape:connector-curvature="0"
         id="path2999"
         d="m 213.2473,169.18849 c -5.97708,3.85557 -10.73386,11.31583 -11.86898,19.93772 0.76536,9.07266 20.52495,71.31201 26.59174,69.45175 4.69963,-1.44103 31.09077,-9.35522 30.50996,-13.86347 -2.4883,-19.31412 -21.44114,-67.25461 -24.2525,-70.01691 -2.81137,-2.7623 -15.99444,-8.72522 -20.98022,-5.50909 z"
         style="fill:#666666;stroke:none" />
      <path
         style="fill:#4d4d4d;stroke:none"
         d="m 330.49556,191.74268 c -6.0129,1.42742 -18.20577,13.27092 -17.30641,24.2856 0.89738,10.99064 6.62707,43.19881 11.91249,42.9085 0,0 17.26454,0.885 20.61395,-1.51619 2.68999,-1.92846 3.06288,-52.55651 1.39968,-55.34514 -1.6632,-2.78863 -11.99829,-10.8609 -16.61971,-10.33277 z"
         id="path3011"
         inkscape:connector-curvature="0"
         sodipodi:nodetypes="cscssc" />
      <path
         sodipodi:nodetypes="cscssc"
         inkscape:connector-curvature="0"
         id="path3001"
         d="m 329.22639,139.30032 c -8.07297,1.91646 -20.3745,16.46141 -19.16702,31.24983 1.20484,14.75613 0.76013,62.74595 7.85637,62.35617 0,0 27.24825,-2.20239 31.7452,-5.42625 3.61161,-2.58917 4.11226,-70.56283 1.87923,-74.30687 -2.23302,-3.74403 -16.10901,-14.58193 -22.31378,-13.87287 z"
         style="fill:#666666;stroke:none" />
      <path
         sodipodi:nodetypes="cscssc"
         inkscape:connector-curvature="0"
         id="path3013"
         d="m 376.36027,209.36587 c -6.13914,-0.0455 -17.05846,8.35374 -18.16918,19.34281 -1.1083,10.96508 -7.89121,45.84649 -2.6691,46.82978 0,0 20.1469,3.26154 23.85685,1.716 2.97955,-1.24126 12.49285,-50.671 11.36998,-53.79734 -1.12286,-3.12632 -9.77292,-13.49976 -14.38855,-14.09125 z"
         style="fill:#4d4d4d;stroke:none" />
      <path
         style="fill:#666666;stroke:none"
         d="m 395.80524,142.50678 c -8.24246,-0.0611 -22.90285,11.21581 -24.39411,25.96983 -1.48801,14.72182 -10.59481,61.5539 -3.58356,62.87408 0,0 27.04942,4.37898 32.03042,2.30392 4.00037,-1.66653 16.77301,-68.03135 15.26544,-72.22879 -1.50756,-4.19743 -13.1212,-18.1249 -19.31819,-18.91904 z"
         id="path3003"
         inkscape:connector-curvature="0"
         sodipodi:nodetypes="cscssc" />
      <path
         style="fill:#808080;stroke:none"
         d="m 317.72271,370.61583 c 0,0 -11.75398,-53.12337 -5.46303,-78.63345 5.37291,-21.78739 35.18147,-53.50323 35.35534,-57.28898 0.25089,-5.46292 -1.38418,-21.37281 -7.50435,-29.44236 -4.90618,-6.46888 -19.84284,-10.38995 -21.10553,-12.15772 -1.26269,-1.76777 -10.73177,-28.24624 -1.91442,-28.9119 8.48169,-0.64032 39.25761,7.48154 49.16572,8.0707 6.45667,0.38393 20.86978,22.35692 24.29007,27.33103 7.94743,11.55793 15.84863,72.45307 17.6164,79.77668 1.76776,7.32361 -51.22499,95.05151 -54.50799,95.55659 -3.28299,0.50508 -31.63906,0.75018 -35.93221,-4.30059 z"
         id="path3005"
         inkscape:connector-curvature="0"
         sodipodi:nodetypes="casassssssc" />
    </g>
    <g
       style="filter:url(#filter5387)"
       transform="translate(-120,-121.42857)"
       id="g5391">
      <path
         style="fill:#4d4d4d;stroke:none"
         d="m 364.66071,122.77679 c -14.96905,4.06502 -17.44245,23.47241 -31.5,28.6875 -9.31605,0.5122 -13.18307,-9.64339 -16.21875,-16.625 -7.53859,-8.93826 -23.4709,-2.11434 -24.53125,8.78125 -2.44267,11.0177 -0.3537,22.40007 0.3125,33.53125 -14.27679,-10.38799 -29.25992,-24.25021 -48.28125,-22.59375 -4.67441,5.36696 -0.29405,12.83106 -1.31938,19.12311 1.70051,40.60863 2.88095,83.7007 23.09677,119.87013 9.70202,17.40933 20.45152,34.10022 28.81636,52.16301 19.1614,4.01697 38.6919,-1.01679 58.0292,0.0906 12.07677,-0.40274 24.22246,-1.07932 36.1583,-2.71561 20.16967,-38.81508 53.42266,-72.02925 61.05511,-116.48886 4.67747,-31.4403 4.93588,-65.89334 -10.71136,-94.32364 -9.08769,-9.82626 -27.43588,-6.76087 -32.55665,5.69151 -6.84647,8.48185 -14.46022,16.88413 -24.8496,21.02724 -0.66439,-13.06314 -2.45619,-29.53929 -15.46875,-36.15624 -0.66574,-0.1467 -1.35586,-0.11122 -2.03125,-0.0625 z"
         id="path5393"
         inkscape:connector-curvature="0" />
      <path
         style="fill:#333333;stroke:none"
         d="m 364.69196,122.37054 c -13.14182,4.97746 -17.44735,19.99346 -28.65625,27.34375 -8.36622,3.7017 -15.82244,-5.69555 -18.03125,-12.96875 -2.52736,-7.55843 -13.63089,-7.51675 -19.15625,-3 -8.86523,6.04458 -8.06579,18.08939 -7.09375,27.5 0.6604,4.84374 1.91286,9.56014 3.15625,14.28125 -16.43694,-7.98175 -31.45985,-22.81891 -51.03125,-20.875 -4.52017,5.19689 -0.0351,12.40291 -0.91589,18.46542 2.28005,37.39236 2.16685,76.49099 18.50964,110.94083 6.01244,6.50004 15.52915,1.8595 22.6763,0.45008 26.65286,-8.86885 54.12643,-14.59406 81.2612,-22.10633 27.50187,-7.13217 54.88345,-14.51793 81.8125,-23.5625 10.74025,-30.25323 4.35642,-63.05487 0.5,-93.96875 -3.96305,-12.31254 -18.44498,-22.86122 -31.21875,-16.8125 -12.63594,7.8361 -17.26793,23.21663 -28.21875,32.75 -6.73391,-13.35729 -8.35911,-30.95298 -22.53125,-39.125 l -0.83957,0.54325 -0.22293,0.14425 z"
         id="path5395"
         inkscape:connector-curvature="0" />
      <path
         style="fill:#4d4d4d;stroke:none"
         d="m 320.62946,181.90179 c -11.18979,2.93868 -13.55606,16.22626 -13.875,26.15625 -0.93084,13.3277 7.5958,29.48821 22,30.46875 9.99501,-0.20783 14.71163,-12.53052 11.5,-20.875 0.61485,-12.22688 -0.47596,-27.82659 -12.75,-34.125 -2.12309,-1.07049 -4.44461,-1.8657 -6.875,-1.625 z"
         id="path5397"
         inkscape:connector-curvature="0" />
      <path
         style="fill:#666666;stroke:none"
         d="m 305.09821,127.52679 c -15.21317,2.96057 -20.24258,22.32266 -14.875,35.28125 5.67741,17.41462 7.23794,37.66 20.53125,51.46875 15.22246,4.60692 32.24473,-12.85493 25.375,-27.78125 -5.24111,-19.00463 -4.72938,-41.82784 -20.34375,-56.03125 -3.11618,-2.07303 -6.89307,-3.23754 -10.6875,-2.9375 z"
         id="path5399"
         inkscape:connector-curvature="0" />
      <path
         style="fill:#4d4d4d;stroke:none"
         d="m 277.81696,206.68304 c -13.31,4.10123 -15.65612,22.08999 -9.20667,32.84556 4.50174,8.42126 14.50661,13.69562 24.05042,11.71694 9.03932,-12.58287 2.66447,-29.36749 -5.77114,-40.43702 -2.1382,-2.68966 -5.59587,-4.44721 -9.07261,-4.12548 z"
         id="path5401"
         inkscape:connector-curvature="0" />
      <path
         style="fill:#666666;stroke:none"
         d="m 259.50446,146.30804 c -6.73121,0.7068 -13.42988,4.43328 -16.25,10.9375 -6.35881,12.38885 2.37067,25.20916 5.84375,36.9375 3.45847,13.76597 8.84057,27.2435 17.4375,38.59375 9.19807,-3.50964 18.59724,-6.5398 27.40625,-10.90625 -6.96221,-26.77559 -11.87808,-56.77044 -33.125,-76.28125 l -0.8771,0.48031 -0.4354,0.23844 z"
         id="path5403"
         inkscape:connector-curvature="0" />
      <path
         style="fill:#4d4d4d;stroke:none"
         d="m 369.03571,171.18304 c -15.6793,4.32882 -20.53671,24.39903 -14.59375,38.0625 2.82908,8.45173 2.83838,20.66338 12.84375,24.28125 9.33529,3.45139 17.37052,-7.47092 15.53125,-16.09375 1.08842,-14.82654 4.07394,-32.87344 -7.3125,-44.625 -1.91163,-1.23872 -4.19005,-1.85427 -6.46875,-1.625 z"
         id="path5405"
         inkscape:connector-curvature="0" />
      <path
         style="fill:#666666;stroke:none"
         d="m 367.97321,118.96429 c -15.74285,4.22391 -21.5599,23.26428 -18.46875,37.8125 1.95917,16.78015 0.4525,34.06812 5.5625,50.34375 10.34755,-1.18531 20.79486,-1.68297 30.8125,-4.6875 2.17759,-24.48293 4.70297,-49.46608 -0.21875,-73.78125 -5.17388,-4.18044 -10.2033,-10.58441 -17.6875,-9.6875 z"
         id="path5407"
         inkscape:connector-curvature="0" />
      <path
         style="fill:#666666;stroke:none"
         d="m 431.47321,122.02679 c -15.25034,3.31044 -22.57199,20.19328 -23.3125,34.46875 -0.23619,16.38585 -5.24547,32.54868 -2.5,49.03125 10.12911,1.47609 20.20484,3.09541 30.46875,3.125 6.36534,-24.0385 15.33469,-48.46895 12.25,-73.71875 -4.10863,-5.56187 -8.80848,-13.55472 -16.90625,-12.90625 z"
         id="path5409"
         inkscape:connector-curvature="0" />
      <path
         style="fill:#808080;stroke:none"
         d="m 350.69196,145.99554 c 1.10347,11.75344 7.6931,23.69052 19.15625,27.90625 18.24328,8.32564 21.11363,34.23222 10.75,49.5625 -8.44266,9.79141 -18.77623,18.73328 -23.25,31.25 -11.94645,27.06564 -9.18876,58.7667 -0.1875,86.3125 5.32798,9.81712 18.85327,9.96768 28.375,7.375 12.19216,-4.92107 16.19489,-18.90747 23.65162,-28.61851 13.09361,-20.74133 27.4497,-41.78884 32.15947,-66.22479 0.57309,-23.36568 -6.41589,-45.99147 -12.09234,-68.37545 -6.5541,-19.05883 -22.41228,-36.40664 -43.32784,-38.45894 -11.84498,-2.24242 -23.95249,-2.47602 -35.95341,-3.41606 0.23958,0.89583 0.47917,1.79166 0.71875,2.6875 z"
         id="path5411"
         inkscape:connector-curvature="0" />
    </g>
    <rect
       style="opacity:1;fill:#e7e7e7;fill-opacity:1;fill-rule:nonzero;stroke:#5f5f5f;stroke-width:15;stroke-miterlimit:4;stroke-opacity:1;stroke-dasharray:none"
       id="rect4643"
       width="522.85712"
       height="522.85712"
       x="-35.714287"
       y="-74.780678"
       rx="30"
       ry="30" />
    <path
       style="font-size:232.21263123px;font-style:normal;font-variant:normal;font-weight:bold;font-stretch:normal;text-align:center;line-height:125%;letter-spacing:0px;word-spacing:0px;text-anchor:middle;fill:#000000;fill-opacity:1;stroke:none;font-family:Liberation Sans;-inkscape-font-specification:Liberation Sans Bold"
       d="m 60.0625,205.34375 c -6.935432,0.47135 -17.316604,-2.21959 -20.5,6.1875 -3.666428,6.91668 0.508224,18.01935 9.125,17.59375 8.132915,1.68258 21.081063,0.005 22.25,-10.09375 0.787885,-6.32421 -3.941685,-14.02004 -10.875,-13.6875 z m 9.46875,45.4375 c -9.07451,2.16388 -20.281684,-3.16142 -27.65625,4.0625 -7.174863,10.58617 -1.346022,23.91007 -3.062174,35.71851 -0.392255,29.85595 -0.286076,60.47184 -0.06283,89.84399 4.270275,-5.61728 11.768029,-8.17356 18.5,-6.03125 6.871001,0.41188 14.979066,-5.0413 13.188588,-12.65625 0.05105,-37.06248 0.07348,-74.12498 0.06141,-111.1875 l -0.968277,0.24988 -4.73e-4,1.2e-4 z"
       id="path4407"
       inkscape:connector-curvature="0" />
    <path
       style="font-size:232.21263123px;font-style:normal;font-variant:normal;font-weight:bold;font-stretch:normal;text-align:center;line-height:125%;letter-spacing:0px;word-spacing:0px;text-anchor:middle;fill:#000000;fill-opacity:1;stroke:none;font-family:Liberation Sans;-inkscape-font-specification:Liberation Sans Bold"
       d="m 135.3125,246.71875 c -5.63017,4.42254 -13.3183,6.50414 -20.28125,4.0625 -8.31469,-0.51499 -14.57255,8.20353 -12.30647,15.96758 1.13983,35.69764 -0.50234,72.1374 0.61897,107.40742 10.59739,-1.11645 21.77881,1.52242 31.875,-2.59375 0.79514,-30.27699 -5.61108,-62.65593 8.1875,-90.9375 11.71201,-7.04373 26.60854,-5.23196 39.03125,-5.125 -3.09633,-3.17502 -8.44125,-5.10836 -8.53125,-10.4375 -0.45053,-5.23228 0.81369,-12.0177 -5.15625,-14.6875 -10.86526,-5.46534 -22.09129,3.65094 -29.69455,10.66232 -3.54583,3.36576 -7.48811,6.35102 -11.3367,9.43143 1.89173,-8.4926 5.04008,-16.46058 8.5,-24.40625 l -0.80994,0.58651 -0.0963,0.0697 z"
       id="path4409"
       inkscape:connector-curvature="0" />
    <path
       style="font-size:232.21263123px;font-style:normal;font-variant:normal;font-weight:bold;font-stretch:normal;text-align:center;line-height:125%;letter-spacing:0px;word-spacing:0px;text-anchor:middle;fill:#000000;fill-opacity:1;stroke:none;font-family:Liberation Sans;-inkscape-font-specification:Liberation Sans Bold"
       d="m 234.90625,248.40625 c -23.89259,0.7746 -45.73857,19.95423 -50.09375,43.34375 8.15291,-5.53236 18.5898,-7.72879 28.09375,-4.96875 8.17926,-0.73905 12.20378,-8.82374 16.75,-14.375 10.47953,-7.90529 28.46816,-0.70357 29.125,12.9375 2.04479,11.38875 -6.52773,21.6577 -15.65625,26.53125 1.8935,5.09483 8.23844,1.41464 11.90625,4.03125 6.56904,3.65132 5.48984,12.53663 2.4375,18.21875 -1.82147,6.50045 5.77419,12.29574 2.6875,18.96875 1.53491,3.13699 3.07264,9.63185 6.53125,12.90625 9.38335,10.94567 29.02729,14.7761 39.28125,3.25 3.39775,-7.17552 -3.53678,-14.71247 -10.3125,-16.1875 -8.92721,-6.90974 -5.26115,-19.66555 -5.31651,-29.34009 1.28464,-21.08971 3.1426,-45.46236 -11.80849,-62.40991 -11.43203,-11.25634 -28.31802,-13.23261 -43.625,-12.90625 z M 224.375,299.8125 c -22.37678,-0.29693 -43.73931,20.17965 -41.3125,43 1.72044,24.81027 32.02993,42.41725 54.3125,30.6875 8.74406,-3.77731 15.72726,-11.59832 21.25,-18.625 -4.95639,2.03993 -10.09231,-1.7218 -15.3125,-0.21875 -9.5601,0.67719 -22.76518,-1.17956 -25.875,-11.75 -3.65838,-11.86021 5.35772,-24.56728 16.65625,-27.625 2.29084,-2.52788 3.56406,-5.1193 1.8125,-8.1875 0.0469,-6.00157 -6.66128,-7.69816 -11.53125,-7.28125 z"
       id="path4411"
       inkscape:connector-curvature="0" />
    <path
       style="font-size:232.21263123px;font-style:normal;font-variant:normal;font-weight:bold;font-stretch:normal;text-align:center;line-height:125%;letter-spacing:0px;word-spacing:0px;text-anchor:middle;fill:#000000;fill-opacity:1;stroke:none;font-family:Liberation Sans;-inkscape-font-specification:Liberation Sans Bold"
       d="m 372.0625,248.15625 c -32.59107,-0.75714 -60.33395,31.42927 -57.125,63.4375 -1.2632,25.40827 12.25214,53.37219 37.5,61.9375 28.10189,10.30495 64.99033,-3.37005 74.84375,-32.8125 0.43165,-7.50597 -9.25183,-11.1111 -15.34375,-8.90625 -10.30225,-2.19888 -18.05195,7.41477 -21.59375,15.84375 -10.07169,11.03171 -32.17876,7.79844 -36.40625,-7.25 -8.12695,-18.4521 -7.23992,-40.65699 0.9375,-58.90625 6.27998,-10.1293 21.73397,-14.98033 31.3125,-6.53125 7.21588,4.61024 11.00689,13.72352 13.59375,20.6875 3.52838,-4.89429 9.79659,-5.38814 15.1875,-5.21875 7.01325,-1.6964 10.69777,-10.42428 6.625,-16.53125 -6.56219,-13.63249 -21.56896,-21.14813 -35.6028,-24.55328 -4.60009,-0.94403 -9.21851,-1.30879 -13.92845,-1.19672 z"
       id="path4413"
       inkscape:connector-curvature="0" />
    <path
       style="fill:url(#linearGradient3078);fill-opacity:1;stroke:none"
       d="m 163.54126,223.63952 c 0,0 1.66123,-7.14197 1.42857,-8.57143 -2.12168,-13.03578 -33.39712,-57.33498 -37.14285,-69.99999 -5.42275,-18.3353 -15.71429,-110.00001 -10,-114.28572 18.57184,-13.31202 31.76316,13.4689 45.71428,5 1.98568,-2.68752 -1.17803,-30.89801 18.57143,-33.57143 13.21655,-1.78909 17.93378,22.81104 24.28572,22.14286 13.57188,-1.42767 18.25441,-28.37401 34.99999,-29.28571 13.19401,-0.71834 16.6898,29.20689 24.28572,28.57142 11.00198,-0.92041 20.32884,-25.52156 31.42857,-26.42857 7.86333,-0.64255 25.71428,11.42857 27.85714,17.85715 2.14286,6.42857 7.30677,67.07689 5.35715,80.35714 -1.50472,10.24967 -21.78572,58.21428 -21.78572,58.21428 0,0 -42.14286,59.28571 -41.42857,64.28571 0.71428,5 -103.57143,5.71429 -103.57143,5.71429 z"
       id="path4613"
       inkscape:connector-curvature="0"
       sodipodi:nodetypes="caaccssssssscsc" />
    <path
       sodipodi:nodetypes="cscssc"
       inkscape:connector-curvature="0"
       id="path4617"
       d="m 191.88714,52.73778 c -5.453,3.24892 -14.58477,27.96322 -11.13065,38.2863 3.44658,10.30055 13.37414,25.80844 18.39402,23.881 0,0 16.12142,-2.3512 18.78153,-5.70708 2.1364,-2.6952 -1.27063,-46.59255 -4.1739,-47.75605 -10.62544,-4.25821 -17.54621,-10.65352 -21.871,-8.70417 z"
       style="fill:#4d4d4d;stroke:none" />
    <path
       style="fill:#666666;stroke:none"
       d="m 174.42397,-0.27563 c -7.32125,4.36203 -15.74563,22.19956 -11.10809,36.05942 4.62741,13.82961 15.19404,59.2551 22.21619,57.57875 9.09742,-2.17177 30.60454,-11.88994 30.80021,-17.64707 C 216.69917,64.9205 202.19422,9.03003 199.16474,6.12201 196.13526,3.214 180.23048,-2.89284 174.42397,-0.27563 z"
       id="path4619"
       inkscape:connector-curvature="0"
       sodipodi:nodetypes="cssssc" />
    <path
       style="fill:#4d4d4d;stroke:none"
       d="m 149.79091,76.03874 c -4.09269,3.36383 -11.84447,21.00664 -12.06405,25.11428 -0.34131,6.38503 16.19872,29.11049 19.85282,28.16802 3.30066,-0.8513 15.29881,-4.06742 16.70149,-6.7198 3.10423,-5.86988 -5.11792,-37.36631 -8.5141,-38.9206 -2.6839,-1.22831 -12.65866,-9.69326 -15.97616,-7.64189 z"
       id="path4621"
       inkscape:connector-curvature="0"
       sodipodi:nodetypes="cssasc" />
    <path
       sodipodi:nodetypes="scssss"
       inkscape:connector-curvature="0"
       id="path4623"
       d="m 126.34445,19.73307 c -5.97708,3.85557 -10.73386,11.31583 -11.86898,19.93772 0.76536,9.07266 20.52495,71.31201 26.59174,69.45175 4.69963,-1.44103 31.09077,-9.35522 30.50996,-13.86347 -2.4883,-19.31412 -21.44114,-67.25461 -24.2525,-70.01691 -2.81137,-2.7623 -15.99444,-8.72522 -20.98022,-5.50909 z"
       style="fill:#666666;stroke:none" />
    <path
       style="fill:#4d4d4d;stroke:none"
       d="m 243.59271,42.28726 c -6.0129,1.42742 -18.20577,13.27092 -17.30641,24.2856 0.89738,10.99064 6.62707,43.19881 11.91249,42.9085 0,0 17.26454,0.885 20.61395,-1.51619 2.68999,-1.92846 3.06288,-52.55651 1.39968,-55.34514 -1.6632,-2.78863 -11.99829,-10.8609 -16.61971,-10.33277 z"
       id="path4625"
       inkscape:connector-curvature="0"
       sodipodi:nodetypes="cscssc" />
    <path
       sodipodi:nodetypes="cscssc"
       inkscape:connector-curvature="0"
       id="path4627"
       d="m 242.32354,-10.1551 c -8.07297,1.91646 -20.3745,16.46141 -19.16702,31.24983 1.20484,14.75613 0.76013,62.74595 7.85637,62.35617 0,0 27.24825,-2.20239 31.7452,-5.42625 3.61161,-2.58917 4.11226,-70.56283 1.87923,-74.30687 -2.23302,-3.74403 -16.10901,-14.58193 -22.31378,-13.87287 z"
       style="fill:#666666;stroke:none" />
    <path
       sodipodi:nodetypes="cscssc"
       inkscape:connector-curvature="0"
       id="path4629"
       d="m 289.45742,59.91045 c -6.13914,-0.0455 -17.05846,8.35374 -18.16918,19.34281 -1.1083,10.96508 -7.89121,45.84649 -2.6691,46.82978 0,0 20.1469,3.26154 23.85685,1.716 2.97955,-1.24126 12.49285,-50.671 11.36998,-53.79734 -1.12286,-3.12632 -9.77292,-13.49976 -14.38855,-14.09125 z"
       style="fill:#4d4d4d;stroke:none" />
    <path
       style="fill:#666666;stroke:none"
       d="m 308.90239,-6.94864 c -8.24246,-0.0611 -22.90285,11.21581 -24.39411,25.96983 -1.48801,14.72182 -10.59481,61.5539 -3.58356,62.87408 0,0 27.04942,4.37898 32.03042,2.30392 4.00037,-1.66653 16.77301,-68.03135 15.26544,-72.22879 -1.50756,-4.19743 -13.1212,-18.1249 -19.31819,-18.91904 z"
       id="path4631"
       inkscape:connector-curvature="0"
       sodipodi:nodetypes="cscssc" />
    <path
       style="fill:#808080;stroke:none"
       d="m 230.81986,221.16041 c 0,0 -11.75398,-53.12337 -5.46303,-78.63345 5.37291,-21.78739 35.18147,-53.50323 35.35534,-57.28898 0.25089,-5.46292 -1.38418,-21.37281 -7.50435,-29.44236 -4.90618,-6.46888 -19.84284,-10.38995 -21.10553,-12.15772 -1.26269,-1.76777 -10.73177,-28.24624 -1.91442,-28.9119 8.48169,-0.64032 39.25761,7.48154 49.16572,8.0707 6.45667,0.38393 20.86978,22.35692 24.29007,27.33103 7.94743,11.55793 15.84863,72.45307 17.6164,79.77668 1.76776,7.32361 -51.22499,95.05151 -54.50799,95.55659 -3.28299,0.50508 -31.63906,0.75018 -35.93221,-4.30059 z"
       id="path4633"
       inkscape:connector-curvature="0"
       sodipodi:nodetypes="casassssssc" />
    <g
       id="g5363"
       transform="translate(-122.85715,-125.71429)"
       style="opacity:0.19760479;fill:#0000ff;filter:url(#filter5387)">
      <path
         inkscape:connector-curvature="0"
         id="path4647"
         d="m 364.66071,122.77679 c -14.96905,4.06502 -17.44245,23.47241 -31.5,28.6875 -9.31605,0.5122 -13.18307,-9.64339 -16.21875,-16.625 -7.53859,-8.93826 -23.4709,-2.11434 -24.53125,8.78125 -2.44267,11.0177 -0.3537,22.40007 0.3125,33.53125 -14.27679,-10.38799 -29.25992,-24.25021 -48.28125,-22.59375 -4.67441,5.36696 -0.29405,12.83106 -1.31938,19.12311 1.70051,40.60863 2.88095,83.7007 23.09677,119.87013 9.70202,17.40933 20.45152,34.10022 28.81636,52.16301 19.1614,4.01697 38.6919,-1.01679 58.0292,0.0906 12.07677,-0.40274 24.22246,-1.07932 36.1583,-2.71561 20.16967,-38.81508 53.42266,-72.02925 61.05511,-116.48886 4.67747,-31.4403 4.93588,-65.89334 -10.71136,-94.32364 -9.08769,-9.82626 -27.43588,-6.76087 -32.55665,5.69151 -6.84647,8.48185 -14.46022,16.88413 -24.8496,21.02724 -0.66439,-13.06314 -2.45619,-29.53929 -15.46875,-36.15624 -0.66574,-0.1467 -1.35586,-0.11122 -2.03125,-0.0625 z"
         style="fill:#0000ff;stroke:none" />
      <path
         inkscape:connector-curvature="0"
         id="path4649"
         d="m 364.69196,122.37054 c -13.14182,4.97746 -17.44735,19.99346 -28.65625,27.34375 -8.36622,3.7017 -15.82244,-5.69555 -18.03125,-12.96875 -2.52736,-7.55843 -13.63089,-7.51675 -19.15625,-3 -8.86523,6.04458 -8.06579,18.08939 -7.09375,27.5 0.6604,4.84374 1.91286,9.56014 3.15625,14.28125 -16.43694,-7.98175 -31.45985,-22.81891 -51.03125,-20.875 -4.52017,5.19689 -0.0351,12.40291 -0.91589,18.46542 2.28005,37.39236 2.16685,76.49099 18.50964,110.94083 6.01244,6.50004 15.52915,1.8595 22.6763,0.45008 26.65286,-8.86885 54.12643,-14.59406 81.2612,-22.10633 27.50187,-7.13217 54.88345,-14.51793 81.8125,-23.5625 10.74025,-30.25323 4.35642,-63.05487 0.5,-93.96875 -3.96305,-12.31254 -18.44498,-22.86122 -31.21875,-16.8125 -12.63594,7.8361 -17.26793,23.21663 -28.21875,32.75 -6.73391,-13.35729 -8.35911,-30.95298 -22.53125,-39.125 l -0.83957,0.54325 -0.22293,0.14425 z"
         style="fill:#0000ff;stroke:none" />
      <path
         inkscape:connector-curvature="0"
         id="path4651"
         d="m 320.62946,181.90179 c -11.18979,2.93868 -13.55606,16.22626 -13.875,26.15625 -0.93084,13.3277 7.5958,29.48821 22,30.46875 9.99501,-0.20783 14.71163,-12.53052 11.5,-20.875 0.61485,-12.22688 -0.47596,-27.82659 -12.75,-34.125 -2.12309,-1.07049 -4.44461,-1.8657 -6.875,-1.625 z"
         style="fill:#0000ff;stroke:none" />
      <path
         inkscape:connector-curvature="0"
         id="path4653"
         d="m 305.09821,127.52679 c -15.21317,2.96057 -20.24258,22.32266 -14.875,35.28125 5.67741,17.41462 7.23794,37.66 20.53125,51.46875 15.22246,4.60692 32.24473,-12.85493 25.375,-27.78125 -5.24111,-19.00463 -4.72938,-41.82784 -20.34375,-56.03125 -3.11618,-2.07303 -6.89307,-3.23754 -10.6875,-2.9375 z"
         style="fill:#0000ff;stroke:none" />
      <path
         inkscape:connector-curvature="0"
         id="path4655"
         d="m 277.81696,206.68304 c -13.31,4.10123 -15.65612,22.08999 -9.20667,32.84556 4.50174,8.42126 14.50661,13.69562 24.05042,11.71694 9.03932,-12.58287 2.66447,-29.36749 -5.77114,-40.43702 -2.1382,-2.68966 -5.59587,-4.44721 -9.07261,-4.12548 z"
         style="fill:#0000ff;stroke:none" />
      <path
         inkscape:connector-curvature="0"
         id="path4657"
         d="m 259.50446,146.30804 c -6.73121,0.7068 -13.42988,4.43328 -16.25,10.9375 -6.35881,12.38885 2.37067,25.20916 5.84375,36.9375 3.45847,13.76597 8.84057,27.2435 17.4375,38.59375 9.19807,-3.50964 18.59724,-6.5398 27.40625,-10.90625 -6.96221,-26.77559 -11.87808,-56.77044 -33.125,-76.28125 l -0.8771,0.48031 -0.4354,0.23844 z"
         style="fill:#0000ff;stroke:none" />
      <path
         inkscape:connector-curvature="0"
         id="path4659"
         d="m 369.03571,171.18304 c -15.6793,4.32882 -20.53671,24.39903 -14.59375,38.0625 2.82908,8.45173 2.83838,20.66338 12.84375,24.28125 9.33529,3.45139 17.37052,-7.47092 15.53125,-16.09375 1.08842,-14.82654 4.07394,-32.87344 -7.3125,-44.625 -1.91163,-1.23872 -4.19005,-1.85427 -6.46875,-1.625 z"
         style="fill:#0000ff;stroke:none" />
      <path
         inkscape:connector-curvature="0"
         id="path4661"
         d="m 367.97321,118.96429 c -15.74285,4.22391 -21.5599,23.26428 -18.46875,37.8125 1.95917,16.78015 0.4525,34.06812 5.5625,50.34375 10.34755,-1.18531 20.79486,-1.68297 30.8125,-4.6875 2.17759,-24.48293 4.70297,-49.46608 -0.21875,-73.78125 -5.17388,-4.18044 -10.2033,-10.58441 -17.6875,-9.6875 z"
         style="fill:#0000ff;stroke:none" />
      <path
         inkscape:connector-curvature="0"
         id="path4665"
         d="m 431.47321,122.02679 c -15.25034,3.31044 -22.57199,20.19328 -23.3125,34.46875 -0.23619,16.38585 -5.24547,32.54868 -2.5,49.03125 10.12911,1.47609 20.20484,3.09541 30.46875,3.125 6.36534,-24.0385 15.33469,-48.46895 12.25,-73.71875 -4.10863,-5.56187 -8.80848,-13.55472 -16.90625,-12.90625 z"
         style="fill:#0000ff;stroke:none" />
      <path
         inkscape:connector-curvature="0"
         id="path4667"
         d="m 350.69196,145.99554 c 1.10347,11.75344 7.6931,23.69052 19.15625,27.90625 18.24328,8.32564 21.11363,34.23222 10.75,49.5625 -8.44266,9.79141 -18.77623,18.73328 -23.25,31.25 -11.94645,27.06564 -9.18876,58.7667 -0.1875,86.3125 5.32798,9.81712 18.85327,9.96768 28.375,7.375 12.19216,-4.92107 16.19489,-18.90747 23.65162,-28.61851 13.09361,-20.74133 27.4497,-41.78884 32.15947,-66.22479 0.57309,-23.36568 -6.41589,-45.99147 -12.09234,-68.37545 -6.5541,-19.05883 -22.41228,-36.40664 -43.32784,-38.45894 -11.84498,-2.24242 -23.95249,-2.47602 -35.95341,-3.41606 0.23958,0.89583 0.47917,1.79166 0.71875,2.6875 z"
         style="fill:#0000ff;stroke:none" />
    </g>
    <g
       id="g5413"
       style="fill:#8f8fec;fill-opacity:0.51999996;filter:url(#filter5431)"
       transform="translate(2,2)">
      <path
         style="font-size:232.21263123px;font-style:normal;font-variant:normal;font-weight:bold;font-stretch:normal;text-align:center;line-height:125%;letter-spacing:0px;word-spacing:0px;text-anchor:middle;fill:#8f8fec;fill-opacity:0.51999996;stroke:none;font-family:Liberation Sans;-inkscape-font-specification:Liberation Sans Bold"
         d="m 60.0625,205.34375 c -6.935432,0.47135 -17.316604,-2.21959 -20.5,6.1875 -3.666428,6.91668 0.508224,18.01935 9.125,17.59375 8.132915,1.68258 21.081063,0.005 22.25,-10.09375 0.787885,-6.32421 -3.941685,-14.02004 -10.875,-13.6875 z m 9.46875,45.4375 c -9.07451,2.16388 -20.281684,-3.16142 -27.65625,4.0625 -7.174863,10.58617 -1.346022,23.91007 -3.062174,35.71851 -0.392255,29.85595 -0.286076,60.47184 -0.06283,89.84399 4.270275,-5.61728 11.768029,-8.17356 18.5,-6.03125 6.871001,0.41188 14.979066,-5.0413 13.188588,-12.65625 0.05105,-37.06248 0.07348,-74.12498 0.06141,-111.1875 l -0.968277,0.24988 -4.73e-4,1.2e-4 z"
         id="path4635"
         inkscape:connector-curvature="0" />
      <path
         style="font-size:232.21263123px;font-style:normal;font-variant:normal;font-weight:bold;font-stretch:normal;text-align:center;line-height:125%;letter-spacing:0px;word-spacing:0px;text-anchor:middle;fill:#8f8fec;fill-opacity:0.51999996;stroke:none;font-family:Liberation Sans;-inkscape-font-specification:Liberation Sans Bold"
         d="m 135.3125,246.71875 c -5.63017,4.42254 -13.3183,6.50414 -20.28125,4.0625 -8.31469,-0.51499 -14.57255,8.20353 -12.30647,15.96758 1.13983,35.69764 -0.50234,72.1374 0.61897,107.40742 10.59739,-1.11645 21.77881,1.52242 31.875,-2.59375 0.79514,-30.27699 -5.61108,-62.65593 8.1875,-90.9375 11.71201,-7.04373 26.60854,-5.23196 39.03125,-5.125 -3.09633,-3.17502 -8.44125,-5.10836 -8.53125,-10.4375 -0.45053,-5.23228 0.81369,-12.0177 -5.15625,-14.6875 -10.86526,-5.46534 -22.09129,3.65094 -29.69455,10.66232 -3.54583,3.36576 -7.48811,6.35102 -11.3367,9.43143 1.89173,-8.4926 5.04008,-16.46058 8.5,-24.40625 l -0.80994,0.58651 -0.0963,0.0697 z"
         id="path4637"
         inkscape:connector-curvature="0" />
      <path
         style="font-size:232.21263123px;font-style:normal;font-variant:normal;font-weight:bold;font-stretch:normal;text-align:center;line-height:125%;letter-spacing:0px;word-spacing:0px;text-anchor:middle;fill:#8f8fec;fill-opacity:0.51999996;stroke:none;font-family:Liberation Sans;-inkscape-font-specification:Liberation Sans Bold"
         d="m 234.90625,248.40625 c -23.89259,0.7746 -45.73857,19.95423 -50.09375,43.34375 8.15291,-5.53236 18.5898,-7.72879 28.09375,-4.96875 8.17926,-0.73905 12.20378,-8.82374 16.75,-14.375 10.47953,-7.90529 28.46816,-0.70357 29.125,12.9375 2.04479,11.38875 -6.52773,21.6577 -15.65625,26.53125 1.8935,5.09483 8.23844,1.41464 11.90625,4.03125 6.56904,3.65132 5.48984,12.53663 2.4375,18.21875 -1.82147,6.50045 5.77419,12.29574 2.6875,18.96875 1.53491,3.13699 3.07264,9.63185 6.53125,12.90625 9.38335,10.94567 29.02729,14.7761 39.28125,3.25 3.39775,-7.17552 -3.53678,-14.71247 -10.3125,-16.1875 -8.92721,-6.90974 -5.26115,-19.66555 -5.31651,-29.34009 1.28464,-21.08971 3.1426,-45.46236 -11.80849,-62.40991 -11.43203,-11.25634 -28.31802,-13.23261 -43.625,-12.90625 z M 224.375,299.8125 c -22.37678,-0.29693 -43.73931,20.17965 -41.3125,43 1.72044,24.81027 32.02993,42.41725 54.3125,30.6875 8.74406,-3.77731 15.72726,-11.59832 21.25,-18.625 -4.95639,2.03993 -10.09231,-1.7218 -15.3125,-0.21875 -9.5601,0.67719 -22.76518,-1.17956 -25.875,-11.75 -3.65838,-11.86021 5.35772,-24.56728 16.65625,-27.625 2.29084,-2.52788 3.56406,-5.1193 1.8125,-8.1875 0.0469,-6.00157 -6.66128,-7.69816 -11.53125,-7.28125 z"
         id="path4639"
         inkscape:connector-curvature="0" />
      <path
         style="font-size:232.21263123px;font-style:normal;font-variant:normal;font-weight:bold;font-stretch:normal;text-align:center;line-height:125%;letter-spacing:0px;word-spacing:0px;text-anchor:middle;fill:#8f8fec;fill-opacity:0.51999996;stroke:none;font-family:Liberation Sans;-inkscape-font-specification:Liberation Sans Bold"
         d="m 372.0625,248.15625 c -32.59107,-0.75714 -60.33395,31.42927 -57.125,63.4375 -1.2632,25.40827 12.25214,53.37219 37.5,61.9375 28.10189,10.30495 64.99033,-3.37005 74.84375,-32.8125 0.43165,-7.50597 -9.25183,-11.1111 -15.34375,-8.90625 -10.30225,-2.19888 -18.05195,7.41477 -21.59375,15.84375 -10.07169,11.03171 -32.17876,7.79844 -36.40625,-7.25 -8.12695,-18.4521 -7.23992,-40.65699 0.9375,-58.90625 6.27998,-10.1293 21.73397,-14.98033 31.3125,-6.53125 7.21588,4.61024 11.00689,13.72352 13.59375,20.6875 3.52838,-4.89429 9.79659,-5.38814 15.1875,-5.21875 7.01325,-1.6964 10.69777,-10.42428 6.625,-16.53125 -6.56219,-13.63249 -21.56896,-21.14813 -35.6028,-24.55328 -4.60009,-0.94403 -9.21851,-1.30879 -13.92845,-1.19672 z"
         id="path4641"
         inkscape:connector-curvature="0" />
    </g>
  </g>
</svg>
