<?xml version="1.0" encoding="UTF-8" standalone="no"?>
<!-- Created with Inkscape (http://www.inkscape.org/) -->

<svg
   xmlns:dc="http://purl.org/dc/elements/1.1/"
   xmlns:cc="http://creativecommons.org/ns#"
   xmlns:rdf="http://www.w3.org/1999/02/22-rdf-syntax-ns#"
   xmlns:svg="http://www.w3.org/2000/svg"
   xmlns="http://www.w3.org/2000/svg"
   xmlns:sodipodi="http://sodipodi.sourceforge.net/DTD/sodipodi-0.dtd"
   xmlns:inkscape="http://www.inkscape.org/namespaces/inkscape"
   width="210mm"
   height="297mm"
   id="svg2"
   version="1.1"
   inkscape:version="0.48.3.1 r9886"
   sodipodi:docname="Neues Dokument 1">
  <defs
     id="defs4" />
  <sodipodi:namedview
     id="base"
     pagecolor="#ffffff"
     bordercolor="#666666"
     borderopacity="1.0"
     inkscape:pageopacity="0.0"
     inkscape:pageshadow="2"
     inkscape:zoom="0.98994949"
     inkscape:cx="409.30512"
     inkscape:cy="550.42195"
     inkscape:document-units="px"
     inkscape:current-layer="layer1"
     showgrid="false"
     inkscape:window-width="1022"
     inkscape:window-height="578"
     inkscape:window-x="0"
     inkscape:window-y="20"
     inkscape:window-maximized="0" />
  <metadata
     id="metadata7">
    <rdf:RDF>
      <cc:Work
         rdf:about="">
        <dc:format>image/svg+xml</dc:format>
        <dc:type
           rdf:resource="http://purl.org/dc/dcmitype/StillImage" />
        <dc:title></dc:title>
      </cc:Work>
    </rdf:RDF>
  </metadata>
  <g
     inkscape:label="Ebene 1"
     inkscape:groupmode="layer"
     id="layer1">
    <g
       id="g4067">
      <rect
         y="292.36218"
         x="91.428574"
         height="380"
         width="537.14288"
         id="rect2985"
         style="fill:#00ffff;fill-opacity:1;fill-rule:nonzero;stroke:none" />
      <path
         inkscape:connector-curvature="0"
         d="m 96.414786,332.66919 c -7.704657,6.29164 -16.671331,10.88943 -25.616362,15.18297 -4.258948,1.33308 -6.273496,0.3987 -7.254035,-3.891 -0.532711,-3.86213 0.805326,-7.18128 2.55885,-10.53021 2.123707,-4.28908 5.404272,-7.64371 8.832687,-10.89022 3.543241,-3.63036 7.721939,-6.4986 11.787617,-9.49232 4.879747,-3.40311 8.753359,-7.89218 12.606602,-12.3626 2.483105,-2.93643 5.335975,-5.52552 7.901035,-8.38426 1.42963,-1.52252 2.02741,-3.41957 2.26941,-5.4463 0.10433,-1.59662 0.20237,-3.2002 0.18938,-4.80137 -0.0105,-1.29523 0.006,-0.67056 -0.0436,-1.87411 0,0 13.07784,-6.67561 13.07784,-6.67561 l 0,0 c -0.0308,1.23412 -0.0243,0.59895 -0.0162,1.90557 0.009,1.64898 0.21527,3.29593 -0.004,4.94135 -0.33428,2.21962 -0.73345,4.53763 -2.1566,6.34592 -2.75442,3.1024 -6.00956,5.68891 -8.81393,8.74939 -3.80131,4.33739 -7.34198,8.94407 -11.990974,12.44341 -4.126316,2.99313 -8.48765,5.71702 -12.051369,9.40581 -3.300581,3.14648 -6.715268,6.26504 -8.81115,10.39399 -1.607325,2.96701 -2.989913,5.96717 -2.64092,9.43226 0.819661,3.42143 2.054175,3.21329 5.266019,2.1993 4.104297,-1.94039 13.901194,-7.32194 -3.515666,2.48363 -1.371511,0.77215 2.662103,-1.6958 3.871638,-2.70292 0.280076,-0.2332 0.53762,-0.49221 0.80643,-0.73832 0,0 13.747408,-5.69436 13.747408,-5.69436 z"
         id="path3773"
         style="fill:#1a1a1a;fill-opacity:1;fill-rule:nonzero;stroke:none" />
      <path
         inkscape:connector-curvature="0"
         d="m 129.81751,276.96836 c -0.45486,4.31351 -0.50235,8.66339 -0.34932,12.99476 0.0966,2.40296 0.33761,4.8063 0.29491,7.21245 0.0159,1.35862 0.0564,2.71614 0.10955,4.07347 0.15374,0.5089 0.56041,1.09403 0.79843,1.52985 0,0 -12.55788,7.38172 -12.55788,7.38172 l 0,0 c -0.56801,-0.66265 -1.29317,-1.27583 -1.50863,-2.15114 0.0526,-1.39458 0.0934,-2.78933 0.10955,-4.18512 -0.0453,-2.50599 0.2062,-5.0098 0.29491,-7.51297 0.14364,-4.21186 0.13352,-8.44725 -0.34932,-12.63879 0,0 13.1578,-6.70423 13.1578,-6.70423 z"
         id="path3807"
         style="fill:#b3b3b3;fill-opacity:1;fill-rule:nonzero;stroke:none" />
      <rect
         y="338.18433"
         x="144.45183"
         height="294.96454"
         width="430.32498"
         id="rect3996"
         style="fill:#ffff00;fill-opacity:1;fill-rule:nonzero;stroke:none" />
      <g
         id="g3825">
        <path
           style="fill:none;stroke:#000000;stroke-width:0.89999998;stroke-linecap:butt;stroke-linejoin:miter;stroke-miterlimit:4;stroke-opacity:1;stroke-dasharray:none"
           d="m 69.700526,306.8696 c 1.34687,1.34687 2.69374,2.69374 4.04061,4.04061 1.010152,0.33672 2.178622,0.37128 3.030457,1.01016 0.602339,0.45175 0.477756,1.4879 1.010153,2.0203 1.218976,1.21898 3.45653,2.23334 5.050763,3.03046 3.35559,1.67779 6.288796,3.19334 10.101525,4.04061 0.986098,0.21913 2.020305,0 3.030458,0 2.69374,0 5.387478,0 8.081218,0 1.01015,0 2.03992,-0.19811 3.03046,0 0.7383,0.14766 1.28986,0.82754 2.0203,1.01015 0.65333,0.16333 1.34687,0 2.02031,0 1.01015,0 2.02031,0 3.03046,0"
           id="path3757"
           inkscape:connector-curvature="0" />
        <path
           style="fill:#1a1a1a;fill-opacity:1;fill-rule:nonzero;stroke:none"
           id="path3759"
           d="m 95.233797,318.21227 c 2.134281,2.93461 4.13164,5.97386 6.402843,8.80382 5.84962,7.28876 14.06267,16.11514 20.50124,22.80366 8.46297,8.79152 17.25315,17.26285 26.12345,25.63907 4.35789,3.57188 8.9651,7.09696 14.78573,7.59468 3.02376,0.25856 5.63128,-0.76516 8.31516,-1.94883 0.58186,-0.33808 1.16373,-0.67615 1.74559,-1.01423 0,0 -11.03238,8.84528 -11.03238,8.84528 l 0,0 c -0.54795,0.24285 -1.0959,0.4857 -1.64384,0.72855 -2.70597,0.84007 -5.30671,1.51014 -8.16106,0.75065 -5.37119,-1.42918 -9.06253,-5.77513 -12.59485,-9.74045 -10.8223,-13.45475 -21.88815,-26.71479 -34.41595,-38.64615 -3.70169,-3.52546 -7.468494,-6.99725 -11.46114,-10.18947 -3.082889,-2.46484 -6.485263,-4.50111 -9.727894,-6.75166 0,0 11.163101,-6.87492 11.163101,-6.87492 z"
           inkscape:connector-curvature="0" />
        <path
           style="fill:#1a1a1a;fill-opacity:1;fill-rule:nonzero;stroke:none"
           id="path3761"
           d="m 141.62563,279.93964 c 5.66027,0.0382 11.352,1.1034 16.1853,4.28097 1.87417,1.23214 3.44466,2.87352 5.16699,4.31028 1.4179,2.37423 3.0891,4.61448 4.25369,7.12269 3.32251,7.15579 5.57142,16.59145 1.77056,24.11812 -2.81237,5.56919 -7.16578,7.94994 -11.92656,11.50988 -12.33382,7.79061 -25.40178,14.45239 -39.85156,16.98136 -2.87088,0.5335 -5.93418,0.0512 -8.7584,0.90512 -1.49296,0.45139 -2.29158,1.08026 -3.62372,1.90639 17.47089,-10.46104 9.16101,-5.41872 5.82951,-1.34294 -1.20659,1.47615 -2.24229,3.1009 -3.26063,4.70894 -1.39603,2.15339 -1.82396,4.62624 -1.91658,7.14341 0.0254,1.62199 0.0775,3.19728 -0.39771,4.76272 -1.19245,2.15778 -1.91312,4.45888 -2.52135,6.83908 -0.40136,1.71671 -0.22794,0.89245 -0.52961,2.47077 0,0 -13.08137,6.30175 -13.08137,6.30175 l 0,0 c 0.432695,-1.66069 0.21157,-0.79626 0.661459,-2.59378 0.639322,-2.30525 0.88453,-4.74021 2.049811,-6.84651 0.81675,-1.35881 0.732774,-2.85029 0.776333,-4.39372 0.244836,-2.73452 0.456018,-5.5409 1.876704,-7.96599 6.854853,-9.6738 8.475923,-10.79258 21.339723,-17.82488 1.86388,-0.94101 2.18529,-1.27096 4.15976,-1.67727 2.71644,-0.55898 5.55524,-0.0443 8.27909,-0.56594 5.22402,-0.7406 10.28428,-1.97371 15.21674,-3.89378 2.06045,-0.80208 3.95212,-2.07152 6.09444,-2.61855 0.9219,-0.2354 -1.54997,1.10402 -2.32495,1.65603 4.63671,-3.26949 8.9986,-5.54321 11.90825,-10.70647 4.11744,-7.30654 2.6864,-16.36422 -1.12325,-23.39475 -1.26519,-2.33485 -3.15835,-4.27009 -4.73753,-6.40513 -1.76992,-1.28448 -3.38779,-2.81009 -5.30975,-3.85344 -5.36324,-2.91151 -12.20235,-3.563 -18.01078,-1.7628 0,0 11.80539,-9.17156 11.80539,-9.17156 z"
           inkscape:connector-curvature="0" />
        <path
           style="fill:#1a1a1a;fill-opacity:1;fill-rule:nonzero;stroke:none"
           id="path3763"
           d="m 94.961291,369.27508 c 5.584509,0.40535 11.165739,0.16389 16.743519,0.71881 1.00907,0.17772 3.90661,0.48879 4.7699,1.37945 1.6744,1.7275 2.1935,5.22775 2.54368,7.31832 0.39209,2.34082 0.90766,7.70239 1.15174,10.0689 0.48526,5.96536 1.33977,11.91175 1.36838,17.90412 0.25865,2.02151 -0.2474,4.27282 0.31149,6.26366 0,0 -13.11357,7.10737 -13.11357,7.10737 l 0,0 c -0.54086,-2.1422 0.62096,-4.78054 0.25527,-6.9871 0.0993,-6.16704 0.66896,-12.33565 0.10577,-18.50175 -0.41141,-3.96726 -0.90808,-12.59863 -4.25559,-15.40877 -0.90452,-0.75932 -3.26627,-1.04524 -4.25798,-1.23572 -5.762922,-0.6022 -11.585135,-0.46106 -17.362015,-0.0981 0,0 11.739406,-8.52918 11.739406,-8.52918 z"
           inkscape:connector-curvature="0" />
        <path
           style="fill:#1a1a1a;fill-opacity:1;fill-rule:nonzero;stroke:none"
           id="path3765"
           d="m 201.56307,286.3483 c 0.97427,0.0392 2.44619,0.28804 3.02053,1.22707 1.49249,2.44017 1.33925,6.1884 1.55949,8.88599 -0.0459,1.40996 0.0958,2.8386 -0.13756,4.22988 -1.43142,8.535 -7.56357,17.56652 -12.44442,24.60629 -2.44359,3.61472 -5.87942,6.54416 -7.67493,10.56924 -0.20888,0.66891 -0.53017,1.41967 -0.40057,2.15106 0.44105,2.48904 5.45931,6.23321 7.06617,7.66652 7.65629,5.9269 15.81965,11.83557 25.17256,14.71511 1.67081,0.21354 0.99898,0.32912 2.045,0.0191 0,0 -12.17586,8.58181 -12.17586,8.58181 l 0,0 c -0.68399,-0.54857 -0.24902,-0.21349 -1.33111,-0.97029 -8.31554,-4.91502 -16.20897,-10.49899 -24.44332,-15.54858 -2.86179,-1.7721 -9.57194,-5.05603 -9.37784,-9.3475 0.0191,-0.42153 0.21129,-0.81705 0.31693,-1.22557 1.89214,-4.7097 6.05951,-7.71462 9.17352,-11.59173 5.34343,-6.77904 11.47497,-14.90655 12.4978,-23.74552 0.15088,-1.30385 -0.023,-2.625 -0.0345,-3.9375 -0.35564,-2.04781 -0.48966,-5.47773 -2.06007,-7.16087 -0.65102,-0.69774 -1.97387,-0.40606 -2.77079,-0.40675 0,0 11.99894,-8.71773 11.99894,-8.71773 z"
           inkscape:connector-curvature="0" />
        <path
           style="fill:#1a1a1a;fill-opacity:1;fill-rule:nonzero;stroke:none"
           id="path3767"
           d="m 177.33981,376.94129 c 3.39084,5.15192 7.73307,9.63838 11.69885,14.35333 3.97673,4.3937 4.36228,8.6956 2.89639,14.1864 -0.60005,2.52822 -2.11249,4.23783 -4.13456,5.75228 -0.83811,0.54853 -1.66079,1.11408 -2.12325,2.02241 0,0 -13.60102,6.30359 -13.60102,6.30359 l 0,0 c 0.39221,-1.24043 0.9781,-2.25534 2.0862,-2.99939 2.2888,-1.3251 3.91656,-2.52575 4.96066,-5.05673 2.07481,-5.23239 1.9809,-8.72714 -1.4278,-13.43713 -3.75607,-5.05864 -7.96518,-9.62563 -13.1202,-13.30253 0,0 12.76473,-7.82223 12.76473,-7.82223 z"
           inkscape:connector-curvature="0" />
        <path
           style="fill:#1a1a1a;fill-opacity:1;fill-rule:nonzero;stroke:none"
           id="path3769"
           d="m 144.94398,413.54244 c 1.00685,-6.9031 0.86106,-13.92516 0.64066,-20.88008 -0.34383,-4.7624 -0.22829,-9.48928 1.15217,-14.078 1.10303,-3.23102 2.70458,-6.18658 4.55366,-9.03714 2.11584,-2.75076 3.33392,-4.68235 4.24581,-8.0775 0.41203,-3.50674 -0.15357,-7.26693 -1.95945,-10.34012 -0.6568,-1.02766 -1.52218,-1.47975 -2.68759,-1.61934 0,0 12.26025,-8.39503 12.26025,-8.39503 l 0,0 c 1.34351,0.58161 2.36367,1.47983 3.00345,2.82818 1.63787,3.52096 1.89844,7.54836 2.11333,11.37592 -0.5586,3.41224 -1.45933,5.96648 -3.90482,8.49564 -1.84699,2.79771 -3.58048,5.60624 -4.80169,8.74918 -1.67972,4.53604 -2.23073,9.20947 -2.09864,14.04684 -0.20667,6.73247 -0.42666,13.55571 0.64066,20.22722 0,0 -13.1578,6.70423 -13.1578,6.70423 z"
           inkscape:connector-curvature="0" />
        <path
           style="fill:#1a1a1a;fill-opacity:1;fill-rule:nonzero;stroke:none"
           id="path3771"
           d="m 130.7589,287.18015 c -1.22053,3.29655 -2.73714,6.46366 -3.90459,9.78355 -1.01167,2.58222 -2.02764,5.14339 -2.809,7.80609 -0.8533,2.61905 -1.21356,5.33477 -1.41782,8.06958 -0.0771,2.43372 -0.0775,4.87835 0.0905,7.3089 0.008,0.65997 0.0522,1.31848 0.11565,1.97513 0,0 -13.34319,6.81017 -13.34319,6.81017 l 0,0 c 0.0523,-0.69647 0.091,-1.39409 0.0962,-2.09274 0.15691,-2.52731 0.1965,-5.06131 0.30718,-7.59076 0.0625,-2.81573 0.12105,-5.61974 1.0971,-8.30272 0.83382,-2.69931 1.66563,-5.36219 2.86989,-7.93206 1.20336,-3.11936 2.70271,-6.1333 3.6361,-9.35144 0,0 13.26194,-6.4837 13.26194,-6.4837 z"
           inkscape:connector-curvature="0" />
        <path
           style="fill:#1a1a1a;fill-opacity:1;fill-rule:nonzero;stroke:none"
           id="path3775"
           d="m 101.46308,346.93859 c 2.45682,0.2409 4.93525,0.16691 7.39883,0.0775 0.34664,0.68407 0.8446,1.31061 1.03994,2.05219 0.30212,1.14696 0.48455,6.09174 0.53072,7.01305 0.1747,3.48614 0.38814,6.9611 0.66285,10.44065 0,0 -12.0742,6.19466 -12.0742,6.19466 l 0,0 c 0.110499,-5.29308 0.394147,-11.48245 -1.551616,-16.49394 -0.09074,-0.2337 -0.296851,-0.40407 -0.445277,-0.6061 -2.535459,-0.10227 -5.081485,-0.13985 -7.61208,0.0775 0,0 12.050833,-8.75545 12.050833,-8.75545 z"
           inkscape:connector-curvature="0" />
        <path
           style="fill:#1a1a1a;fill-opacity:1;fill-rule:nonzero;stroke:none"
           id="path3777"
           d="m 91.786769,379.17301 c 12.101501,-2.34191 24.327061,-5.42064 35.576061,-10.5804 3.35996,-1.54117 6.55018,-3.42834 9.82526,-5.1425 0.54518,-0.49479 1.04931,-1.03897 1.63552,-1.48438 7.26279,-5.51843 7.83343,-5.16168 14.06973,-11.17629 3.08335,-2.97374 5.61866,-5.9577 7.87405,-9.57936 0.84396,-1.35522 1.48626,-2.82607 2.22939,-4.2391 2.7007,-5.99839 3.11363,-12.42575 2.86802,-18.88488 -0.0772,-3.42473 -0.38894,-6.8445 -1.44703,-10.11417 -0.95021,-2.51845 -1.61827,-5.12129 -2.34488,-7.71001 -0.6637,-2.11032 -1.23391,-4.24803 -1.87884,-6.36416 -0.138,-0.76652 -0.0985,-0.32111 -0.0289,-1.34116 0,0 13.50386,-6.21501 13.50386,-6.21501 l 0,0 c -0.49222,0.19 -0.36884,0.0106 -0.33697,0.55959 0.15532,2.22318 0.58386,4.41587 1.183,6.56132 0.80557,2.56064 1.99464,4.99051 2.62555,7.60304 0.75403,3.48668 1.17296,7.07398 1.2529,10.63655 -0.24194,6.87927 -1.31991,13.79521 -4.00765,20.16888 -2.49439,4.37151 -2.92965,5.60073 -6.4158,9.58177 -10.40211,11.87875 -24.54869,19.72401 -37.88674,27.70248 -3.44327,1.80465 -6.80006,3.78493 -10.32982,5.41395 -3.16989,1.46293 -6.46165,2.65049 -9.74074,3.84878 -9.82545,3.59052 -19.929286,6.37022 -29.918942,9.44978 0,0 11.692941,-8.69472 11.692941,-8.69472 z"
           inkscape:connector-curvature="0" />
        <path
           style="fill:#1a1a1a;fill-opacity:1;fill-rule:nonzero;stroke:none"
           id="path3779"
           d="m 192.57357,282.65098 c 0.69638,3.92376 2.19375,7.6293 3.49091,11.37729 0.028,0.5611 0.37284,1.20142 0.084,1.68331 -0.60304,1.00623 -1.53432,1.83701 -2.54782,2.42776 -5.15681,3.00581 -10.44734,5.79821 -15.86455,8.30449 -1.83151,0.84734 -3.86655,1.15748 -5.8044,1.72064 -6.32854,1.83916 -6.17845,1.76515 -12.46161,3.45354 -4.98056,1.24409 -9.92174,2.62956 -14.8475,4.07233 -1.28589,0.37664 -2.59748,0.67457 -3.85781,1.12952 -3.98702,1.43922 -5.87263,2.61786 -9.75173,4.64972 1.27576,-0.72909 5.00783,-3.06217 3.82728,-2.18728 -1.95116,1.446 -4.12392,2.56733 -6.14899,3.90788 -5.92114,3.91965 -11.51784,8.19193 -16.8445,12.87937 -1.45768,1.29962 -2.83178,2.6851 -4.16565,4.10943 0,0 -13.306195,5.4977 -13.306195,5.4977 l 0,0 c 1.760223,-1.61998 3.550238,-3.20692 5.40012,-4.72484 12.572085,-10.25797 26.072475,-19.26583 40.431065,-26.86665 4.19745,-2.214 6.54695,-3.66603 10.91194,-5.23152 1.20764,-0.43311 2.47374,-0.68183 3.71472,-1.00735 4.65891,-1.22208 9.35799,-2.2793 14.03384,-3.43299 5.0652,-1.31199 7.30321,-1.81163 12.36724,-3.46656 2.11501,-0.69119 6.56178,-4.43781 6.29204,-2.22914 -0.31883,2.61068 -4.51565,2.73068 -6.55597,4.39031 -0.89513,0.72811 4.0738,-1.1118 2.62281,-2.25905 -0.96673,-3.77092 -2.13206,-7.51936 -3.94696,-10.97875 0,0 12.92767,-7.21916 12.92767,-7.21916 z"
           inkscape:connector-curvature="0" />
        <path
           style="fill:#1a1a1a;fill-opacity:1;fill-rule:nonzero;stroke:none"
           id="path3781"
           d="m 92.531193,351.10333 c 0.563517,3.10412 0.911622,6.23301 1.196633,9.37503 0.158112,4.19113 0.182696,8.38407 0.339044,12.57547 0,0 -12.385582,6.32809 -12.385582,6.32809 l 0,0 c 0.06011,-4.13767 0.01716,-8.27968 -0.426105,-12.39918 -0.292652,-2.95493 -0.647787,-5.90825 -1.81878,-8.66754 0,0 13.09479,-7.21187 13.09479,-7.21187 z"
           inkscape:connector-curvature="0" />
        <path
           style="fill:#1a1a1a;fill-opacity:1;fill-rule:nonzero;stroke:none"
           id="path3783"
           d="m 87.846979,402.91778 c 3.449018,5.03933 6.876508,10.13551 10.799507,14.82411 1.726434,1.82174 3.290964,3.90297 5.687524,4.83225 0.84,0.15151 1.38774,0.66187 1.82984,1.34954 0,0 -12.894639,7.54802 -12.894639,7.54802 l 0,0 c -0.302281,-0.41255 -0.841557,-0.53574 -1.251244,-0.81118 -2.291254,-1.45421 -3.745679,-3.63348 -5.212388,-5.88102 -3.449994,-5.00026 -6.509335,-10.44002 -11.336507,-14.27653 0,0 12.377907,-7.58519 12.377907,-7.58519 z"
           inkscape:connector-curvature="0" />
        <path
           style="fill:#1a1a1a;fill-opacity:1;fill-rule:nonzero;stroke:none"
           id="path3785"
           d="m 242.03019,289.69416 c -0.0795,0.33358 -0.0795,0.6969 -0.23847,1.00075 -1.30263,2.48987 -3.72686,4.50609 -5.6007,6.53424 -2.55876,2.76946 -1.98828,2.15406 -4.30611,4.91724 -2.24491,3.12869 -5.05029,5.67237 -7.9162,8.19926 -6.01678,5.31838 -13.20116,10.16288 -21.24053,11.29522 -4.83915,-0.0876 -5.70891,-1.84968 -6.8751,-6.35207 -0.55575,-2.1456 -1.17938,-5.82423 -1.57585,-8.01879 0,0 11.51475,-6.11916 11.51475,-6.11916 l 0,0 c 0.55722,3.3324 1.12273,9.85051 4.58056,11.65125 1.29031,0.67195 2.24074,0.41382 3.61084,0.32528 1.48251,-0.36945 2.13433,-0.46658 3.50603,-1.03931 0.53982,-0.22539 2.08203,-1.06353 1.58146,-0.76081 -19.56924,11.83456 -12.002,7.72802 -8.39636,4.42624 3.04529,-2.67647 6.29869,-5.1079 8.8061,-8.34751 3.08352,-3.61711 6.49675,-7.03374 9.22029,-10.92022 0,0 13.32929,-6.79161 13.32929,-6.79161 z"
           inkscape:connector-curvature="0" />
        <path
           style="fill:#4d4d4d;fill-opacity:1;fill-rule:nonzero;stroke:none"
           id="path3787"
           d="m 225.14557,299.73768 c 4.07771,5.19016 8.03129,10.40389 11.10458,16.26005 1.54307,3.11191 3.17167,6.17481 4.43631,9.4129 0.0627,0.16872 0.1254,0.33744 0.1881,0.50617 0,0 -13.09607,7.04949 -13.09607,7.04949 l 0,0 c -0.0158,-0.1732 -0.0316,-0.3464 -0.0474,-0.51959 -0.52095,-3.41109 -1.8214,-6.64987 -3.14739,-9.81492 -2.75165,-5.96836 -6.4425,-11.41829 -11.89337,-15.2615 0,0 12.45527,-7.6326 12.45527,-7.6326 z"
           inkscape:connector-curvature="0" />
        <path
           style="fill:#4d4d4d;fill-opacity:1;fill-rule:nonzero;stroke:none"
           id="path3789"
           d="m 183.44134,279.59263 c -0.33748,2.86532 -0.32,5.76872 -0.31299,8.65126 -0.0442,3.75277 -0.17772,7.4818 0.22518,11.21844 0.28907,3.14581 0.53458,6.29614 0.82867,9.4414 0.14711,2.40237 -0.65588,4.82873 -1.48866,7.06404 -0.0387,0.085 -0.7539,1.80796 -0.80515,1.81903 -0.37634,0.0813 -0.14796,-0.27278 -0.12599,-0.3177 2.43685,1.14788 4.95757,2.01711 7.51022,2.86253 1.73491,0.48764 3.50566,0.79214 5.25515,1.22084 0,0 -11.74449,8.09117 -11.74449,8.09117 l 0,0 c -1.75927,-0.47106 -3.53673,-0.84302 -5.30361,-1.28475 -2.81245,-0.85153 -5.5864,-1.8579 -8.28819,-3.00292 -1.76718,-1.83542 -0.83515,-1.5429 0.1996,-3.31334 1.0772,-1.97484 1.84527,-4.22526 1.86973,-6.48758 0.0273,-3.18458 -0.14616,-6.3716 -0.48569,-9.53792 -0.28773,-3.76173 -0.37106,-7.52762 -0.35008,-11.30058 0.007,-2.77512 0.0393,-5.57695 -0.31299,-8.33231 0,0 13.32929,-6.79161 13.32929,-6.79161 z"
           inkscape:connector-curvature="0" />
        <path
           style="fill:#4d4d4d;fill-opacity:1;fill-rule:nonzero;stroke:none"
           id="path3791"
           d="m 149.86815,361.3928 c -0.89799,-3.38477 -1.12986,-6.87097 -1.3028,-10.354 -0.21149,-4.66439 -0.13304,-9.33202 -0.27143,-13.99886 -0.36013,-2.60454 0.674,-6.84963 -0.70707,-9.14801 -0.47838,-0.79613 -1.15603,-1.45406 -1.73404,-2.18109 -5.4273,-4.723 -12.01355,-8.14226 -19.02389,-9.82733 -1.27099,-0.30551 -2.57324,-0.46202 -3.85986,-0.69302 -5.14962,-0.48025 -10.22157,0.3689 -15.21277,1.52702 0,0 11.56099,-8.73634 11.56099,-8.73634 l 0,0 c 4.75954,-0.6839 9.61063,-0.8409 14.39008,-0.25943 3.43757,0.82178 4.45175,0.9519 7.8402,2.24506 5.64438,2.15412 10.81254,5.39393 15.82331,8.71986 0.86485,0.7794 1.87486,1.42306 2.59455,2.3382 1.64053,2.08607 0.62923,7.09661 0.8205,9.64639 -0.11275,4.64683 -0.0455,9.29164 0.21,13.93355 0.25446,3.23074 0.44562,6.57358 1.7999,9.56885 0,0 -12.92767,7.21915 -12.92767,7.21915 z"
           inkscape:connector-curvature="0" />
        <path
           style="fill:#4d4d4d;fill-opacity:1;fill-rule:nonzero;stroke:none"
           id="path3793"
           d="m 89.171109,340.48518 c -3.851073,-0.1562 -5.426562,0.1789 -8.079185,-2.97647 -0.78987,-1.29669 -0.747962,-2.82125 0.716836,-3.70191 8.955791,-5.38431 10.116533,-7.30401 17.328343,-8.4126 4.221377,-0.64943 8.443657,-0.40447 12.674337,-0.0707 5.37121,0.63303 10.71341,1.4789 16.08696,2.09174 1.72069,0.19018 3.447,0.30133 5.17616,0.36955 0,0 -11.94385,8.52521 -11.94385,8.52521 l 0,0 c -1.58179,-0.20814 -3.1526,-0.49527 -4.71823,-0.80119 -5.24029,-0.94235 -10.47655,-1.90593 -15.80959,-2.14534 -4.259348,-0.1839 -8.5434,-0.17224 -12.757005,0.56947 -0.608983,0.14303 -1.226755,0.25277 -1.826948,0.42908 -0.564023,0.16568 -2.156161,0.91063 -1.660073,0.59524 3.554184,-2.25957 7.290049,-4.22261 10.865849,-6.44781 0.0246,-0.0153 -1.720373,0.53499 -1.850878,0.80528 -0.107159,0.22193 0.09318,0.48401 0.139774,0.72602 2.161378,2.55205 4.484978,1.95493 7.552621,1.80208 0,0 -11.895121,8.64231 -11.895121,8.64231 z"
           inkscape:connector-curvature="0" />
        <path
           style="fill:#4d4d4d;fill-opacity:1;fill-rule:nonzero;stroke:none"
           id="path3795"
           d="m 160.21714,281.01322 c -4.37855,3.60639 -8.97361,6.94704 -13.55949,10.28392 -6.57363,5.27066 -13.85174,9.01099 -21.21042,13.21601 -4.57508,1.86132 -12.70649,6.27651 7.38512,-4.56271 0.46382,-0.25023 -0.87309,0.60205 -1.24165,0.97875 -1.18077,1.20684 -1.21655,1.73845 -1.90111,3.33252 -0.0974,0.81023 -0.2834,1.61469 -0.29207,2.43071 -0.0595,5.60137 2.68727,12.68582 4.7274,17.85887 0.971,2.30245 2.26694,4.4269 3.60999,6.52262 0,0 -12.21254,7.02552 -12.21254,7.02552 l 0,0 c -1.12069,-2.32756 -2.08533,-4.71168 -2.92675,-7.15693 -0.8319,-2.48118 -1.61655,-4.97814 -2.46085,-7.45512 -1.46876,-4.30898 -3.33084,-8.62352 -3.11504,-13.27509 0.35987,-1.46294 0.48929,-2.62249 1.35439,-3.88477 0.325,-0.47422 0.71362,-0.93411 1.20289,-1.23597 5.66216,-3.49321 11.05826,-6.83857 17.02045,-9.52599 -22.12163,12.94494 -7.22955,4.46025 -2.61875,0.73213 4.30025,-2.95616 8.59637,-5.97625 12.4072,-9.55539 0,0 13.83123,-5.72908 13.83123,-5.72908 z"
           inkscape:connector-curvature="0" />
        <path
           style="fill:#4d4d4d;fill-opacity:1;fill-rule:nonzero;stroke:none"
           id="path3797"
           d="m 104.3234,365.739 c -4.846244,-0.33745 -9.707897,-0.34639 -14.563535,-0.36246 -4.114333,0.11936 -8.18387,0.74366 -12.2671,1.19787 -0.896979,-0.0642 -1.60726,0.27343 -2.382923,0.64753 0,0 11.702719,-9.07939 11.702719,-9.07939 l 0,0 c 0.790585,-0.13861 1.583877,-0.19703 2.386627,-0.22712 3.815972,-0.21919 7.636248,-0.38877 11.458022,-0.45628 5.18849,-0.017 10.38065,-0.0464 15.56131,-0.36246 0,0 -11.89512,8.64231 -11.89512,8.64231 z"
           inkscape:connector-curvature="0" />
        <path
           style="fill:#4d4d4d;fill-opacity:1;fill-rule:nonzero;stroke:none"
           id="path3799"
           d="m 102.65701,385.85835 c 1.70501,1.19277 3.07699,2.43166 4.00091,4.32431 0.67125,1.38456 1.22398,2.81558 1.76248,4.25566 0.0347,0.0334 0.0694,0.0669 0.10407,0.10031 0,0 -12.918092,7.54038 -12.918092,7.54038 l 0,0 c -0.09735,-0.17205 -0.194702,-0.3441 -0.292053,-0.51615 -0.252864,-1.45138 -0.722396,-2.84452 -1.407162,-4.15235 -0.753032,-1.63238 -2.01335,-2.67513 -3.668535,-3.38131 0,0 12.418382,-8.17085 12.418382,-8.17085 z"
           inkscape:connector-curvature="0" />
        <path
           style="fill:#4d4d4d;fill-opacity:1;fill-rule:nonzero;stroke:none"
           id="path3801"
           d="m 83.238931,428.09076 c 0.09891,-3.35531 0.873657,-6.60398 1.721681,-9.83667 1.009653,-4.07532 2.666897,-7.93432 4.664452,-11.61306 1.038684,-2.04876 2.161867,-4.00883 3.545687,-5.84138 0,0 13.189149,-5.62179 13.189149,-5.62179 l 0,0 c -1.54559,1.7629 -2.89195,3.62454 -3.93358,5.73942 -2.05465,3.60015 -3.693866,7.40675 -4.933068,11.36471 -0.836149,2.96631 -1.468956,5.93348 -0.92503,9.01716 0,0 -13.329291,6.79161 -13.329291,6.79161 z"
           inkscape:connector-curvature="0" />
        <path
           style="fill:#4d4d4d;fill-opacity:1;fill-rule:nonzero;stroke:none"
           id="path3803"
           d="m 74.176141,382.4985 c 0.33694,-3.27561 0.236036,-6.55857 0.695722,-9.82503 0.852895,-4.11173 2.584743,-7.97362 4.161054,-11.84679 0.951441,-2.32001 1.49134,-4.76178 1.952253,-7.21565 0,0 12.793235,-6.23114 12.793235,-6.23114 l 0,0 c -0.453671,2.57374 -1.121749,5.09239 -2.012548,7.55296 -1.470324,3.81414 -3.286863,7.50267 -4.196398,11.51198 -0.51166,3.07739 -0.55212,6.19528 -0.121193,9.29119 0,0 -13.272125,6.76248 -13.272125,6.76248 z"
           inkscape:connector-curvature="0" />
        <path
           style="fill:#4d4d4d;fill-opacity:1;fill-rule:nonzero;stroke:none"
           id="path3805"
           d="m 88.487002,296.76522 c -0.0884,2.36387 3.437372,2.2651 5.0633,2.51066 4.504091,0.52261 9.048178,0.52554 13.574408,0.39835 1.83573,-0.0517 0.96673,-0.0197 2.60717,-0.0914 0,0 -11.787045,8.56616 -11.787045,8.56616 l 0,0 c -1.478514,-0.0684 -0.687925,-0.0353 -2.371893,-0.0962 -4.494703,-0.21561 -8.99855,-0.30437 -13.48248,-0.69834 -2.992278,-0.41088 -5.987659,-0.43386 -6.932751,-3.79754 0,0 13.329291,-6.79162 13.329291,-6.79162 z"
           inkscape:connector-curvature="0" />
        <path
           style="fill:#b3b3b3;fill-opacity:1;fill-rule:nonzero;stroke:none"
           id="path3809"
           d="m 85.259236,321.01459 c 0.123677,-0.39807 0.169259,-0.82946 0.371031,-1.19422 1.484304,-2.68326 5.550652,-6.42445 7.969117,-8.41631 6.420016,-4.17324 12.926486,-9.33722 20.628536,-10.76562 2.35677,-0.16279 4.74183,-0.15203 7.10624,-0.0881 2.07649,0.0716 4.15405,0.0733 6.2314,0.0914 0,0 -11.54992,8.38425 -11.54992,8.38425 l 0,0 c -2.13106,8.8e-4 -4.26212,-0.0175 -6.39299,0.024 -2.34445,0.0369 -4.7146,-0.0982 -7.02186,0.41873 -1.1348,0.28294 -2.23063,0.59588 -3.303101,1.07579 -0.4761,0.21304 -1.850104,0.96172 -1.402474,0.69397 15.925335,-9.52562 13.046715,-7.74023 8.709775,-5.00971 -3.10944,2.13769 -5.84207,4.90406 -8.016463,7.99411 0,0 -13.329291,6.79161 -13.329291,6.79161 z"
           inkscape:connector-curvature="0" />
        <path
           style="fill:#b3b3b3;fill-opacity:1;fill-rule:nonzero;stroke:none"
           id="path3811"
           d="m 89.468571,333.26611 c -0.298327,2.87289 0.281614,6.00328 2.678155,7.87487 0.515791,0.40281 1.115403,0.68487 1.673105,1.02731 3.876217,1.70459 8.174259,2.12122 12.364589,1.87425 2.52341,-0.28472 4.63341,-1.61229 6.90085,-2.61764 0.22651,-0.13913 0.45303,-0.27825 0.67954,-0.41738 0,0 -11.48119,9.22307 -11.48119,9.22307 l 0,0 c -0.24608,0.10959 -0.49217,0.21917 -0.73825,0.32875 -2.177221,0.93888 -4.305877,1.86229 -6.748775,1.78986 -4.385504,-0.0932 -8.844173,-0.51289 -12.785154,-2.6015 -0.621728,-0.42495 -1.291966,-0.78642 -1.865182,-1.27484 -2.546198,-2.1695 -3.167857,-5.35835 -3.949813,-8.44426 0,0 13.272125,-6.76249 13.272125,-6.76249 z"
           inkscape:connector-curvature="0" />
        <path
           style="fill:#b3b3b3;fill-opacity:1;fill-rule:nonzero;stroke:none"
           id="path3813"
           d="m 131.89498,321.14428 c -0.4635,3.68819 -0.61784,7.43729 -0.17623,11.13316 0.18802,0.32198 0.31656,0.68707 0.56407,0.96592 0.64793,0.73 1.74318,1.21613 2.55446,1.65825 2.30421,1.25572 4.65855,2.26874 7.06981,3.30121 3.2216,1.55436 6.79411,1.95086 10.14564,3.08621 0.87235,0.3353 0.4756,0.17024 1.19423,0.48552 0,0 -12.45664,8.18036 -12.45664,8.18036 l 0,0 c -0.52598,-0.32175 -0.22927,-0.14996 -0.89638,-0.50441 -3.07225,-1.3893 -6.45816,-1.99916 -9.43908,-3.6277 -2.84666,-1.27054 -1.99013,-0.90634 -4.93713,-2.14605 -1.91801,-0.80684 -4.40264,-1.52979 -5.74081,-3.28645 -0.34381,-0.45133 -0.49079,-1.02311 -0.73618,-1.53467 -0.12169,-3.64814 0.22295,-7.32786 -0.41789,-10.94886 0,0 13.27213,-6.76249 13.27213,-6.76249 z"
           inkscape:connector-curvature="0" />
        <path
           style="fill:#b3b3b3;fill-opacity:1;fill-rule:nonzero;stroke:none"
           id="path3815"
           d="m 104.45213,343.23795 c 0.16679,-1.96726 0.19114,-3.94583 0.19934,-5.91953 -0.31746,-2.23017 0.2195,-4.03242 1.29736,-5.9697 1.27943,-1.94 1.98774,-4.12639 2.47617,-6.3754 0.17003,-1.16233 0.17738,-2.33631 0.13479,-3.507 0,0 13.22772,-6.68505 13.22772,-6.68505 l 0,0 c -0.12004,1.26241 -0.2431,2.52457 -0.34926,3.78825 -0.16937,2.46405 -1.08224,4.70915 -2.20476,6.89756 -1.10246,1.66315 -1.81775,3.21552 -1.6514,5.26286 0.008,1.90581 0.0268,3.81772 0.19934,5.7164 0,0 -13.3293,6.79161 -13.3293,6.79161 z"
           inkscape:connector-curvature="0" />
        <path
           style="fill:#b3b3b3;fill-opacity:1;fill-rule:nonzero;stroke:none"
           id="path3817"
           d="m 150.04529,294.42952 c 0.58169,0.0362 1.50831,0.0114 1.97476,0.4494 2.21269,2.07751 1.75571,6.52057 1.60279,9.23091 -0.34729,2.71974 -0.61926,5.46671 -1.20718,8.14919 0,0 -13.34042,6.39292 -13.34042,6.39292 l 0,0 c 0.76107,-2.76813 1.94324,-5.43805 2.15774,-8.34683 0.1608,-1.66444 0.79659,-6.18248 -1.21996,-7.12393 -0.36343,-0.16967 -1.62725,-0.052 -1.96667,-0.0339 0,0 11.99894,-8.71773 11.99894,-8.71773 z"
           inkscape:connector-curvature="0" />
        <path
           style="fill:#b3b3b3;fill-opacity:1;fill-rule:nonzero;stroke:none"
           id="path3819"
           d="m 114.75097,357.37438 c -0.14762,1.43982 -0.0249,2.88435 -0.15971,4.32448 -0.17369,1.1658 -0.58276,2.26693 -1.06488,3.33458 0,0 -13.50074,5.93178 -13.50074,5.93178 l 0,0 c 0.7181,-0.77908 1.13881,-1.73027 1.31408,-2.78165 0.33271,-1.2949 0.15043,-2.69349 0.082,-4.01758 0,0 13.32929,-6.79161 13.32929,-6.79161 z"
           inkscape:connector-curvature="0" />
        <path
           style="fill:#b3b3b3;fill-opacity:1;fill-rule:nonzero;stroke:none"
           id="path3821"
           d="m 92.401723,387.27935 c 1.439312,-1.71738 2.529901,-3.61428 3.272149,-5.72242 0.556108,-1.89597 0.77917,-3.86277 0.877403,-5.82954 0.03195,-1.49834 0.03334,-0.77294 0.002,-2.17622 0,0 13.013305,-6.6224 13.013305,-6.6224 l 0,0 c -0.0453,1.4487 -0.0315,0.70516 -0.0383,2.2307 -0.01,2.1154 -0.0203,4.20312 -0.75514,6.22539 -0.61,2.10749 -1.39096,4.13419 -2.70165,5.9135 0,0 -13.669772,5.98099 -13.669772,5.98099 z"
           inkscape:connector-curvature="0" />
        <path
           style="fill:#b3b3b3;fill-opacity:1;fill-rule:nonzero;stroke:none"
           id="path3823"
           d="m 103.61954,361.63336 c -0.7138,1.68689 -2.44319,2.73177 -3.97021,3.61382 -13.656424,7.88838 -9.081371,5.84769 -15.700401,8.68266 -1.53584,0.63675 -3.147575,1.0432 -4.750875,1.46422 0,0 11.457251,-8.7812 11.457251,-8.7812 l 0,0 c 1.481994,-0.38701 2.953667,-0.81089 4.350252,-1.45421 5.355303,-2.53632 2.162903,-1.08605 -8.544454,5.19003 -0.508873,0.29828 1.031183,-0.57386 1.532888,-0.88404 2.870295,-1.77457 -0.280828,0.15249 1.639262,-1.25101 0.136604,-0.0999 0.303223,-0.15027 0.454834,-0.2254 0,0 13.531453,-6.35487 13.531453,-6.35487 z"
           inkscape:connector-curvature="0" />
      </g>
      <g
         transform="matrix(-1,0,0,-1,719.38235,966.63292)"
         id="g3859">
        <path
           inkscape:connector-curvature="0"
           id="path3861"
           d="m 69.700526,306.8696 c 1.34687,1.34687 2.69374,2.69374 4.04061,4.04061 1.010152,0.33672 2.178622,0.37128 3.030457,1.01016 0.602339,0.45175 0.477756,1.4879 1.010153,2.0203 1.218976,1.21898 3.45653,2.23334 5.050763,3.03046 3.35559,1.67779 6.288796,3.19334 10.101525,4.04061 0.986098,0.21913 2.020305,0 3.030458,0 2.69374,0 5.387478,0 8.081218,0 1.01015,0 2.03992,-0.19811 3.03046,0 0.7383,0.14766 1.28986,0.82754 2.0203,1.01015 0.65333,0.16333 1.34687,0 2.02031,0 1.01015,0 2.02031,0 3.03046,0"
           style="fill:none;stroke:#000000;stroke-width:0.89999998;stroke-linecap:butt;stroke-linejoin:miter;stroke-miterlimit:4;stroke-opacity:1;stroke-dasharray:none" />
        <path
           inkscape:connector-curvature="0"
           d="m 95.233797,318.21227 c 2.134281,2.93461 4.13164,5.97386 6.402843,8.80382 5.84962,7.28876 14.06267,16.11514 20.50124,22.80366 8.46297,8.79152 17.25315,17.26285 26.12345,25.63907 4.35789,3.57188 8.9651,7.09696 14.78573,7.59468 3.02376,0.25856 5.63128,-0.76516 8.31516,-1.94883 0.58186,-0.33808 1.16373,-0.67615 1.74559,-1.01423 0,0 -11.03238,8.84528 -11.03238,8.84528 l 0,0 c -0.54795,0.24285 -1.0959,0.4857 -1.64384,0.72855 -2.70597,0.84007 -5.30671,1.51014 -8.16106,0.75065 -5.37119,-1.42918 -9.06253,-5.77513 -12.59485,-9.74045 -10.8223,-13.45475 -21.88815,-26.71479 -34.41595,-38.64615 -3.70169,-3.52546 -7.468494,-6.99725 -11.46114,-10.18947 -3.082889,-2.46484 -6.485263,-4.50111 -9.727894,-6.75166 0,0 11.163101,-6.87492 11.163101,-6.87492 z"
           id="path3863"
           style="fill:#1a1a1a;fill-opacity:1;fill-rule:nonzero;stroke:none" />
        <path
           inkscape:connector-curvature="0"
           d="m 141.62563,279.93964 c 5.66027,0.0382 11.352,1.1034 16.1853,4.28097 1.87417,1.23214 3.44466,2.87352 5.16699,4.31028 1.4179,2.37423 3.0891,4.61448 4.25369,7.12269 3.32251,7.15579 5.57142,16.59145 1.77056,24.11812 -2.81237,5.56919 -7.16578,7.94994 -11.92656,11.50988 -12.33382,7.79061 -25.40178,14.45239 -39.85156,16.98136 -2.87088,0.5335 -5.93418,0.0512 -8.7584,0.90512 -1.49296,0.45139 -2.29158,1.08026 -3.62372,1.90639 17.47089,-10.46104 9.16101,-5.41872 5.82951,-1.34294 -1.20659,1.47615 -2.24229,3.1009 -3.26063,4.70894 -1.39603,2.15339 -1.82396,4.62624 -1.91658,7.14341 0.0254,1.62199 0.0775,3.19728 -0.39771,4.76272 -1.19245,2.15778 -1.91312,4.45888 -2.52135,6.83908 -0.40136,1.71671 -0.22794,0.89245 -0.52961,2.47077 0,0 -13.08137,6.30175 -13.08137,6.30175 l 0,0 c 0.432695,-1.66069 0.21157,-0.79626 0.661459,-2.59378 0.639322,-2.30525 0.88453,-4.74021 2.049811,-6.84651 0.81675,-1.35881 0.732774,-2.85029 0.776333,-4.39372 0.244836,-2.73452 0.456018,-5.5409 1.876704,-7.96599 6.854853,-9.6738 8.475923,-10.79258 21.339723,-17.82488 1.86388,-0.94101 2.18529,-1.27096 4.15976,-1.67727 2.71644,-0.55898 5.55524,-0.0443 8.27909,-0.56594 5.22402,-0.7406 10.28428,-1.97371 15.21674,-3.89378 2.06045,-0.80208 3.95212,-2.07152 6.09444,-2.61855 0.9219,-0.2354 -1.54997,1.10402 -2.32495,1.65603 4.63671,-3.26949 8.9986,-5.54321 11.90825,-10.70647 4.11744,-7.30654 2.6864,-16.36422 -1.12325,-23.39475 -1.26519,-2.33485 -3.15835,-4.27009 -4.73753,-6.40513 -1.76992,-1.28448 -3.38779,-2.81009 -5.30975,-3.85344 -5.36324,-2.91151 -12.20235,-3.563 -18.01078,-1.7628 0,0 11.80539,-9.17156 11.80539,-9.17156 z"
           id="path3865"
           style="fill:#1a1a1a;fill-opacity:1;fill-rule:nonzero;stroke:none" />
        <path
           inkscape:connector-curvature="0"
           d="m 94.961291,369.27508 c 5.584509,0.40535 11.165739,0.16389 16.743519,0.71881 1.00907,0.17772 3.90661,0.48879 4.7699,1.37945 1.6744,1.7275 2.1935,5.22775 2.54368,7.31832 0.39209,2.34082 0.90766,7.70239 1.15174,10.0689 0.48526,5.96536 1.33977,11.91175 1.36838,17.90412 0.25865,2.02151 -0.2474,4.27282 0.31149,6.26366 0,0 -13.11357,7.10737 -13.11357,7.10737 l 0,0 c -0.54086,-2.1422 0.62096,-4.78054 0.25527,-6.9871 0.0993,-6.16704 0.66896,-12.33565 0.10577,-18.50175 -0.41141,-3.96726 -0.90808,-12.59863 -4.25559,-15.40877 -0.90452,-0.75932 -3.26627,-1.04524 -4.25798,-1.23572 -5.762922,-0.6022 -11.585135,-0.46106 -17.362015,-0.0981 0,0 11.739406,-8.52918 11.739406,-8.52918 z"
           id="path3867"
           style="fill:#1a1a1a;fill-opacity:1;fill-rule:nonzero;stroke:none" />
        <path
           inkscape:connector-curvature="0"
           d="m 201.56307,286.3483 c 0.97427,0.0392 2.44619,0.28804 3.02053,1.22707 1.49249,2.44017 1.33925,6.1884 1.55949,8.88599 -0.0459,1.40996 0.0958,2.8386 -0.13756,4.22988 -1.43142,8.535 -7.56357,17.56652 -12.44442,24.60629 -2.44359,3.61472 -5.87942,6.54416 -7.67493,10.56924 -0.20888,0.66891 -0.53017,1.41967 -0.40057,2.15106 0.44105,2.48904 5.45931,6.23321 7.06617,7.66652 7.65629,5.9269 15.81965,11.83557 25.17256,14.71511 1.67081,0.21354 0.99898,0.32912 2.045,0.0191 0,0 -12.17586,8.58181 -12.17586,8.58181 l 0,0 c -0.68399,-0.54857 -0.24902,-0.21349 -1.33111,-0.97029 -8.31554,-4.91502 -16.20897,-10.49899 -24.44332,-15.54858 -2.86179,-1.7721 -9.57194,-5.05603 -9.37784,-9.3475 0.0191,-0.42153 0.21129,-0.81705 0.31693,-1.22557 1.89214,-4.7097 6.05951,-7.71462 9.17352,-11.59173 5.34343,-6.77904 11.47497,-14.90655 12.4978,-23.74552 0.15088,-1.30385 -0.023,-2.625 -0.0345,-3.9375 -0.35564,-2.04781 -0.48966,-5.47773 -2.06007,-7.16087 -0.65102,-0.69774 -1.97387,-0.40606 -2.77079,-0.40675 0,0 11.99894,-8.71773 11.99894,-8.71773 z"
           id="path3869"
           style="fill:#1a1a1a;fill-opacity:1;fill-rule:nonzero;stroke:none" />
        <path
           inkscape:connector-curvature="0"
           d="m 177.33981,376.94129 c 3.39084,5.15192 7.73307,9.63838 11.69885,14.35333 3.97673,4.3937 4.36228,8.6956 2.89639,14.1864 -0.60005,2.52822 -2.11249,4.23783 -4.13456,5.75228 -0.83811,0.54853 -1.66079,1.11408 -2.12325,2.02241 0,0 -13.60102,6.30359 -13.60102,6.30359 l 0,0 c 0.39221,-1.24043 0.9781,-2.25534 2.0862,-2.99939 2.2888,-1.3251 3.91656,-2.52575 4.96066,-5.05673 2.07481,-5.23239 1.9809,-8.72714 -1.4278,-13.43713 -3.75607,-5.05864 -7.96518,-9.62563 -13.1202,-13.30253 0,0 12.76473,-7.82223 12.76473,-7.82223 z"
           id="path3871"
           style="fill:#1a1a1a;fill-opacity:1;fill-rule:nonzero;stroke:none" />
        <path
           inkscape:connector-curvature="0"
           d="m 144.94398,413.54244 c 1.00685,-6.9031 0.86106,-13.92516 0.64066,-20.88008 -0.34383,-4.7624 -0.22829,-9.48928 1.15217,-14.078 1.10303,-3.23102 2.70458,-6.18658 4.55366,-9.03714 2.11584,-2.75076 3.33392,-4.68235 4.24581,-8.0775 0.41203,-3.50674 -0.15357,-7.26693 -1.95945,-10.34012 -0.6568,-1.02766 -1.52218,-1.47975 -2.68759,-1.61934 0,0 12.26025,-8.39503 12.26025,-8.39503 l 0,0 c 1.34351,0.58161 2.36367,1.47983 3.00345,2.82818 1.63787,3.52096 1.89844,7.54836 2.11333,11.37592 -0.5586,3.41224 -1.45933,5.96648 -3.90482,8.49564 -1.84699,2.79771 -3.58048,5.60624 -4.80169,8.74918 -1.67972,4.53604 -2.23073,9.20947 -2.09864,14.04684 -0.20667,6.73247 -0.42666,13.55571 0.64066,20.22722 0,0 -13.1578,6.70423 -13.1578,6.70423 z"
           id="path3873"
           style="fill:#1a1a1a;fill-opacity:1;fill-rule:nonzero;stroke:none" />
        <path
           inkscape:connector-curvature="0"
           d="m 130.7589,287.18015 c -1.22053,3.29655 -2.73714,6.46366 -3.90459,9.78355 -1.01167,2.58222 -2.02764,5.14339 -2.809,7.80609 -0.8533,2.61905 -1.21356,5.33477 -1.41782,8.06958 -0.0771,2.43372 -0.0775,4.87835 0.0905,7.3089 0.008,0.65997 0.0522,1.31848 0.11565,1.97513 0,0 -13.34319,6.81017 -13.34319,6.81017 l 0,0 c 0.0523,-0.69647 0.091,-1.39409 0.0962,-2.09274 0.15691,-2.52731 0.1965,-5.06131 0.30718,-7.59076 0.0625,-2.81573 0.12105,-5.61974 1.0971,-8.30272 0.83382,-2.69931 1.66563,-5.36219 2.86989,-7.93206 1.20336,-3.11936 2.70271,-6.1333 3.6361,-9.35144 0,0 13.26194,-6.4837 13.26194,-6.4837 z"
           id="path3875"
           style="fill:#1a1a1a;fill-opacity:1;fill-rule:nonzero;stroke:none" />
        <path
           inkscape:connector-curvature="0"
           d="m 101.46308,346.93859 c 2.45682,0.2409 4.93525,0.16691 7.39883,0.0775 0.34664,0.68407 0.8446,1.31061 1.03994,2.05219 0.30212,1.14696 0.48455,6.09174 0.53072,7.01305 0.1747,3.48614 0.38814,6.9611 0.66285,10.44065 0,0 -12.0742,6.19466 -12.0742,6.19466 l 0,0 c 0.110499,-5.29308 0.394147,-11.48245 -1.551616,-16.49394 -0.09074,-0.2337 -0.296851,-0.40407 -0.445277,-0.6061 -2.535459,-0.10227 -5.081485,-0.13985 -7.61208,0.0775 0,0 12.050833,-8.75545 12.050833,-8.75545 z"
           id="path3877"
           style="fill:#1a1a1a;fill-opacity:1;fill-rule:nonzero;stroke:none" />
        <path
           inkscape:connector-curvature="0"
           d="m 91.786769,379.17301 c 12.101501,-2.34191 24.327061,-5.42064 35.576061,-10.5804 3.35996,-1.54117 6.55018,-3.42834 9.82526,-5.1425 0.54518,-0.49479 1.04931,-1.03897 1.63552,-1.48438 7.26279,-5.51843 7.83343,-5.16168 14.06973,-11.17629 3.08335,-2.97374 5.61866,-5.9577 7.87405,-9.57936 0.84396,-1.35522 1.48626,-2.82607 2.22939,-4.2391 2.7007,-5.99839 3.11363,-12.42575 2.86802,-18.88488 -0.0772,-3.42473 -0.38894,-6.8445 -1.44703,-10.11417 -0.95021,-2.51845 -1.61827,-5.12129 -2.34488,-7.71001 -0.6637,-2.11032 -1.23391,-4.24803 -1.87884,-6.36416 -0.138,-0.76652 -0.0985,-0.32111 -0.0289,-1.34116 0,0 13.50386,-6.21501 13.50386,-6.21501 l 0,0 c -0.49222,0.19 -0.36884,0.0106 -0.33697,0.55959 0.15532,2.22318 0.58386,4.41587 1.183,6.56132 0.80557,2.56064 1.99464,4.99051 2.62555,7.60304 0.75403,3.48668 1.17296,7.07398 1.2529,10.63655 -0.24194,6.87927 -1.31991,13.79521 -4.00765,20.16888 -2.49439,4.37151 -2.92965,5.60073 -6.4158,9.58177 -10.40211,11.87875 -24.54869,19.72401 -37.88674,27.70248 -3.44327,1.80465 -6.80006,3.78493 -10.32982,5.41395 -3.16989,1.46293 -6.46165,2.65049 -9.74074,3.84878 -9.82545,3.59052 -19.929286,6.37022 -29.918942,9.44978 0,0 11.692941,-8.69472 11.692941,-8.69472 z"
           id="path3879"
           style="fill:#1a1a1a;fill-opacity:1;fill-rule:nonzero;stroke:none" />
        <path
           inkscape:connector-curvature="0"
           d="m 192.57357,282.65098 c 0.69638,3.92376 2.19375,7.6293 3.49091,11.37729 0.028,0.5611 0.37284,1.20142 0.084,1.68331 -0.60304,1.00623 -1.53432,1.83701 -2.54782,2.42776 -5.15681,3.00581 -10.44734,5.79821 -15.86455,8.30449 -1.83151,0.84734 -3.86655,1.15748 -5.8044,1.72064 -6.32854,1.83916 -6.17845,1.76515 -12.46161,3.45354 -4.98056,1.24409 -9.92174,2.62956 -14.8475,4.07233 -1.28589,0.37664 -2.59748,0.67457 -3.85781,1.12952 -3.98702,1.43922 -5.87263,2.61786 -9.75173,4.64972 1.27576,-0.72909 5.00783,-3.06217 3.82728,-2.18728 -1.95116,1.446 -4.12392,2.56733 -6.14899,3.90788 -5.92114,3.91965 -11.51784,8.19193 -16.8445,12.87937 -1.45768,1.29962 -2.83178,2.6851 -4.16565,4.10943 0,0 -13.306195,5.4977 -13.306195,5.4977 l 0,0 c 1.760223,-1.61998 3.550238,-3.20692 5.40012,-4.72484 12.572085,-10.25797 26.072475,-19.26583 40.431065,-26.86665 4.19745,-2.214 6.54695,-3.66603 10.91194,-5.23152 1.20764,-0.43311 2.47374,-0.68183 3.71472,-1.00735 4.65891,-1.22208 9.35799,-2.2793 14.03384,-3.43299 5.0652,-1.31199 7.30321,-1.81163 12.36724,-3.46656 2.11501,-0.69119 6.56178,-4.43781 6.29204,-2.22914 -0.31883,2.61068 -4.51565,2.73068 -6.55597,4.39031 -0.89513,0.72811 4.0738,-1.1118 2.62281,-2.25905 -0.96673,-3.77092 -2.13206,-7.51936 -3.94696,-10.97875 0,0 12.92767,-7.21916 12.92767,-7.21916 z"
           id="path3881"
           style="fill:#1a1a1a;fill-opacity:1;fill-rule:nonzero;stroke:none" />
        <path
           inkscape:connector-curvature="0"
           d="m 92.531193,351.10333 c 0.563517,3.10412 0.911622,6.23301 1.196633,9.37503 0.158112,4.19113 0.182696,8.38407 0.339044,12.57547 0,0 -12.385582,6.32809 -12.385582,6.32809 l 0,0 c 0.06011,-4.13767 0.01716,-8.27968 -0.426105,-12.39918 -0.292652,-2.95493 -0.647787,-5.90825 -1.81878,-8.66754 0,0 13.09479,-7.21187 13.09479,-7.21187 z"
           id="path3883"
           style="fill:#1a1a1a;fill-opacity:1;fill-rule:nonzero;stroke:none" />
        <path
           inkscape:connector-curvature="0"
           d="m 87.846979,402.91778 c 3.449018,5.03933 6.876508,10.13551 10.799507,14.82411 1.726434,1.82174 3.290964,3.90297 5.687524,4.83225 0.84,0.15151 1.38774,0.66187 1.82984,1.34954 0,0 -12.894639,7.54802 -12.894639,7.54802 l 0,0 c -0.302281,-0.41255 -0.841557,-0.53574 -1.251244,-0.81118 -2.291254,-1.45421 -3.745679,-3.63348 -5.212388,-5.88102 -3.449994,-5.00026 -6.509335,-10.44002 -11.336507,-14.27653 0,0 12.377907,-7.58519 12.377907,-7.58519 z"
           id="path3885"
           style="fill:#1a1a1a;fill-opacity:1;fill-rule:nonzero;stroke:none" />
        <path
           inkscape:connector-curvature="0"
           d="m 242.03019,289.69416 c -0.0795,0.33358 -0.0795,0.6969 -0.23847,1.00075 -1.30263,2.48987 -3.72686,4.50609 -5.6007,6.53424 -2.55876,2.76946 -1.98828,2.15406 -4.30611,4.91724 -2.24491,3.12869 -5.05029,5.67237 -7.9162,8.19926 -6.01678,5.31838 -13.20116,10.16288 -21.24053,11.29522 -4.83915,-0.0876 -5.70891,-1.84968 -6.8751,-6.35207 -0.55575,-2.1456 -1.17938,-5.82423 -1.57585,-8.01879 0,0 11.51475,-6.11916 11.51475,-6.11916 l 0,0 c 0.55722,3.3324 1.12273,9.85051 4.58056,11.65125 1.29031,0.67195 2.24074,0.41382 3.61084,0.32528 1.48251,-0.36945 2.13433,-0.46658 3.50603,-1.03931 0.53982,-0.22539 2.08203,-1.06353 1.58146,-0.76081 -19.56924,11.83456 -12.002,7.72802 -8.39636,4.42624 3.04529,-2.67647 6.29869,-5.1079 8.8061,-8.34751 3.08352,-3.61711 6.49675,-7.03374 9.22029,-10.92022 0,0 13.32929,-6.79161 13.32929,-6.79161 z"
           id="path3887"
           style="fill:#1a1a1a;fill-opacity:1;fill-rule:nonzero;stroke:none" />
        <path
           inkscape:connector-curvature="0"
           d="m 225.14557,299.73768 c 4.07771,5.19016 8.03129,10.40389 11.10458,16.26005 1.54307,3.11191 3.17167,6.17481 4.43631,9.4129 0.0627,0.16872 0.1254,0.33744 0.1881,0.50617 0,0 -13.09607,7.04949 -13.09607,7.04949 l 0,0 c -0.0158,-0.1732 -0.0316,-0.3464 -0.0474,-0.51959 -0.52095,-3.41109 -1.8214,-6.64987 -3.14739,-9.81492 -2.75165,-5.96836 -6.4425,-11.41829 -11.89337,-15.2615 0,0 12.45527,-7.6326 12.45527,-7.6326 z"
           id="path3889"
           style="fill:#4d4d4d;fill-opacity:1;fill-rule:nonzero;stroke:none" />
        <path
           inkscape:connector-curvature="0"
           d="m 183.44134,279.59263 c -0.33748,2.86532 -0.32,5.76872 -0.31299,8.65126 -0.0442,3.75277 -0.17772,7.4818 0.22518,11.21844 0.28907,3.14581 0.53458,6.29614 0.82867,9.4414 0.14711,2.40237 -0.65588,4.82873 -1.48866,7.06404 -0.0387,0.085 -0.7539,1.80796 -0.80515,1.81903 -0.37634,0.0813 -0.14796,-0.27278 -0.12599,-0.3177 2.43685,1.14788 4.95757,2.01711 7.51022,2.86253 1.73491,0.48764 3.50566,0.79214 5.25515,1.22084 0,0 -11.74449,8.09117 -11.74449,8.09117 l 0,0 c -1.75927,-0.47106 -3.53673,-0.84302 -5.30361,-1.28475 -2.81245,-0.85153 -5.5864,-1.8579 -8.28819,-3.00292 -1.76718,-1.83542 -0.83515,-1.5429 0.1996,-3.31334 1.0772,-1.97484 1.84527,-4.22526 1.86973,-6.48758 0.0273,-3.18458 -0.14616,-6.3716 -0.48569,-9.53792 -0.28773,-3.76173 -0.37106,-7.52762 -0.35008,-11.30058 0.007,-2.77512 0.0393,-5.57695 -0.31299,-8.33231 0,0 13.32929,-6.79161 13.32929,-6.79161 z"
           id="path3891"
           style="fill:#4d4d4d;fill-opacity:1;fill-rule:nonzero;stroke:none" />
        <path
           inkscape:connector-curvature="0"
           d="m 149.86815,361.3928 c -0.89799,-3.38477 -1.12986,-6.87097 -1.3028,-10.354 -0.21149,-4.66439 -0.13304,-9.33202 -0.27143,-13.99886 -0.36013,-2.60454 0.674,-6.84963 -0.70707,-9.14801 -0.47838,-0.79613 -1.15603,-1.45406 -1.73404,-2.18109 -5.4273,-4.723 -12.01355,-8.14226 -19.02389,-9.82733 -1.27099,-0.30551 -2.57324,-0.46202 -3.85986,-0.69302 -5.14962,-0.48025 -10.22157,0.3689 -15.21277,1.52702 0,0 11.56099,-8.73634 11.56099,-8.73634 l 0,0 c 4.75954,-0.6839 9.61063,-0.8409 14.39008,-0.25943 3.43757,0.82178 4.45175,0.9519 7.8402,2.24506 5.64438,2.15412 10.81254,5.39393 15.82331,8.71986 0.86485,0.7794 1.87486,1.42306 2.59455,2.3382 1.64053,2.08607 0.62923,7.09661 0.8205,9.64639 -0.11275,4.64683 -0.0455,9.29164 0.21,13.93355 0.25446,3.23074 0.44562,6.57358 1.7999,9.56885 0,0 -12.92767,7.21915 -12.92767,7.21915 z"
           id="path3893"
           style="fill:#4d4d4d;fill-opacity:1;fill-rule:nonzero;stroke:none" />
        <path
           inkscape:connector-curvature="0"
           d="m 89.171109,340.48518 c -3.851073,-0.1562 -5.426562,0.1789 -8.079185,-2.97647 -0.78987,-1.29669 -0.747962,-2.82125 0.716836,-3.70191 8.955791,-5.38431 10.116533,-7.30401 17.328343,-8.4126 4.221377,-0.64943 8.443657,-0.40447 12.674337,-0.0707 5.37121,0.63303 10.71341,1.4789 16.08696,2.09174 1.72069,0.19018 3.447,0.30133 5.17616,0.36955 0,0 -11.94385,8.52521 -11.94385,8.52521 l 0,0 c -1.58179,-0.20814 -3.1526,-0.49527 -4.71823,-0.80119 -5.24029,-0.94235 -10.47655,-1.90593 -15.80959,-2.14534 -4.259348,-0.1839 -8.5434,-0.17224 -12.757005,0.56947 -0.608983,0.14303 -1.226755,0.25277 -1.826948,0.42908 -0.564023,0.16568 -2.156161,0.91063 -1.660073,0.59524 3.554184,-2.25957 7.290049,-4.22261 10.865849,-6.44781 0.0246,-0.0153 -1.720373,0.53499 -1.850878,0.80528 -0.107159,0.22193 0.09318,0.48401 0.139774,0.72602 2.161378,2.55205 4.484978,1.95493 7.552621,1.80208 0,0 -11.895121,8.64231 -11.895121,8.64231 z"
           id="path3895"
           style="fill:#4d4d4d;fill-opacity:1;fill-rule:nonzero;stroke:none" />
        <path
           inkscape:connector-curvature="0"
           d="m 160.21714,281.01322 c -4.37855,3.60639 -8.97361,6.94704 -13.55949,10.28392 -6.57363,5.27066 -13.85174,9.01099 -21.21042,13.21601 -4.57508,1.86132 -12.70649,6.27651 7.38512,-4.56271 0.46382,-0.25023 -0.87309,0.60205 -1.24165,0.97875 -1.18077,1.20684 -1.21655,1.73845 -1.90111,3.33252 -0.0974,0.81023 -0.2834,1.61469 -0.29207,2.43071 -0.0595,5.60137 2.68727,12.68582 4.7274,17.85887 0.971,2.30245 2.26694,4.4269 3.60999,6.52262 0,0 -12.21254,7.02552 -12.21254,7.02552 l 0,0 c -1.12069,-2.32756 -2.08533,-4.71168 -2.92675,-7.15693 -0.8319,-2.48118 -1.61655,-4.97814 -2.46085,-7.45512 -1.46876,-4.30898 -3.33084,-8.62352 -3.11504,-13.27509 0.35987,-1.46294 0.48929,-2.62249 1.35439,-3.88477 0.325,-0.47422 0.71362,-0.93411 1.20289,-1.23597 5.66216,-3.49321 11.05826,-6.83857 17.02045,-9.52599 -22.12163,12.94494 -7.22955,4.46025 -2.61875,0.73213 4.30025,-2.95616 8.59637,-5.97625 12.4072,-9.55539 0,0 13.83123,-5.72908 13.83123,-5.72908 z"
           id="path3897"
           style="fill:#4d4d4d;fill-opacity:1;fill-rule:nonzero;stroke:none" />
        <path
           inkscape:connector-curvature="0"
           d="m 104.3234,365.739 c -4.846244,-0.33745 -9.707897,-0.34639 -14.563535,-0.36246 -4.114333,0.11936 -8.18387,0.74366 -12.2671,1.19787 -0.896979,-0.0642 -1.60726,0.27343 -2.382923,0.64753 0,0 11.702719,-9.07939 11.702719,-9.07939 l 0,0 c 0.790585,-0.13861 1.583877,-0.19703 2.386627,-0.22712 3.815972,-0.21919 7.636248,-0.38877 11.458022,-0.45628 5.18849,-0.017 10.38065,-0.0464 15.56131,-0.36246 0,0 -11.89512,8.64231 -11.89512,8.64231 z"
           id="path3899"
           style="fill:#4d4d4d;fill-opacity:1;fill-rule:nonzero;stroke:none" />
        <path
           inkscape:connector-curvature="0"
           d="m 102.65701,385.85835 c 1.70501,1.19277 3.07699,2.43166 4.00091,4.32431 0.67125,1.38456 1.22398,2.81558 1.76248,4.25566 0.0347,0.0334 0.0694,0.0669 0.10407,0.10031 0,0 -12.918092,7.54038 -12.918092,7.54038 l 0,0 c -0.09735,-0.17205 -0.194702,-0.3441 -0.292053,-0.51615 -0.252864,-1.45138 -0.722396,-2.84452 -1.407162,-4.15235 -0.753032,-1.63238 -2.01335,-2.67513 -3.668535,-3.38131 0,0 12.418382,-8.17085 12.418382,-8.17085 z"
           id="path3901"
           style="fill:#4d4d4d;fill-opacity:1;fill-rule:nonzero;stroke:none" />
        <path
           inkscape:connector-curvature="0"
           d="m 83.238931,428.09076 c 0.09891,-3.35531 0.873657,-6.60398 1.721681,-9.83667 1.009653,-4.07532 2.666897,-7.93432 4.664452,-11.61306 1.038684,-2.04876 2.161867,-4.00883 3.545687,-5.84138 0,0 13.189149,-5.62179 13.189149,-5.62179 l 0,0 c -1.54559,1.7629 -2.89195,3.62454 -3.93358,5.73942 -2.05465,3.60015 -3.693866,7.40675 -4.933068,11.36471 -0.836149,2.96631 -1.468956,5.93348 -0.92503,9.01716 0,0 -13.329291,6.79161 -13.329291,6.79161 z"
           id="path3903"
           style="fill:#4d4d4d;fill-opacity:1;fill-rule:nonzero;stroke:none" />
        <path
           inkscape:connector-curvature="0"
           d="m 74.176141,382.4985 c 0.33694,-3.27561 0.236036,-6.55857 0.695722,-9.82503 0.852895,-4.11173 2.584743,-7.97362 4.161054,-11.84679 0.951441,-2.32001 1.49134,-4.76178 1.952253,-7.21565 0,0 12.793235,-6.23114 12.793235,-6.23114 l 0,0 c -0.453671,2.57374 -1.121749,5.09239 -2.012548,7.55296 -1.470324,3.81414 -3.286863,7.50267 -4.196398,11.51198 -0.51166,3.07739 -0.55212,6.19528 -0.121193,9.29119 0,0 -13.272125,6.76248 -13.272125,6.76248 z"
           id="path3905"
           style="fill:#4d4d4d;fill-opacity:1;fill-rule:nonzero;stroke:none" />
        <path
           inkscape:connector-curvature="0"
           d="m 88.487002,296.76522 c -0.0884,2.36387 3.437372,2.2651 5.0633,2.51066 4.504091,0.52261 9.048178,0.52554 13.574408,0.39835 1.83573,-0.0517 0.96673,-0.0197 2.60717,-0.0914 0,0 -11.787045,8.56616 -11.787045,8.56616 l 0,0 c -1.478514,-0.0684 -0.687925,-0.0353 -2.371893,-0.0962 -4.494703,-0.21561 -8.99855,-0.30437 -13.48248,-0.69834 -2.992278,-0.41088 -5.987659,-0.43386 -6.932751,-3.79754 0,0 13.329291,-6.79162 13.329291,-6.79162 z"
           id="path3907"
           style="fill:#4d4d4d;fill-opacity:1;fill-rule:nonzero;stroke:none" />
        <path
           inkscape:connector-curvature="0"
           d="m 85.259236,321.01459 c 0.123677,-0.39807 0.169259,-0.82946 0.371031,-1.19422 1.484304,-2.68326 5.550652,-6.42445 7.969117,-8.41631 6.420016,-4.17324 12.926486,-9.33722 20.628536,-10.76562 2.35677,-0.16279 4.74183,-0.15203 7.10624,-0.0881 2.07649,0.0716 4.15405,0.0733 6.2314,0.0914 0,0 -11.54992,8.38425 -11.54992,8.38425 l 0,0 c -2.13106,8.8e-4 -4.26212,-0.0175 -6.39299,0.024 -2.34445,0.0369 -4.7146,-0.0982 -7.02186,0.41873 -1.1348,0.28294 -2.23063,0.59588 -3.303101,1.07579 -0.4761,0.21304 -1.850104,0.96172 -1.402474,0.69397 15.925335,-9.52562 13.046715,-7.74023 8.709775,-5.00971 -3.10944,2.13769 -5.84207,4.90406 -8.016463,7.99411 0,0 -13.329291,6.79161 -13.329291,6.79161 z"
           id="path3909"
           style="fill:#b3b3b3;fill-opacity:1;fill-rule:nonzero;stroke:none" />
        <path
           inkscape:connector-curvature="0"
           d="m 89.468571,333.26611 c -0.298327,2.87289 0.281614,6.00328 2.678155,7.87487 0.515791,0.40281 1.115403,0.68487 1.673105,1.02731 3.876217,1.70459 8.174259,2.12122 12.364589,1.87425 2.52341,-0.28472 4.63341,-1.61229 6.90085,-2.61764 0.22651,-0.13913 0.45303,-0.27825 0.67954,-0.41738 0,0 -11.48119,9.22307 -11.48119,9.22307 l 0,0 c -0.24608,0.10959 -0.49217,0.21917 -0.73825,0.32875 -2.177221,0.93888 -4.305877,1.86229 -6.748775,1.78986 -4.385504,-0.0932 -8.844173,-0.51289 -12.785154,-2.6015 -0.621728,-0.42495 -1.291966,-0.78642 -1.865182,-1.27484 -2.546198,-2.1695 -3.167857,-5.35835 -3.949813,-8.44426 0,0 13.272125,-6.76249 13.272125,-6.76249 z"
           id="path3911"
           style="fill:#b3b3b3;fill-opacity:1;fill-rule:nonzero;stroke:none" />
        <path
           inkscape:connector-curvature="0"
           d="m 131.89498,321.14428 c -0.4635,3.68819 -0.61784,7.43729 -0.17623,11.13316 0.18802,0.32198 0.31656,0.68707 0.56407,0.96592 0.64793,0.73 1.74318,1.21613 2.55446,1.65825 2.30421,1.25572 4.65855,2.26874 7.06981,3.30121 3.2216,1.55436 6.79411,1.95086 10.14564,3.08621 0.87235,0.3353 0.4756,0.17024 1.19423,0.48552 0,0 -12.45664,8.18036 -12.45664,8.18036 l 0,0 c -0.52598,-0.32175 -0.22927,-0.14996 -0.89638,-0.50441 -3.07225,-1.3893 -6.45816,-1.99916 -9.43908,-3.6277 -2.84666,-1.27054 -1.99013,-0.90634 -4.93713,-2.14605 -1.91801,-0.80684 -4.40264,-1.52979 -5.74081,-3.28645 -0.34381,-0.45133 -0.49079,-1.02311 -0.73618,-1.53467 -0.12169,-3.64814 0.22295,-7.32786 -0.41789,-10.94886 0,0 13.27213,-6.76249 13.27213,-6.76249 z"
           id="path3913"
           style="fill:#b3b3b3;fill-opacity:1;fill-rule:nonzero;stroke:none" />
        <path
           inkscape:connector-curvature="0"
           d="m 104.45213,343.23795 c 0.16679,-1.96726 0.19114,-3.94583 0.19934,-5.91953 -0.31746,-2.23017 0.2195,-4.03242 1.29736,-5.9697 1.27943,-1.94 1.98774,-4.12639 2.47617,-6.3754 0.17003,-1.16233 0.17738,-2.33631 0.13479,-3.507 0,0 13.22772,-6.68505 13.22772,-6.68505 l 0,0 c -0.12004,1.26241 -0.2431,2.52457 -0.34926,3.78825 -0.16937,2.46405 -1.08224,4.70915 -2.20476,6.89756 -1.10246,1.66315 -1.81775,3.21552 -1.6514,5.26286 0.008,1.90581 0.0268,3.81772 0.19934,5.7164 0,0 -13.3293,6.79161 -13.3293,6.79161 z"
           id="path3915"
           style="fill:#b3b3b3;fill-opacity:1;fill-rule:nonzero;stroke:none" />
        <path
           inkscape:connector-curvature="0"
           d="m 150.04529,294.42952 c 0.58169,0.0362 1.50831,0.0114 1.97476,0.4494 2.21269,2.07751 1.75571,6.52057 1.60279,9.23091 -0.34729,2.71974 -0.61926,5.46671 -1.20718,8.14919 0,0 -13.34042,6.39292 -13.34042,6.39292 l 0,0 c 0.76107,-2.76813 1.94324,-5.43805 2.15774,-8.34683 0.1608,-1.66444 0.79659,-6.18248 -1.21996,-7.12393 -0.36343,-0.16967 -1.62725,-0.052 -1.96667,-0.0339 0,0 11.99894,-8.71773 11.99894,-8.71773 z"
           id="path3917"
           style="fill:#b3b3b3;fill-opacity:1;fill-rule:nonzero;stroke:none" />
        <path
           inkscape:connector-curvature="0"
           d="m 114.75097,357.37438 c -0.14762,1.43982 -0.0249,2.88435 -0.15971,4.32448 -0.17369,1.1658 -0.58276,2.26693 -1.06488,3.33458 0,0 -13.50074,5.93178 -13.50074,5.93178 l 0,0 c 0.7181,-0.77908 1.13881,-1.73027 1.31408,-2.78165 0.33271,-1.2949 0.15043,-2.69349 0.082,-4.01758 0,0 13.32929,-6.79161 13.32929,-6.79161 z"
           id="path3919"
           style="fill:#b3b3b3;fill-opacity:1;fill-rule:nonzero;stroke:none" />
        <path
           inkscape:connector-curvature="0"
           d="m 92.401723,387.27935 c 1.439312,-1.71738 2.529901,-3.61428 3.272149,-5.72242 0.556108,-1.89597 0.77917,-3.86277 0.877403,-5.82954 0.03195,-1.49834 0.03334,-0.77294 0.002,-2.17622 0,0 13.013305,-6.6224 13.013305,-6.6224 l 0,0 c -0.0453,1.4487 -0.0315,0.70516 -0.0383,2.2307 -0.01,2.1154 -0.0203,4.20312 -0.75514,6.22539 -0.61,2.10749 -1.39096,4.13419 -2.70165,5.9135 0,0 -13.669772,5.98099 -13.669772,5.98099 z"
           id="path3921"
           style="fill:#b3b3b3;fill-opacity:1;fill-rule:nonzero;stroke:none" />
        <path
           inkscape:connector-curvature="0"
           d="m 103.61954,361.63336 c -0.7138,1.68689 -2.44319,2.73177 -3.97021,3.61382 -13.656424,7.88838 -9.081371,5.84769 -15.700401,8.68266 -1.53584,0.63675 -3.147575,1.0432 -4.750875,1.46422 0,0 11.457251,-8.7812 11.457251,-8.7812 l 0,0 c 1.481994,-0.38701 2.953667,-0.81089 4.350252,-1.45421 5.355303,-2.53632 2.162903,-1.08605 -8.544454,5.19003 -0.508873,0.29828 1.031183,-0.57386 1.532888,-0.88404 2.870295,-1.77457 -0.280828,0.15249 1.639262,-1.25101 0.136604,-0.0999 0.303223,-0.15027 0.454834,-0.2254 0,0 13.531453,-6.35487 13.531453,-6.35487 z"
           id="path3923"
           style="fill:#b3b3b3;fill-opacity:1;fill-rule:nonzero;stroke:none" />
      </g>
    </g>
    <rect
       style="fill:none;stroke:#000000;stroke-width:5;stroke-miterlimit:4;stroke-dasharray:none;stroke-opacity:1"
       id="rect4139"
       width="199.00005"
       height="165.66502"
       x="58.588848"
       y="269.49396" />
    <rect
       y="530.11334"
       x="460.62955"
       height="165.66502"
       width="199.00005"
       id="rect4141"
       style="fill:none;stroke:#000000;stroke-width:5;stroke-miterlimit:4;stroke-opacity:1;stroke-dasharray:none" />
    <text
       xml:space="preserve"
       style="font-size:40px;font-style:normal;font-variant:normal;font-weight:bold;font-stretch:normal;line-height:125%;letter-spacing:0px;word-spacing:0px;fill:#000000;fill-opacity:1;stroke:none;font-family:Droid Sans;-inkscape-font-specification:Droid Sans Bold"
       x="165.66502"
       y="607.89508"
       id="text4143"
       sodipodi:linespacing="125%"><tspan
         sodipodi:role="line"
         id="tspan4145"
         x="165.66502"
         y="607.89508">video</tspan></text>
    <text
       sodipodi:linespacing="125%"
       id="text4147"
       y="668.50421"
       x="101.01526"
       style="font-size:40px;font-style:normal;font-variant:normal;font-weight:bold;font-stretch:normal;line-height:125%;letter-spacing:0px;word-spacing:0px;fill:#000000;fill-opacity:1;stroke:none;font-family:Droid Sans;-inkscape-font-specification:Droid Sans Bold"
       xml:space="preserve"><tspan
         y="668.50421"
         x="101.01526"
         id="tspan4149"
         sodipodi:role="line">slideshow</tspan></text>
    <text
       sodipodi:linespacing="125%"
       id="text4151"
       y="552.66418"
       x="466.09073"
       style="font-size:21.81725502px;font-style:normal;font-variant:normal;font-weight:bold;font-stretch:normal;line-height:125%;letter-spacing:0px;word-spacing:0px;fill:#000000;fill-opacity:1;stroke:none;font-family:Droid Sans;-inkscape-font-specification:Droid Sans Bold"
       xml:space="preserve"><tspan
         y="552.66418"
         x="466.09073"
         id="tspan4153"
         sodipodi:role="line">kabelgewurste</tspan></text>
    <text
       xml:space="preserve"
       style="font-size:21.81725502px;font-style:normal;font-variant:normal;font-weight:bold;font-stretch:normal;line-height:125%;letter-spacing:0px;word-spacing:0px;fill:#000000;fill-opacity:1;stroke:none;font-family:Droid Sans;-inkscape-font-specification:Droid Sans Bold"
       x="97.385048"
       y="429.42557"
       id="text4155"
       sodipodi:linespacing="125%"><tspan
         sodipodi:role="line"
         id="tspan4157"
         x="97.385048"
         y="429.42557">kabelgewurste</tspan></text>
  </g>
</svg>
